<?xml version="1.0" encoding="us-ascii" standalone="no"?><svg xmlns="http://www.w3.org/2000/svg" xmlns:xlink="http://www.w3.org/1999/xlink" contentStyleType="text/css" height="442px" preserveAspectRatio="none" style="width:836px;height:442px;background:#FFFFFF;" version="1.1" viewBox="0 0 836 442" width="836px" zoomAndPan="magnify"><defs/><g><line style="stroke:#181818;stroke-width:0.5;stroke-dasharray:5.0,5.0;" x1="22" x2="22" y1="81.2969" y2="361.3594"/><line style="stroke:#181818;stroke-width:0.5;stroke-dasharray:5.0,5.0;" x1="89" x2="89" y1="81.2969" y2="361.3594"/><line style="stroke:#181818;stroke-width:0.5;stroke-dasharray:5.0,5.0;" x1="391.5" x2="391.5" y1="81.2969" y2="361.3594"/><line style="stroke:#181818;stroke-width:0.5;stroke-dasharray:5.0,5.0;" x1="649.5" x2="649.5" y1="81.2969" y2="361.3594"/><line style="stroke:#181818;stroke-width:0.5;stroke-dasharray:5.0,5.0;" x1="766.5" x2="766.5" y1="81.2969" y2="361.3594"/><text fill="#000000" font-family="sans-serif" font-size="14" lengthAdjust="spacing" textLength="28" x="5" y="77.9951">&#29992;&#25143;</text><ellipse cx="22" cy="13.5" fill="#E2E2F0" rx="8" ry="8" style="stroke:#181818;stroke-width:0.5;"/><path d="M22,21.5 L22,48.5 M9,29.5 L35,29.5 M22,48.5 L9,63.5 M22,48.5 L35,63.5 " fill="none" style="stroke:#181818;stroke-width:0.5;"/><text fill="#000000" font-family="sans-serif" font-size="14" lengthAdjust="spacing" textLength="28" x="5" y="373.3545">&#29992;&#25143;</text><ellipse cx="22" cy="385.1563" fill="#E2E2F0" rx="8" ry="8" style="stroke:#181818;stroke-width:0.5;"/><path d="M22,393.1563 L22,420.1563 M9,401.1563 L35,401.1563 M22,420.1563 L9,435.1563 M22,420.1563 L35,435.1563 " fill="none" style="stroke:#181818;stroke-width:0.5;"/><text fill="#000000" font-family="sans-serif" font-size="14" lengthAdjust="spacing" textLength="75" x="49" y="77.9951">&#31649;&#29702;&#21592;/&#31995;&#32479;</text><ellipse cx="89.5" cy="13.5" fill="#E2E2F0" rx="8" ry="8" style="stroke:#181818;stroke-width:0.5;"/><path d="M89.5,21.5 L89.5,48.5 M76.5,29.5 L102.5,29.5 M89.5,48.5 L76.5,63.5 M89.5,48.5 L102.5,63.5 " fill="none" style="stroke:#181818;stroke-width:0.5;"/><text fill="#000000" font-family="sans-serif" font-size="14" lengthAdjust="spacing" textLength="75" x="49" y="373.3545">&#31649;&#29702;&#21592;/&#31995;&#32479;</text><ellipse cx="89.5" cy="385.1563" fill="#E2E2F0" rx="8" ry="8" style="stroke:#181818;stroke-width:0.5;"/><path d="M89.5,393.1563 L89.5,420.1563 M76.5,401.1563 L102.5,401.1563 M89.5,420.1563 L76.5,435.1563 M89.5,420.1563 L102.5,435.1563 " fill="none" style="stroke:#181818;stroke-width:0.5;"/><rect fill="#E2E2F0" height="30.2969" rx="2.5" ry="2.5" style="stroke:#181818;stroke-width:0.5;" width="110" x="336.5" y="50"/><text fill="#000000" font-family="sans-serif" font-size="14" lengthAdjust="spacing" textLength="96" x="343.5" y="69.9951">nft-turbo-user</text><rect fill="#E2E2F0" height="30.2969" rx="2.5" ry="2.5" style="stroke:#181818;stroke-width:0.5;" width="110" x="336.5" y="360.3594"/><text fill="#000000" font-family="sans-serif" font-size="14" lengthAdjust="spacing" textLength="96" x="343.5" y="380.3545">nft-turbo-user</text><rect fill="#E2E2F0" height="30.2969" rx="2.5" ry="2.5" style="stroke:#181818;stroke-width:0.5;" width="98" x="600.5" y="50"/><text fill="#000000" font-family="sans-serif" font-size="14" lengthAdjust="spacing" textLength="84" x="607.5" y="69.9951">nft-turbo-file</text><rect fill="#E2E2F0" height="30.2969" rx="2.5" ry="2.5" style="stroke:#181818;stroke-width:0.5;" width="98" x="600.5" y="360.3594"/><text fill="#000000" font-family="sans-serif" font-size="14" lengthAdjust="spacing" textLength="84" x="607.5" y="380.3545">nft-turbo-file</text><rect fill="#E2E2F0" height="30.2969" rx="2.5" ry="2.5" style="stroke:#181818;stroke-width:0.5;" width="116" x="708.5" y="50"/><text fill="#000000" font-family="sans-serif" font-size="14" lengthAdjust="spacing" textLength="102" x="715.5" y="69.9951">nft-turbo-chain</text><rect fill="#E2E2F0" height="30.2969" rx="2.5" ry="2.5" style="stroke:#181818;stroke-width:0.5;" width="116" x="708.5" y="360.3594"/><text fill="#000000" font-family="sans-serif" font-size="14" lengthAdjust="spacing" textLength="102" x="715.5" y="380.3545">nft-turbo-chain</text><rect fill="#EEEEEE" height="3" style="stroke:#EEEEEE;stroke-width:1.0;" width="829.5" x="0" y="111.8633"/><line style="stroke:#000000;stroke-width:1.0;" x1="0" x2="829.5" y1="111.8633" y2="111.8633"/><line style="stroke:#000000;stroke-width:1.0;" x1="0" x2="829.5" y1="114.8633" y2="114.8633"/><rect fill="#EEEEEE" height="23.1328" style="stroke:#000000;stroke-width:2.0;" width="70" x="379.75" y="101.2969"/><text fill="#000000" font-family="sans-serif" font-size="13" font-weight="bold" lengthAdjust="spacing" textLength="56" x="385.75" y="117.3638">&#29992;&#25143;&#20132;&#20114;</text><polygon fill="#181818" points="379.5,151.5625,389.5,155.5625,379.5,159.5625,383.5,155.5625" style="stroke:#181818;stroke-width:1.0;"/><line style="stroke:#181818;stroke-width:1.0;" x1="22" x2="385.5" y1="155.5625" y2="155.5625"/><text fill="#000000" font-family="sans-serif" font-size="13" lengthAdjust="spacing" textLength="153" x="29" y="150.4966">&#29992;&#25143;&#27880;&#20876;&#65292;&#29366;&#24577;&#26356;&#26032;&#20026;INIT</text><polygon fill="#181818" points="379.5,180.6953,389.5,184.6953,379.5,188.6953,383.5,184.6953" style="stroke:#181818;stroke-width:1.0;"/><line style="stroke:#181818;stroke-width:1.0;" x1="22" x2="385.5" y1="184.6953" y2="184.6953"/><text fill="#000000" font-family="sans-serif" font-size="13" lengthAdjust="spacing" textLength="143" x="29" y="179.6294">&#29992;&#25143;&#26356;&#26032;&#36164;&#26009;&#65292;&#19978;&#20256;&#22836;&#20687;</text><polygon fill="#181818" points="637.5,209.8281,647.5,213.8281,637.5,217.8281,641.5,213.8281" style="stroke:#181818;stroke-width:1.0;"/><line style="stroke:#181818;stroke-width:1.0;" x1="391.5" x2="643.5" y1="213.8281" y2="213.8281"/><text fill="#000000" font-family="sans-serif" font-size="13" lengthAdjust="spacing" textLength="100" x="398.5" y="208.7622">&#22836;&#20687;&#22270;&#29255;&#23384;&#20648;oss</text><line style="stroke:#181818;stroke-width:1.0;" x1="391.5" x2="433.5" y1="242.9609" y2="242.9609"/><line style="stroke:#181818;stroke-width:1.0;" x1="433.5" x2="433.5" y1="242.9609" y2="255.9609"/><line style="stroke:#181818;stroke-width:1.0;" x1="392.5" x2="433.5" y1="255.9609" y2="255.9609"/><polygon fill="#181818" points="402.5,251.9609,392.5,255.9609,402.5,259.9609,398.5,255.9609" style="stroke:#181818;stroke-width:1.0;"/><text fill="#000000" font-family="sans-serif" font-size="13" lengthAdjust="spacing" textLength="244" x="398.5" y="237.895">&#29992;&#25143;&#23454;&#21517;&#35748;&#35777;&#65292;&#35748;&#35777;&#25104;&#21151;&#29366;&#24577;&#26356;&#26032;&#20026;AUTH</text><polygon fill="#181818" points="754.5,281.0938,764.5,285.0938,754.5,289.0938,758.5,285.0938" style="stroke:#181818;stroke-width:1.0;"/><line style="stroke:#181818;stroke-width:1.0;" x1="391.5" x2="760.5" y1="285.0938" y2="285.0938"/><text fill="#000000" font-family="sans-serif" font-size="13" lengthAdjust="spacing" textLength="266" x="398.5" y="280.0278">&#29992;&#25143;&#21019;&#24314;&#38142;&#36134;&#25143;&#65292;&#21019;&#24314;&#25104;&#21151;&#29366;&#24577;&#26356;&#26032;&#20026;ACTIVE</text><polygon fill="#181818" points="379.5,310.2266,389.5,314.2266,379.5,318.2266,383.5,314.2266" style="stroke:#181818;stroke-width:1.0;"/><line style="stroke:#181818;stroke-width:1.0;" x1="89.5" x2="385.5" y1="314.2266" y2="314.2266"/><text fill="#000000" font-family="sans-serif" font-size="13" lengthAdjust="spacing" textLength="278" x="96.5" y="309.1606">&#31649;&#29702;&#21592;/&#31995;&#32479;&#20923;&#32467;&#29992;&#25143;&#65292;&#29992;&#25143;&#29366;&#24577;&#21464;&#26356;&#20026;FROZEN</text><polygon fill="#181818" points="379.5,339.3594,389.5,343.3594,379.5,347.3594,383.5,343.3594" style="stroke:#181818;stroke-width:1.0;"/><line style="stroke:#181818;stroke-width:1.0;" x1="89.5" x2="385.5" y1="343.3594" y2="343.3594"/><text fill="#000000" font-family="sans-serif" font-size="13" lengthAdjust="spacing" textLength="270" x="96.5" y="338.2935">&#31649;&#29702;&#21592;/&#31995;&#32479;&#35299;&#20923;&#29992;&#25143;&#65292;&#29992;&#25143;&#29366;&#24577;&#21464;&#26356;&#20026;ACTIVE</text></g></svg>