<?xml version="1.0" encoding="us-ascii" standalone="no"?><svg xmlns="http://www.w3.org/2000/svg" xmlns:xlink="http://www.w3.org/1999/xlink" contentStyleType="text/css" height="733px" preserveAspectRatio="none" style="width:633px;height:733px;background:#FFFFFF;" version="1.1" viewBox="0 0 633 733" width="633px" zoomAndPan="magnify"><defs/><g><rect fill="none" height="280.6719" style="stroke:#000000;stroke-width:1.5;" width="487.5" x="128.5" y="355.2266"/><rect fill="none" height="163.4688" style="stroke:#000000;stroke-width:1.5;" width="467.5" x="138.5" y="465.4297"/><rect fill="none" height="90.2031" style="stroke:#000000;stroke-width:1.5;" width="261.5" x="148.5" y="531.6953"/><line style="stroke:#181818;stroke-width:0.5;stroke-dasharray:5.0,5.0;" x1="22" x2="22" y1="81.2969" y2="652.8984"/><line style="stroke:#181818;stroke-width:0.5;stroke-dasharray:5.0,5.0;" x1="84" x2="84" y1="81.2969" y2="652.8984"/><line style="stroke:#181818;stroke-width:0.5;stroke-dasharray:5.0,5.0;" x1="211.5" x2="211.5" y1="81.2969" y2="652.8984"/><line style="stroke:#181818;stroke-width:0.5;stroke-dasharray:5.0,5.0;" x1="340" x2="340" y1="81.2969" y2="652.8984"/><text fill="#000000" font-family="sans-serif" font-size="14" lengthAdjust="spacing" textLength="28" x="5" y="77.9951">&#29992;&#25143;</text><ellipse cx="22" cy="13.5" fill="#E2E2F0" rx="8" ry="8" style="stroke:#181818;stroke-width:0.5;"/><path d="M22,21.5 L22,48.5 M9,29.5 L35,29.5 M22,48.5 L9,63.5 M22,48.5 L35,63.5 " fill="none" style="stroke:#181818;stroke-width:0.5;"/><text fill="#000000" font-family="sans-serif" font-size="14" lengthAdjust="spacing" textLength="28" x="5" y="664.8936">&#29992;&#25143;</text><ellipse cx="22" cy="676.6953" fill="#E2E2F0" rx="8" ry="8" style="stroke:#181818;stroke-width:0.5;"/><path d="M22,684.6953 L22,711.6953 M9,692.6953 L35,692.6953 M22,711.6953 L9,726.6953 M22,711.6953 L35,726.6953 " fill="none" style="stroke:#181818;stroke-width:0.5;"/><rect fill="#E2E2F0" height="30.2969" rx="2.5" ry="2.5" style="stroke:#181818;stroke-width:0.5;" width="70" x="49" y="50"/><text fill="#000000" font-family="sans-serif" font-size="14" lengthAdjust="spacing" textLength="56" x="56" y="69.9951">&#25903;&#20184;&#28192;&#36947;</text><rect fill="#E2E2F0" height="30.2969" rx="2.5" ry="2.5" style="stroke:#181818;stroke-width:0.5;" width="70" x="49" y="651.8984"/><text fill="#000000" font-family="sans-serif" font-size="14" lengthAdjust="spacing" textLength="56" x="56" y="671.8936">&#25903;&#20184;&#28192;&#36947;</text><rect fill="#E2E2F0" height="30.2969" rx="2.5" ry="2.5" style="stroke:#181818;stroke-width:0.5;" width="107" x="158.5" y="50"/><text fill="#000000" font-family="sans-serif" font-size="14" lengthAdjust="spacing" textLength="93" x="165.5" y="69.9951">nft_turbo_pay</text><rect fill="#E2E2F0" height="30.2969" rx="2.5" ry="2.5" style="stroke:#181818;stroke-width:0.5;" width="107" x="158.5" y="651.8984"/><text fill="#000000" font-family="sans-serif" font-size="14" lengthAdjust="spacing" textLength="93" x="165.5" y="671.8936">nft_turbo_pay</text><rect fill="#E2E2F0" height="30.2969" rx="2.5" ry="2.5" style="stroke:#181818;stroke-width:0.5;" width="120" x="280" y="50"/><text fill="#000000" font-family="sans-serif" font-size="14" lengthAdjust="spacing" textLength="106" x="287" y="69.9951">nft_turbo_order</text><rect fill="#E2E2F0" height="30.2969" rx="2.5" ry="2.5" style="stroke:#181818;stroke-width:0.5;" width="120" x="280" y="651.8984"/><text fill="#000000" font-family="sans-serif" font-size="14" lengthAdjust="spacing" textLength="106" x="287" y="671.8936">nft_turbo_order</text><rect fill="#EEEEEE" height="3" style="stroke:#EEEEEE;stroke-width:1.0;" width="626" x="0" y="111.8633"/><line style="stroke:#000000;stroke-width:1.0;" x1="0" x2="626" y1="111.8633" y2="111.8633"/><line style="stroke:#000000;stroke-width:1.0;" x1="0" x2="626" y1="114.8633" y2="114.8633"/><rect fill="#EEEEEE" height="23.1328" style="stroke:#000000;stroke-width:2.0;" width="131" x="247.5" y="101.2969"/><text fill="#000000" font-family="sans-serif" font-size="13" font-weight="bold" lengthAdjust="spacing" textLength="112" x="253.5" y="117.3638">&#29992;&#25143;&#25195;&#30721;&#25903;&#20184;&#25104;&#21151;</text><polygon fill="#181818" points="200,151.5625,210,155.5625,200,159.5625,204,155.5625" style="stroke:#181818;stroke-width:1.0;"/><line style="stroke:#181818;stroke-width:1.0;stroke-dasharray:2.0,2.0;" x1="84" x2="206" y1="155.5625" y2="155.5625"/><text fill="#000000" font-family="sans-serif" font-size="13" lengthAdjust="spacing" textLength="104" x="91" y="150.4966">&#29992;&#25143;&#25903;&#20184;&#25104;&#21151;&#22238;&#35843;</text><polygon fill="#181818" points="328,180.6953,338,184.6953,328,188.6953,332,184.6953" style="stroke:#181818;stroke-width:1.0;"/><line style="stroke:#181818;stroke-width:1.0;" x1="212" x2="334" y1="184.6953" y2="184.6953"/><text fill="#000000" font-family="sans-serif" font-size="13" lengthAdjust="spacing" textLength="78" x="219" y="179.6294">&#26597;&#35810;&#35746;&#21333;&#20449;&#24687;</text><line style="stroke:#181818;stroke-width:1.0;" x1="212" x2="254" y1="213.8281" y2="213.8281"/><line style="stroke:#181818;stroke-width:1.0;" x1="254" x2="254" y1="213.8281" y2="226.8281"/><line style="stroke:#181818;stroke-width:1.0;" x1="213" x2="254" y1="226.8281" y2="226.8281"/><polygon fill="#181818" points="223,222.8281,213,226.8281,223,230.8281,219,226.8281" style="stroke:#181818;stroke-width:1.0;"/><text fill="#000000" font-family="sans-serif" font-size="13" lengthAdjust="spacing" textLength="78" x="219" y="208.7622">&#21028;&#26029;&#35746;&#21333;&#29366;&#24577;</text><polygon fill="#181818" points="328,251.9609,338,255.9609,328,259.9609,332,255.9609" style="stroke:#181818;stroke-width:1.0;"/><line style="stroke:#181818;stroke-width:1.0;" x1="212" x2="334" y1="255.9609" y2="255.9609"/><text fill="#000000" font-family="sans-serif" font-size="13" lengthAdjust="spacing" textLength="104" x="219" y="250.895">&#35843;&#29992;&#25903;&#20184;&#25104;&#21151;&#26041;&#27861;</text><line style="stroke:#181818;stroke-width:1.0;" x1="340" x2="382" y1="285.0938" y2="285.0938"/><line style="stroke:#181818;stroke-width:1.0;" x1="382" x2="382" y1="285.0938" y2="298.0938"/><line style="stroke:#181818;stroke-width:1.0;" x1="341" x2="382" y1="298.0938" y2="298.0938"/><polygon fill="#181818" points="351,294.0938,341,298.0938,351,302.0938,347,298.0938" style="stroke:#181818;stroke-width:1.0;"/><text fill="#000000" font-family="sans-serif" font-size="13" lengthAdjust="spacing" textLength="118" x="347" y="280.0278">&#35746;&#21333;&#29366;&#24577;&#25512;&#36827;(PAID)</text><line style="stroke:#181818;stroke-width:1.0;" x1="340" x2="382" y1="327.2266" y2="327.2266"/><line style="stroke:#181818;stroke-width:1.0;" x1="382" x2="382" y1="327.2266" y2="340.2266"/><line style="stroke:#181818;stroke-width:1.0;" x1="341" x2="382" y1="340.2266" y2="340.2266"/><polygon fill="#181818" points="351,336.2266,341,340.2266,351,344.2266,347,340.2266" style="stroke:#181818;stroke-width:1.0;"/><text fill="#000000" font-family="sans-serif" font-size="13" lengthAdjust="spacing" textLength="78" x="347" y="322.1606">&#25554;&#20837;&#35746;&#21333;&#27969;&#27700;</text><path d="M128.5,355.2266 L192.5,355.2266 L192.5,362.3594 L182.5,372.3594 L128.5,372.3594 L128.5,355.2266 " fill="#EEEEEE" style="stroke:#000000;stroke-width:1.5;"/><rect fill="none" height="280.6719" style="stroke:#000000;stroke-width:1.5;" width="487.5" x="128.5" y="355.2266"/><text fill="#000000" font-family="sans-serif" font-size="13" font-weight="bold" lengthAdjust="spacing" textLength="19" x="143.5" y="368.2935">alt</text><text fill="#000000" font-family="sans-serif" font-size="11" font-weight="bold" lengthAdjust="spacing" textLength="76" x="207.5" y="367.437">[&#25903;&#20184;&#25512;&#36827;&#25104;&#21151;]</text><polygon fill="#181818" points="223,389.4922,213,393.4922,223,397.4922,219,393.4922" style="stroke:#181818;stroke-width:1.0;"/><line style="stroke:#181818;stroke-width:1.0;" x1="217" x2="339" y1="393.4922" y2="393.4922"/><text fill="#000000" font-family="sans-serif" font-size="13" lengthAdjust="spacing" textLength="26" x="229" y="388.4263">&#25104;&#21151;</text><line style="stroke:#000000;stroke-width:1.0;stroke-dasharray:2.0,2.0;" x1="128.5" x2="616" y1="402.4922" y2="402.4922"/><text fill="#000000" font-family="sans-serif" font-size="11" font-weight="bold" lengthAdjust="spacing" textLength="43" x="133.5" y="412.7026">[&#26410;&#25104;&#21151;]</text><line style="stroke:#181818;stroke-width:1.0;" x1="340" x2="382" y1="437.4297" y2="437.4297"/><line style="stroke:#181818;stroke-width:1.0;" x1="382" x2="382" y1="437.4297" y2="450.4297"/><line style="stroke:#181818;stroke-width:1.0;" x1="341" x2="382" y1="450.4297" y2="450.4297"/><polygon fill="#181818" points="351,446.4297,341,450.4297,351,454.4297,347,450.4297" style="stroke:#181818;stroke-width:1.0;"/><text fill="#000000" font-family="sans-serif" font-size="13" lengthAdjust="spacing" textLength="130" x="347" y="432.3638">&#21028;&#26029;&#35746;&#21333;&#26159;&#21542;&#24050;&#25903;&#20184;&#36807;</text><path d="M138.5,465.4297 L202.5,465.4297 L202.5,472.5625 L192.5,482.5625 L138.5,482.5625 L138.5,465.4297 " fill="#EEEEEE" style="stroke:#000000;stroke-width:1.5;"/><rect fill="none" height="163.4688" style="stroke:#000000;stroke-width:1.5;" width="467.5" x="138.5" y="465.4297"/><text fill="#000000" font-family="sans-serif" font-size="13" font-weight="bold" lengthAdjust="spacing" textLength="19" x="153.5" y="478.4966">alt</text><text fill="#000000" font-family="sans-serif" font-size="11" font-weight="bold" lengthAdjust="spacing" textLength="54" x="217.5" y="477.6401">[&#24050;&#25903;&#20184;&#36807;]</text><line style="stroke:#181818;stroke-width:1.0;" x1="340" x2="382" y1="503.6953" y2="503.6953"/><line style="stroke:#181818;stroke-width:1.0;" x1="382" x2="382" y1="503.6953" y2="516.6953"/><line style="stroke:#181818;stroke-width:1.0;" x1="341" x2="382" y1="516.6953" y2="516.6953"/><polygon fill="#181818" points="351,512.6953,341,516.6953,351,520.6953,347,516.6953" style="stroke:#181818;stroke-width:1.0;"/><text fill="#000000" font-family="sans-serif" font-size="13" lengthAdjust="spacing" textLength="247" x="347" y="498.6294">&#21028;&#26029;&#25903;&#20184;&#28192;&#36947;&#21644;&#27969;&#27700;&#21495;&#26159;&#21542;&#21644;&#25104;&#21151;&#37027;&#31508;&#19968;&#33268;</text><path d="M148.5,531.6953 L212.5,531.6953 L212.5,538.8281 L202.5,548.8281 L148.5,548.8281 L148.5,531.6953 " fill="#EEEEEE" style="stroke:#000000;stroke-width:1.5;"/><rect fill="none" height="90.2031" style="stroke:#000000;stroke-width:1.5;" width="261.5" x="148.5" y="531.6953"/><text fill="#000000" font-family="sans-serif" font-size="13" font-weight="bold" lengthAdjust="spacing" textLength="19" x="163.5" y="544.7622">alt</text><text fill="#000000" font-family="sans-serif" font-size="11" font-weight="bold" lengthAdjust="spacing" textLength="32" x="227.5" y="543.9058">[&#19968;&#33268;]</text><polygon fill="#181818" points="223,565.9609,213,569.9609,223,573.9609,219,569.9609" style="stroke:#181818;stroke-width:1.0;"/><line style="stroke:#181818;stroke-width:1.0;" x1="217" x2="339" y1="569.9609" y2="569.9609"/><text fill="#000000" font-family="sans-serif" font-size="13" lengthAdjust="spacing" textLength="52" x="229" y="564.895">&#24130;&#31561;&#25104;&#21151;</text><line style="stroke:#000000;stroke-width:1.0;stroke-dasharray:2.0,2.0;" x1="148.5" x2="410" y1="578.9609" y2="578.9609"/><text fill="#000000" font-family="sans-serif" font-size="11" font-weight="bold" lengthAdjust="spacing" textLength="43" x="153.5" y="589.1714">[&#19981;&#19968;&#33268;]</text><polygon fill="#181818" points="223,609.8984,213,613.8984,223,617.8984,219,613.8984" style="stroke:#181818;stroke-width:1.0;"/><line style="stroke:#181818;stroke-width:1.0;" x1="217" x2="339" y1="613.8984" y2="613.8984"/><text fill="#000000" font-family="sans-serif" font-size="13" lengthAdjust="spacing" textLength="91" x="229" y="608.8325">&#37325;&#22797;&#25903;&#20184;&#65292;&#36864;&#27454;</text></g></svg>