<?xml version="1.0" encoding="us-ascii" standalone="no"?><svg xmlns="http://www.w3.org/2000/svg" xmlns:xlink="http://www.w3.org/1999/xlink" contentStyleType="text/css" height="756px" preserveAspectRatio="none" style="width:1087px;height:756px;background:#FFFFFF;" version="1.1" viewBox="0 0 1087 756" width="1087px" zoomAndPan="magnify"><defs/><g><line style="stroke:#181818;stroke-width:0.5;stroke-dasharray:5.0,5.0;" x1="22" x2="22" y1="81.2969" y2="675.5547"/><line style="stroke:#181818;stroke-width:0.5;stroke-dasharray:5.0,5.0;" x1="150" x2="150" y1="81.2969" y2="675.5547"/><line style="stroke:#181818;stroke-width:0.5;stroke-dasharray:5.0,5.0;" x1="291" x2="291" y1="81.2969" y2="675.5547"/><line style="stroke:#181818;stroke-width:0.5;stroke-dasharray:5.0,5.0;" x1="428" x2="428" y1="81.2969" y2="675.5547"/><line style="stroke:#181818;stroke-width:0.5;stroke-dasharray:5.0,5.0;" x1="649.5" x2="649.5" y1="81.2969" y2="675.5547"/><line style="stroke:#181818;stroke-width:0.5;stroke-dasharray:5.0,5.0;" x1="777.5" x2="777.5" y1="81.2969" y2="675.5547"/><line style="stroke:#181818;stroke-width:0.5;stroke-dasharray:5.0,5.0;" x1="883.5" x2="883.5" y1="81.2969" y2="675.5547"/><line style="stroke:#181818;stroke-width:0.5;stroke-dasharray:5.0,5.0;" x1="1011.5" x2="1011.5" y1="81.2969" y2="675.5547"/><text fill="#000000" font-family="sans-serif" font-size="14" lengthAdjust="spacing" textLength="28" x="5" y="77.9951">&#29992;&#25143;</text><ellipse cx="22" cy="13.5" fill="#E2E2F0" rx="8" ry="8" style="stroke:#181818;stroke-width:0.5;"/><path d="M22,21.5 L22,48.5 M9,29.5 L35,29.5 M22,48.5 L9,63.5 M22,48.5 L35,63.5 " fill="none" style="stroke:#181818;stroke-width:0.5;"/><text fill="#000000" font-family="sans-serif" font-size="14" lengthAdjust="spacing" textLength="28" x="5" y="687.5498">&#29992;&#25143;</text><ellipse cx="22" cy="699.3516" fill="#E2E2F0" rx="8" ry="8" style="stroke:#181818;stroke-width:0.5;"/><path d="M22,707.3516 L22,734.3516 M9,715.3516 L35,715.3516 M22,734.3516 L9,749.3516 M22,734.3516 L35,749.3516 " fill="none" style="stroke:#181818;stroke-width:0.5;"/><text fill="#000000" font-family="sans-serif" font-size="14" lengthAdjust="spacing" textLength="28" x="133" y="77.9951">&#24179;&#21488;</text><ellipse cx="150" cy="13.5" fill="#E2E2F0" rx="8" ry="8" style="stroke:#181818;stroke-width:0.5;"/><path d="M150,21.5 L150,48.5 M137,29.5 L163,29.5 M150,48.5 L137,63.5 M150,48.5 L163,63.5 " fill="none" style="stroke:#181818;stroke-width:0.5;"/><text fill="#000000" font-family="sans-serif" font-size="14" lengthAdjust="spacing" textLength="28" x="133" y="687.5498">&#24179;&#21488;</text><ellipse cx="150" cy="699.3516" fill="#E2E2F0" rx="8" ry="8" style="stroke:#181818;stroke-width:0.5;"/><path d="M150,707.3516 L150,734.3516 M137,715.3516 L163,715.3516 M150,734.3516 L137,749.3516 M150,734.3516 L163,749.3516 " fill="none" style="stroke:#181818;stroke-width:0.5;"/><rect fill="#E2E2F0" height="30.2969" rx="2.5" ry="2.5" style="stroke:#181818;stroke-width:0.5;" width="110" x="236" y="50"/><text fill="#000000" font-family="sans-serif" font-size="14" lengthAdjust="spacing" textLength="96" x="243" y="69.9951">nft-turbo-user</text><rect fill="#E2E2F0" height="30.2969" rx="2.5" ry="2.5" style="stroke:#181818;stroke-width:0.5;" width="110" x="236" y="674.5547"/><text fill="#000000" font-family="sans-serif" font-size="14" lengthAdjust="spacing" textLength="96" x="243" y="694.5498">nft-turbo-user</text><rect fill="#E2E2F0" height="30.2969" rx="2.5" ry="2.5" style="stroke:#181818;stroke-width:0.5;" width="145" x="356" y="50"/><text fill="#000000" font-family="sans-serif" font-size="14" lengthAdjust="spacing" textLength="131" x="363" y="69.9951">nft-turbo-collection</text><rect fill="#E2E2F0" height="30.2969" rx="2.5" ry="2.5" style="stroke:#181818;stroke-width:0.5;" width="145" x="356" y="674.5547"/><text fill="#000000" font-family="sans-serif" font-size="14" lengthAdjust="spacing" textLength="131" x="363" y="694.5498">nft-turbo-collection</text><rect fill="#E2E2F0" height="30.2969" rx="2.5" ry="2.5" style="stroke:#181818;stroke-width:0.5;" width="116" x="591.5" y="50"/><text fill="#000000" font-family="sans-serif" font-size="14" lengthAdjust="spacing" textLength="102" x="598.5" y="69.9951">nft-turbo-chain</text><rect fill="#E2E2F0" height="30.2969" rx="2.5" ry="2.5" style="stroke:#181818;stroke-width:0.5;" width="116" x="591.5" y="674.5547"/><text fill="#000000" font-family="sans-serif" font-size="14" lengthAdjust="spacing" textLength="102" x="598.5" y="694.5498">nft-turbo-chain</text><rect fill="#E2E2F0" height="30.2969" rx="2.5" ry="2.5" style="stroke:#181818;stroke-width:0.5;" width="120" x="717.5" y="50"/><text fill="#000000" font-family="sans-serif" font-size="14" lengthAdjust="spacing" textLength="106" x="724.5" y="69.9951">avata&#65288;&#25991;&#26124;&#38142;&#65289;</text><rect fill="#E2E2F0" height="30.2969" rx="2.5" ry="2.5" style="stroke:#181818;stroke-width:0.5;" width="120" x="717.5" y="674.5547"/><text fill="#000000" font-family="sans-serif" font-size="14" lengthAdjust="spacing" textLength="106" x="724.5" y="694.5498">avata&#65288;&#25991;&#26124;&#38142;&#65289;</text><rect fill="#E2E2F0" height="30.2969" rx="2.5" ry="2.5" style="stroke:#181818;stroke-width:0.5;" width="73" x="847.5" y="50"/><text fill="#000000" font-family="sans-serif" font-size="14" lengthAdjust="spacing" textLength="59" x="854.5" y="69.9951">roketMQ</text><rect fill="#E2E2F0" height="30.2969" rx="2.5" ry="2.5" style="stroke:#181818;stroke-width:0.5;" width="73" x="847.5" y="674.5547"/><text fill="#000000" font-family="sans-serif" font-size="14" lengthAdjust="spacing" textLength="59" x="854.5" y="694.5498">roketMQ</text><rect fill="#E2E2F0" height="30.2969" rx="2.5" ry="2.5" style="stroke:#181818;stroke-width:0.5;" width="127" x="948.5" y="50"/><text fill="#000000" font-family="sans-serif" font-size="14" lengthAdjust="spacing" textLength="113" x="955.5" y="69.9951">nft_turbo_goods</text><rect fill="#E2E2F0" height="30.2969" rx="2.5" ry="2.5" style="stroke:#181818;stroke-width:0.5;" width="127" x="948.5" y="674.5547"/><text fill="#000000" font-family="sans-serif" font-size="14" lengthAdjust="spacing" textLength="113" x="955.5" y="694.5498">nft_turbo_goods</text><rect fill="#EEEEEE" height="3" style="stroke:#EEEEEE;stroke-width:1.0;" width="1080.5" x="0" y="111.8633"/><line style="stroke:#000000;stroke-width:1.0;" x1="0" x2="1080.5" y1="111.8633" y2="111.8633"/><line style="stroke:#000000;stroke-width:1.0;" x1="0" x2="1080.5" y1="114.8633" y2="114.8633"/><rect fill="#EEEEEE" height="23.1328" style="stroke:#000000;stroke-width:2.0;" width="75" x="502.75" y="101.2969"/><text fill="#000000" font-family="sans-serif" font-size="13" font-weight="bold" lengthAdjust="spacing" textLength="56" x="508.75" y="117.3638">&#34255;&#21697;&#36716;&#35753;</text><polygon fill="#181818" points="138,151.5625,148,155.5625,138,159.5625,142,155.5625" style="stroke:#181818;stroke-width:1.0;"/><line style="stroke:#181818;stroke-width:1.0;" x1="22" x2="144" y1="155.5625" y2="155.5625"/><text fill="#000000" font-family="sans-serif" font-size="13" lengthAdjust="spacing" textLength="104" x="29" y="150.4966">&#36873;&#25321;&#35201;&#36716;&#35753;&#30340;&#34255;&#21697;</text><polygon fill="#181818" points="138,180.6953,148,184.6953,138,188.6953,142,184.6953" style="stroke:#181818;stroke-width:1.0;"/><line style="stroke:#181818;stroke-width:1.0;" x1="22" x2="144" y1="184.6953" y2="184.6953"/><text fill="#000000" font-family="sans-serif" font-size="13" lengthAdjust="spacing" textLength="104" x="29" y="179.6294">&#36755;&#20837;&#25509;&#25910;&#20154;&#25163;&#26426;&#21495;</text><polygon fill="#181818" points="279,209.8281,289,213.8281,279,217.8281,283,213.8281" style="stroke:#181818;stroke-width:1.0;"/><line style="stroke:#181818;stroke-width:1.0;" x1="150" x2="285" y1="213.8281" y2="213.8281"/><text fill="#000000" font-family="sans-serif" font-size="13" lengthAdjust="spacing" textLength="117" x="157" y="208.7622">&#26597;&#35810;&#25509;&#25910;&#20154;&#22522;&#26412;&#20449;&#24687;</text><polygon fill="#181818" points="138,238.9609,148,242.9609,138,246.9609,142,242.9609" style="stroke:#181818;stroke-width:1.0;"/><line style="stroke:#181818;stroke-width:1.0;" x1="22" x2="144" y1="242.9609" y2="242.9609"/><text fill="#000000" font-family="sans-serif" font-size="13" lengthAdjust="spacing" textLength="52" x="29" y="237.895">&#30830;&#35748;&#36716;&#35753;</text><polygon fill="#181818" points="416.5,268.0938,426.5,272.0938,416.5,276.0938,420.5,272.0938" style="stroke:#181818;stroke-width:1.0;"/><line style="stroke:#181818;stroke-width:1.0;" x1="150" x2="422.5" y1="272.0938" y2="272.0938"/><text fill="#000000" font-family="sans-serif" font-size="13" lengthAdjust="spacing" textLength="50" x="157" y="267.0278">transfer</text><line style="stroke:#181818;stroke-width:1.0;" x1="428.5" x2="470.5" y1="301.2266" y2="301.2266"/><line style="stroke:#181818;stroke-width:1.0;" x1="470.5" x2="470.5" y1="301.2266" y2="314.2266"/><line style="stroke:#181818;stroke-width:1.0;" x1="429.5" x2="470.5" y1="314.2266" y2="314.2266"/><polygon fill="#181818" points="439.5,310.2266,429.5,314.2266,439.5,318.2266,435.5,314.2266" style="stroke:#181818;stroke-width:1.0;"/><text fill="#000000" font-family="sans-serif" font-size="13" lengthAdjust="spacing" textLength="78" x="435.5" y="296.1606">&#36716;&#35753;&#21069;&#32622;&#26657;&#39564;</text><line style="stroke:#181818;stroke-width:1.0;" x1="428.5" x2="470.5" y1="343.3594" y2="343.3594"/><line style="stroke:#181818;stroke-width:1.0;" x1="470.5" x2="470.5" y1="343.3594" y2="356.3594"/><line style="stroke:#181818;stroke-width:1.0;" x1="429.5" x2="470.5" y1="356.3594" y2="356.3594"/><polygon fill="#181818" points="439.5,352.3594,429.5,356.3594,439.5,360.3594,435.5,356.3594" style="stroke:#181818;stroke-width:1.0;"/><text fill="#000000" font-family="sans-serif" font-size="13" lengthAdjust="spacing" textLength="207" x="435.5" y="338.2935">&#32769;&#30340;&#25345;&#26377;&#34255;&#21697;&#29366;&#24577;&#26356;&#26032;&#65288;INACIVE&#65289;</text><line style="stroke:#181818;stroke-width:1.0;" x1="428.5" x2="470.5" y1="385.4922" y2="385.4922"/><line style="stroke:#181818;stroke-width:1.0;" x1="470.5" x2="470.5" y1="385.4922" y2="398.4922"/><line style="stroke:#181818;stroke-width:1.0;" x1="429.5" x2="470.5" y1="398.4922" y2="398.4922"/><polygon fill="#181818" points="439.5,394.4922,429.5,398.4922,439.5,402.4922,435.5,398.4922" style="stroke:#181818;stroke-width:1.0;"/><text fill="#000000" font-family="sans-serif" font-size="13" lengthAdjust="spacing" textLength="130" x="435.5" y="380.4263">&#25554;&#20837;&#25345;&#26377;&#34255;&#21697;&#36716;&#20986;&#27969;&#27700;</text><line style="stroke:#181818;stroke-width:1.0;" x1="428.5" x2="470.5" y1="427.625" y2="427.625"/><line style="stroke:#181818;stroke-width:1.0;" x1="470.5" x2="470.5" y1="427.625" y2="440.625"/><line style="stroke:#181818;stroke-width:1.0;" x1="429.5" x2="470.5" y1="440.625" y2="440.625"/><polygon fill="#181818" points="439.5,436.625,429.5,440.625,439.5,444.625,435.5,440.625" style="stroke:#181818;stroke-width:1.0;"/><text fill="#000000" font-family="sans-serif" font-size="13" lengthAdjust="spacing" textLength="153" x="435.5" y="422.5591">&#21019;&#24314;&#26032;&#30340;&#25345;&#26377;&#34255;&#21697;&#65288;INIT&#65289;</text><line style="stroke:#181818;stroke-width:1.0;" x1="428.5" x2="470.5" y1="469.7578" y2="469.7578"/><line style="stroke:#181818;stroke-width:1.0;" x1="470.5" x2="470.5" y1="469.7578" y2="482.7578"/><line style="stroke:#181818;stroke-width:1.0;" x1="429.5" x2="470.5" y1="482.7578" y2="482.7578"/><polygon fill="#181818" points="439.5,478.7578,429.5,482.7578,439.5,486.7578,435.5,482.7578" style="stroke:#181818;stroke-width:1.0;"/><text fill="#000000" font-family="sans-serif" font-size="13" lengthAdjust="spacing" textLength="130" x="435.5" y="464.6919">&#25554;&#20837;&#25345;&#26377;&#34255;&#21697;&#36716;&#20837;&#27969;&#27700;</text><polygon fill="#181818" points="637.5,507.8906,647.5,511.8906,637.5,515.8906,641.5,511.8906" style="stroke:#181818;stroke-width:1.0;"/><line style="stroke:#181818;stroke-width:1.0;" x1="428.5" x2="643.5" y1="511.8906" y2="511.8906"/><text fill="#000000" font-family="sans-serif" font-size="13" lengthAdjust="spacing" textLength="26" x="435.5" y="506.8247">&#36716;&#35753;</text><polygon fill="#181818" points="765.5,537.0234,775.5,541.0234,765.5,545.0234,769.5,541.0234" style="stroke:#181818;stroke-width:1.0;"/><line style="stroke:#181818;stroke-width:1.0;" x1="649.5" x2="771.5" y1="541.0234" y2="541.0234"/><text fill="#000000" font-family="sans-serif" font-size="13" lengthAdjust="spacing" textLength="26" x="656.5" y="535.9575">&#36716;&#35753;</text><polygon fill="#181818" points="765.5,566.1563,775.5,570.1563,765.5,574.1563,769.5,570.1563" style="stroke:#181818;stroke-width:1.0;"/><line style="stroke:#181818;stroke-width:1.0;" x1="649.5" x2="771.5" y1="570.1563" y2="570.1563"/><text fill="#000000" font-family="sans-serif" font-size="13" lengthAdjust="spacing" textLength="78" x="656.5" y="565.0903">&#26597;&#35810;&#36716;&#35753;&#32467;&#26524;</text><polygon fill="#181818" points="872,595.2891,882,599.2891,872,603.2891,876,599.2891" style="stroke:#181818;stroke-width:1.0;"/><line style="stroke:#181818;stroke-width:1.0;stroke-dasharray:2.0,2.0;" x1="649.5" x2="878" y1="599.2891" y2="599.2891"/><text fill="#000000" font-family="sans-serif" font-size="13" lengthAdjust="spacing" textLength="104" x="656.5" y="594.2231">&#21457;&#36865;&#19978;&#38142;&#32467;&#26524;&#28040;&#24687;</text><polygon fill="#181818" points="1000,624.4219,1010,628.4219,1000,632.4219,1004,628.4219" style="stroke:#181818;stroke-width:1.0;"/><line style="stroke:#181818;stroke-width:1.0;stroke-dasharray:2.0,2.0;" x1="884" x2="1006" y1="628.4219" y2="628.4219"/><text fill="#000000" font-family="sans-serif" font-size="13" lengthAdjust="spacing" textLength="104" x="891" y="623.356">&#25509;&#25910;&#19978;&#38142;&#32467;&#26524;&#28040;&#24687;</text><polygon fill="#181818" points="439.5,653.5547,429.5,657.5547,439.5,661.5547,435.5,657.5547" style="stroke:#181818;stroke-width:1.0;"/><line style="stroke:#181818;stroke-width:1.0;" x1="433.5" x2="1011" y1="657.5547" y2="657.5547"/><text fill="#000000" font-family="sans-serif" font-size="13" lengthAdjust="spacing" textLength="149" x="445.5" y="652.4888">&#26356;&#26032;&#34255;&#21697;&#29366;&#24577;&#65288;ACTIVE&#65289;</text></g></svg>