<?xml version="1.0" encoding="us-ascii" standalone="no"?><svg xmlns="http://www.w3.org/2000/svg" xmlns:xlink="http://www.w3.org/1999/xlink" contentStyleType="text/css" height="563px" preserveAspectRatio="none" style="width:671px;height:563px;background:#FFFFFF;" version="1.1" viewBox="0 0 671 563" width="671px" zoomAndPan="magnify"><defs/><g><rect fill="none" height="236.5391" style="stroke:#000000;stroke-width:1.5;" width="563.5" x="91" y="228.8281"/><rect fill="none" height="90.2031" style="stroke:#000000;stroke-width:1.5;" width="275" x="369.5" y="324.2266"/><line style="stroke:#181818;stroke-width:0.5;stroke-dasharray:5.0,5.0;" x1="22" x2="22" y1="81.2969" y2="482.3672"/><line style="stroke:#181818;stroke-width:0.5;stroke-dasharray:5.0,5.0;" x1="70" x2="70" y1="81.2969" y2="482.3672"/><line style="stroke:#181818;stroke-width:0.5;stroke-dasharray:5.0,5.0;" x1="160" x2="160" y1="81.2969" y2="482.3672"/><line style="stroke:#181818;stroke-width:0.5;stroke-dasharray:5.0,5.0;" x1="290" x2="290" y1="81.2969" y2="482.3672"/><line style="stroke:#181818;stroke-width:0.5;stroke-dasharray:5.0,5.0;" x1="418.5" x2="418.5" y1="81.2969" y2="482.3672"/><line style="stroke:#181818;stroke-width:0.5;stroke-dasharray:5.0,5.0;" x1="559.5" x2="559.5" y1="81.2969" y2="482.3672"/><text fill="#000000" font-family="sans-serif" font-size="14" lengthAdjust="spacing" textLength="28" x="5" y="77.9951">&#29992;&#25143;</text><ellipse cx="22" cy="13.5" fill="#E2E2F0" rx="8" ry="8" style="stroke:#181818;stroke-width:0.5;"/><path d="M22,21.5 L22,48.5 M9,29.5 L35,29.5 M22,48.5 L9,63.5 M22,48.5 L35,63.5 " fill="none" style="stroke:#181818;stroke-width:0.5;"/><text fill="#000000" font-family="sans-serif" font-size="14" lengthAdjust="spacing" textLength="28" x="5" y="494.3623">&#29992;&#25143;</text><ellipse cx="22" cy="506.1641" fill="#E2E2F0" rx="8" ry="8" style="stroke:#181818;stroke-width:0.5;"/><path d="M22,514.1641 L22,541.1641 M9,522.1641 L35,522.1641 M22,541.1641 L9,556.1641 M22,541.1641 L35,556.1641 " fill="none" style="stroke:#181818;stroke-width:0.5;"/><rect fill="#E2E2F0" height="30.2969" rx="2.5" ry="2.5" style="stroke:#181818;stroke-width:0.5;" width="42" x="49" y="50"/><text fill="#000000" font-family="sans-serif" font-size="14" lengthAdjust="spacing" textLength="28" x="56" y="69.9951">&#29992;&#25143;</text><rect fill="#E2E2F0" height="30.2969" rx="2.5" ry="2.5" style="stroke:#181818;stroke-width:0.5;" width="42" x="49" y="481.3672"/><text fill="#000000" font-family="sans-serif" font-size="14" lengthAdjust="spacing" textLength="28" x="56" y="501.3623">&#29992;&#25143;</text><rect fill="#E2E2F0" height="30.2969" rx="2.5" ry="2.5" style="stroke:#181818;stroke-width:0.5;" width="119" x="101" y="50"/><text fill="#000000" font-family="sans-serif" font-size="14" lengthAdjust="spacing" textLength="105" x="108" y="69.9951">nft_turbo_trade</text><rect fill="#E2E2F0" height="30.2969" rx="2.5" ry="2.5" style="stroke:#181818;stroke-width:0.5;" width="119" x="101" y="481.3672"/><text fill="#000000" font-family="sans-serif" font-size="14" lengthAdjust="spacing" textLength="105" x="108" y="501.3623">nft_turbo_trade</text><rect fill="#E2E2F0" height="30.2969" rx="2.5" ry="2.5" style="stroke:#181818;stroke-width:0.5;" width="120" x="230" y="50"/><text fill="#000000" font-family="sans-serif" font-size="14" lengthAdjust="spacing" textLength="106" x="237" y="69.9951">nft_turbo_order</text><rect fill="#E2E2F0" height="30.2969" rx="2.5" ry="2.5" style="stroke:#181818;stroke-width:0.5;" width="120" x="230" y="481.3672"/><text fill="#000000" font-family="sans-serif" font-size="14" lengthAdjust="spacing" textLength="106" x="237" y="501.3623">nft_turbo_order</text><rect fill="#E2E2F0" height="30.2969" rx="2.5" ry="2.5" style="stroke:#181818;stroke-width:0.5;" width="79" x="379.5" y="50"/><text fill="#000000" font-family="sans-serif" font-size="14" lengthAdjust="spacing" textLength="65" x="386.5" y="69.9951">rocketMq</text><rect fill="#E2E2F0" height="30.2969" rx="2.5" ry="2.5" style="stroke:#181818;stroke-width:0.5;" width="79" x="379.5" y="481.3672"/><text fill="#000000" font-family="sans-serif" font-size="14" lengthAdjust="spacing" textLength="65" x="386.5" y="501.3623">rocketMq</text><rect fill="#E2E2F0" height="30.2969" rx="2.5" ry="2.5" style="stroke:#181818;stroke-width:0.5;" width="149" x="485.5" y="50"/><text fill="#000000" font-family="sans-serif" font-size="14" lengthAdjust="spacing" textLength="135" x="492.5" y="69.9951">nft_turbo_collection</text><rect fill="#E2E2F0" height="30.2969" rx="2.5" ry="2.5" style="stroke:#181818;stroke-width:0.5;" width="149" x="485.5" y="481.3672"/><text fill="#000000" font-family="sans-serif" font-size="14" lengthAdjust="spacing" textLength="135" x="492.5" y="501.3623">nft_turbo_collection</text><rect fill="#EEEEEE" height="3" style="stroke:#EEEEEE;stroke-width:1.0;" width="664.5" x="0" y="111.8633"/><line style="stroke:#000000;stroke-width:1.0;" x1="0" x2="664.5" y1="111.8633" y2="111.8633"/><line style="stroke:#000000;stroke-width:1.0;" x1="0" x2="664.5" y1="114.8633" y2="114.8633"/><rect fill="#EEEEEE" height="23.1328" style="stroke:#000000;stroke-width:2.0;" width="75" x="294.75" y="101.2969"/><text fill="#000000" font-family="sans-serif" font-size="13" font-weight="bold" lengthAdjust="spacing" textLength="56" x="300.75" y="117.3638">&#21462;&#28040;&#35746;&#21333;</text><polygon fill="#181818" points="148.5,151.5625,158.5,155.5625,148.5,159.5625,152.5,155.5625" style="stroke:#181818;stroke-width:1.0;"/><line style="stroke:#181818;stroke-width:1.0;stroke-dasharray:2.0,2.0;" x1="70" x2="154.5" y1="155.5625" y2="155.5625"/><text fill="#000000" font-family="sans-serif" font-size="13" lengthAdjust="spacing" textLength="52" x="77" y="150.4966">&#21462;&#28040;&#35746;&#21333;</text><polygon fill="#181818" points="278,180.6953,288,184.6953,278,188.6953,282,184.6953" style="stroke:#181818;stroke-width:1.0;"/><line style="stroke:#181818;stroke-width:1.0;" x1="160.5" x2="284" y1="184.6953" y2="184.6953"/><text fill="#000000" font-family="sans-serif" font-size="13" lengthAdjust="spacing" textLength="52" x="167.5" y="179.6294">&#21462;&#28040;&#35746;&#21333;</text><polygon fill="#181818" points="407,209.8281,417,213.8281,407,217.8281,411,213.8281" style="stroke:#181818;stroke-width:1.0;"/><line style="stroke:#181818;stroke-width:1.0;" x1="290" x2="413" y1="213.8281" y2="213.8281"/><text fill="#000000" font-family="sans-serif" font-size="13" lengthAdjust="spacing" textLength="91" x="297" y="208.7622">&#35746;&#21333;&#21462;&#28040;&#21322;&#28040;&#24687;</text><path d="M91,228.8281 L155,228.8281 L155,235.9609 L145,245.9609 L91,245.9609 L91,228.8281 " fill="#EEEEEE" style="stroke:#000000;stroke-width:1.5;"/><rect fill="none" height="236.5391" style="stroke:#000000;stroke-width:1.5;" width="563.5" x="91" y="228.8281"/><text fill="#000000" font-family="sans-serif" font-size="13" font-weight="bold" lengthAdjust="spacing" textLength="19" x="106" y="241.895">alt</text><text fill="#000000" font-family="sans-serif" font-size="11" font-weight="bold" lengthAdjust="spacing" textLength="76" x="170" y="241.0386">[&#21322;&#28040;&#24687;&#21457;&#25104;&#21151;]</text><line style="stroke:#181818;stroke-width:1.0;" x1="290" x2="332" y1="267.0938" y2="267.0938"/><line style="stroke:#181818;stroke-width:1.0;" x1="332" x2="332" y1="267.0938" y2="280.0938"/><line style="stroke:#181818;stroke-width:1.0;" x1="291" x2="332" y1="280.0938" y2="280.0938"/><polygon fill="#181818" points="301,276.0938,291,280.0938,301,284.0938,297,280.0938" style="stroke:#181818;stroke-width:1.0;"/><text fill="#000000" font-family="sans-serif" font-size="13" lengthAdjust="spacing" textLength="115" x="297" y="262.0278">&#35746;&#21333;&#20851;&#38381;(CLOSED)</text><polygon fill="#181818" points="301,305.2266,291,309.2266,301,313.2266,297,309.2266" style="stroke:#181818;stroke-width:1.0;"/><line style="stroke:#181818;stroke-width:1.0;" x1="295" x2="418" y1="309.2266" y2="309.2266"/><text fill="#000000" font-family="sans-serif" font-size="13" lengthAdjust="spacing" textLength="104" x="307" y="304.1606">&#35746;&#21333;&#20851;&#38381;&#25104;&#21151;&#26816;&#26597;</text><path d="M369.5,324.2266 L433.5,324.2266 L433.5,331.3594 L423.5,341.3594 L369.5,341.3594 L369.5,324.2266 " fill="#EEEEEE" style="stroke:#000000;stroke-width:1.5;"/><rect fill="none" height="90.2031" style="stroke:#000000;stroke-width:1.5;" width="275" x="369.5" y="324.2266"/><text fill="#000000" font-family="sans-serif" font-size="13" font-weight="bold" lengthAdjust="spacing" textLength="19" x="384.5" y="337.2935">alt</text><text fill="#000000" font-family="sans-serif" font-size="11" font-weight="bold" lengthAdjust="spacing" textLength="54" x="448.5" y="336.437">[&#20851;&#38381;&#25104;&#21151;]</text><polygon fill="#181818" points="548,358.4922,558,362.4922,548,366.4922,552,362.4922" style="stroke:#181818;stroke-width:1.0;"/><line style="stroke:#181818;stroke-width:1.0;" x1="419" x2="554" y1="362.4922" y2="362.4922"/><text fill="#000000" font-family="sans-serif" font-size="13" lengthAdjust="spacing" textLength="52" x="426" y="357.4263">&#24211;&#23384;&#22238;&#36864;</text><line style="stroke:#000000;stroke-width:1.0;stroke-dasharray:2.0,2.0;" x1="369.5" x2="644.5" y1="371.4922" y2="371.4922"/><text fill="#000000" font-family="sans-serif" font-size="11" font-weight="bold" lengthAdjust="spacing" textLength="54" x="374.5" y="381.7026">[&#20851;&#38381;&#22833;&#36133;]</text><polygon fill="#181818" points="548,402.4297,558,406.4297,548,410.4297,552,406.4297" style="stroke:#181818;stroke-width:1.0;"/><line style="stroke:#181818;stroke-width:1.0;" x1="419" x2="554" y1="406.4297" y2="406.4297"/><text fill="#000000" font-family="sans-serif" font-size="13" lengthAdjust="spacing" textLength="117" x="426" y="401.3638">&#37325;&#26032;&#26597;&#35810;&#25110;&#21024;&#38500;&#28040;&#24687;</text><line style="stroke:#000000;stroke-width:1.0;stroke-dasharray:2.0,2.0;" x1="91" x2="654.5" y1="422.4297" y2="422.4297"/><text fill="#000000" font-family="sans-serif" font-size="11" font-weight="bold" lengthAdjust="spacing" textLength="76" x="96" y="432.6401">[&#21322;&#28040;&#24687;&#21457;&#22833;&#36133;]</text><polygon fill="#181818" points="171.5,453.3672,161.5,457.3672,171.5,461.3672,167.5,457.3672" style="stroke:#181818;stroke-width:1.0;"/><line style="stroke:#181818;stroke-width:1.0;" x1="165.5" x2="289" y1="457.3672" y2="457.3672"/><text fill="#000000" font-family="sans-serif" font-size="13" lengthAdjust="spacing" textLength="78" x="177.5" y="452.3013">&#21462;&#28040;&#35746;&#21333;&#22833;&#36133;</text></g></svg>