<?xml version="1.0" encoding="us-ascii" standalone="no"?><svg xmlns="http://www.w3.org/2000/svg" xmlns:xlink="http://www.w3.org/1999/xlink" contentStyleType="text/css" height="221px" preserveAspectRatio="none" style="width:263px;height:221px;background:#FFFFFF;" version="1.1" viewBox="0 0 263 221" width="263px" zoomAndPan="magnify"><defs/><g><line style="stroke:#181818;stroke-width:0.5;stroke-dasharray:5.0,5.0;" x1="40" x2="40" y1="36.2969" y2="185.8281"/><line style="stroke:#181818;stroke-width:0.5;stroke-dasharray:5.0,5.0;" x1="142" x2="142" y1="36.2969" y2="185.8281"/><line style="stroke:#181818;stroke-width:0.5;stroke-dasharray:5.0,5.0;" x1="222" x2="222" y1="36.2969" y2="185.8281"/><rect fill="#E2E2F0" height="30.2969" rx="2.5" ry="2.5" style="stroke:#181818;stroke-width:0.5;" width="70" x="5" y="5"/><text fill="#000000" font-family="sans-serif" font-size="14" lengthAdjust="spacing" textLength="56" x="12" y="24.9951">&#35746;&#21333;&#31995;&#32479;</text><rect fill="#E2E2F0" height="30.2969" rx="2.5" ry="2.5" style="stroke:#181818;stroke-width:0.5;" width="70" x="5" y="184.8281"/><text fill="#000000" font-family="sans-serif" font-size="14" lengthAdjust="spacing" textLength="56" x="12" y="204.8232">&#35746;&#21333;&#31995;&#32479;</text><rect fill="#E2E2F0" height="30.2969" rx="2.5" ry="2.5" style="stroke:#181818;stroke-width:0.5;" width="70" x="107" y="5"/><text fill="#000000" font-family="sans-serif" font-size="14" lengthAdjust="spacing" textLength="56" x="114" y="24.9951">&#24211;&#23384;&#31995;&#32479;</text><rect fill="#E2E2F0" height="30.2969" rx="2.5" ry="2.5" style="stroke:#181818;stroke-width:0.5;" width="70" x="107" y="184.8281"/><text fill="#000000" font-family="sans-serif" font-size="14" lengthAdjust="spacing" textLength="56" x="114" y="204.8232">&#24211;&#23384;&#31995;&#32479;</text><rect fill="#E2E2F0" height="30.2969" rx="2.5" ry="2.5" style="stroke:#181818;stroke-width:0.5;" width="70" x="187" y="5"/><text fill="#000000" font-family="sans-serif" font-size="14" lengthAdjust="spacing" textLength="56" x="194" y="24.9951">&#25903;&#20184;&#31995;&#32479;</text><rect fill="#E2E2F0" height="30.2969" rx="2.5" ry="2.5" style="stroke:#181818;stroke-width:0.5;" width="70" x="187" y="184.8281"/><text fill="#000000" font-family="sans-serif" font-size="14" lengthAdjust="spacing" textLength="56" x="194" y="204.8232">&#25903;&#20184;&#31995;&#32479;</text><polygon fill="#181818" points="130,63.4297,140,67.4297,130,71.4297,134,67.4297" style="stroke:#181818;stroke-width:1.0;"/><line style="stroke:#181818;stroke-width:1.0;" x1="40" x2="136" y1="67.4297" y2="67.4297"/><text fill="#000000" font-family="sans-serif" font-size="13" font-weight="bold" lengthAdjust="spacing" textLength="9" x="47" y="62.3638">1</text><text fill="#000000" font-family="sans-serif" font-size="13" lengthAdjust="spacing" textLength="65" x="60" y="62.3638">&#39044;&#25187;&#20943;&#24211;&#23384;</text><line style="stroke:#181818;stroke-width:1.0;" x1="40" x2="82" y1="96.5625" y2="96.5625"/><line style="stroke:#181818;stroke-width:1.0;" x1="82" x2="82" y1="96.5625" y2="109.5625"/><line style="stroke:#181818;stroke-width:1.0;" x1="41" x2="82" y1="109.5625" y2="109.5625"/><polygon fill="#181818" points="51,105.5625,41,109.5625,51,113.5625,47,109.5625" style="stroke:#181818;stroke-width:1.0;"/><text fill="#000000" font-family="sans-serif" font-size="13" font-weight="bold" lengthAdjust="spacing" textLength="9" x="47" y="91.4966">2</text><text fill="#000000" font-family="sans-serif" font-size="13" lengthAdjust="spacing" textLength="52" x="60" y="91.4966">&#21019;&#24314;&#35746;&#21333;</text><polygon fill="#181818" points="210,134.6953,220,138.6953,210,142.6953,214,138.6953" style="stroke:#181818;stroke-width:1.0;"/><line style="stroke:#181818;stroke-width:1.0;" x1="40" x2="216" y1="138.6953" y2="138.6953"/><text fill="#000000" font-family="sans-serif" font-size="13" font-weight="bold" lengthAdjust="spacing" textLength="9" x="47" y="133.6294">3</text><text fill="#000000" font-family="sans-serif" font-size="13" lengthAdjust="spacing" textLength="26" x="60" y="133.6294">&#20184;&#27454;</text><polygon fill="#181818" points="130,163.8281,140,167.8281,130,171.8281,134,167.8281" style="stroke:#181818;stroke-width:1.0;"/><line style="stroke:#181818;stroke-width:1.0;" x1="40" x2="136" y1="167.8281" y2="167.8281"/><text fill="#000000" font-family="sans-serif" font-size="13" font-weight="bold" lengthAdjust="spacing" textLength="9" x="47" y="162.7622">4</text><text fill="#000000" font-family="sans-serif" font-size="13" lengthAdjust="spacing" textLength="52" x="60" y="162.7622">&#25187;&#20943;&#24211;&#23384;</text></g></svg>