<?xml version="1.0" encoding="us-ascii" standalone="no"?><svg xmlns="http://www.w3.org/2000/svg" xmlns:xlink="http://www.w3.org/1999/xlink" contentStyleType="text/css" height="689px" preserveAspectRatio="none" style="width:867px;height:689px;background:#FFFFFF;" version="1.1" viewBox="0 0 867 689" width="867px" zoomAndPan="magnify"><defs/><g><line style="stroke:#181818;stroke-width:0.5;stroke-dasharray:5.0,5.0;" x1="30" x2="30" y1="36.2969" y2="654.4219"/><line style="stroke:#181818;stroke-width:0.5;stroke-dasharray:5.0,5.0;" x1="228" x2="228" y1="36.2969" y2="654.4219"/><line style="stroke:#181818;stroke-width:0.5;stroke-dasharray:5.0,5.0;" x1="519.5" x2="519.5" y1="36.2969" y2="654.4219"/><line style="stroke:#181818;stroke-width:0.5;stroke-dasharray:5.0,5.0;" x1="812" x2="812" y1="36.2969" y2="654.4219"/><rect fill="#E2E2F0" height="30.2969" rx="2.5" ry="2.5" style="stroke:#181818;stroke-width:0.5;" width="50" x="5" y="5"/><text fill="#000000" font-family="sans-serif" font-size="14" lengthAdjust="spacing" textLength="36" x="12" y="24.9951">trade</text><rect fill="#E2E2F0" height="30.2969" rx="2.5" ry="2.5" style="stroke:#181818;stroke-width:0.5;" width="50" x="5" y="653.4219"/><text fill="#000000" font-family="sans-serif" font-size="14" lengthAdjust="spacing" textLength="36" x="12" y="673.417">trade</text><rect fill="#E2E2F0" height="30.2969" rx="2.5" ry="2.5" style="stroke:#181818;stroke-width:0.5;" width="58" x="199" y="5"/><text fill="#000000" font-family="sans-serif" font-size="14" lengthAdjust="spacing" textLength="44" x="206" y="24.9951">goods</text><rect fill="#E2E2F0" height="30.2969" rx="2.5" ry="2.5" style="stroke:#181818;stroke-width:0.5;" width="58" x="199" y="653.4219"/><text fill="#000000" font-family="sans-serif" font-size="14" lengthAdjust="spacing" textLength="44" x="206" y="673.417">goods</text><rect fill="#E2E2F0" height="30.2969" rx="2.5" ry="2.5" style="stroke:#181818;stroke-width:0.5;" width="51" x="494.5" y="5"/><text fill="#000000" font-family="sans-serif" font-size="14" lengthAdjust="spacing" textLength="37" x="501.5" y="24.9951">order</text><rect fill="#E2E2F0" height="30.2969" rx="2.5" ry="2.5" style="stroke:#181818;stroke-width:0.5;" width="51" x="494.5" y="653.4219"/><text fill="#000000" font-family="sans-serif" font-size="14" lengthAdjust="spacing" textLength="37" x="501.5" y="673.417">order</text><rect fill="#E2E2F0" height="30.2969" rx="2.5" ry="2.5" style="stroke:#181818;stroke-width:0.5;" width="86" x="769" y="5"/><text fill="#000000" font-family="sans-serif" font-size="14" lengthAdjust="spacing" textLength="72" x="776" y="24.9951">RocketMQ</text><rect fill="#E2E2F0" height="30.2969" rx="2.5" ry="2.5" style="stroke:#181818;stroke-width:0.5;" width="86" x="769" y="653.4219"/><text fill="#000000" font-family="sans-serif" font-size="14" lengthAdjust="spacing" textLength="72" x="776" y="673.417">RocketMQ</text><rect fill="#EEEEEE" height="3" style="stroke:#EEEEEE;stroke-width:1.0;" width="860" x="0" y="66.8633"/><line style="stroke:#000000;stroke-width:1.0;" x1="0" x2="860" y1="66.8633" y2="66.8633"/><line style="stroke:#000000;stroke-width:1.0;" x1="0" x2="860" y1="69.8633" y2="69.8633"/><rect fill="#EEEEEE" height="23.1328" style="stroke:#000000;stroke-width:2.0;" width="42" x="409" y="56.2969"/><text fill="#000000" font-family="sans-serif" font-size="13" font-weight="bold" lengthAdjust="spacing" textLength="28" x="415" y="72.3638">TRY</text><polygon fill="#181818" points="216,106.5625,226,110.5625,216,114.5625,220,110.5625" style="stroke:#181818;stroke-width:1.0;"/><line style="stroke:#181818;stroke-width:1.0;" x1="30" x2="222" y1="110.5625" y2="110.5625"/><text fill="#000000" font-family="sans-serif" font-size="13" font-weight="bold" lengthAdjust="spacing" textLength="9" x="37" y="105.4966">1</text><text fill="#000000" font-family="sans-serif" font-size="13" lengthAdjust="spacing" textLength="137" x="50" y="105.4966">tryDecreaseInventory</text><line style="stroke:#181818;stroke-width:1.0;" x1="228" x2="270" y1="139.6953" y2="139.6953"/><line style="stroke:#181818;stroke-width:1.0;" x1="270" x2="270" y1="139.6953" y2="152.6953"/><line style="stroke:#181818;stroke-width:1.0;" x1="229" x2="270" y1="152.6953" y2="152.6953"/><polygon fill="#181818" points="239,148.6953,229,152.6953,239,156.6953,235,152.6953" style="stroke:#181818;stroke-width:1.0;"/><text fill="#000000" font-family="sans-serif" font-size="13" font-weight="bold" lengthAdjust="spacing" textLength="9" x="235" y="134.6294">2</text><text fill="#000000" font-family="sans-serif" font-size="13" lengthAdjust="spacing" textLength="52" x="248" y="134.6294">&#20923;&#32467;&#24211;&#23384;</text><line style="stroke:#181818;stroke-width:1.0;" x1="228" x2="270" y1="181.8281" y2="181.8281"/><line style="stroke:#181818;stroke-width:1.0;" x1="270" x2="270" y1="181.8281" y2="194.8281"/><line style="stroke:#181818;stroke-width:1.0;" x1="229" x2="270" y1="194.8281" y2="194.8281"/><polygon fill="#181818" points="239,190.8281,229,194.8281,239,198.8281,235,194.8281" style="stroke:#181818;stroke-width:1.0;"/><text fill="#000000" font-family="sans-serif" font-size="13" font-weight="bold" lengthAdjust="spacing" textLength="9" x="235" y="176.7622">3</text><text fill="#000000" font-family="sans-serif" font-size="13" lengthAdjust="spacing" textLength="118" x="248" y="176.7622">&#35760;&#24405;&#20107;&#21153;&#26085;&#24535;&#65288;TRY)</text><polygon fill="#181818" points="508,219.9609,518,223.9609,508,227.9609,512,223.9609" style="stroke:#181818;stroke-width:1.0;"/><line style="stroke:#181818;stroke-width:1.0;" x1="30" x2="514" y1="223.9609" y2="223.9609"/><text fill="#000000" font-family="sans-serif" font-size="13" font-weight="bold" lengthAdjust="spacing" textLength="9" x="37" y="218.895">4</text><text fill="#000000" font-family="sans-serif" font-size="13" lengthAdjust="spacing" textLength="53" x="50" y="218.895">tryOrder</text><line style="stroke:#181818;stroke-width:1.0;" x1="520" x2="562" y1="253.0938" y2="253.0938"/><line style="stroke:#181818;stroke-width:1.0;" x1="562" x2="562" y1="253.0938" y2="266.0938"/><line style="stroke:#181818;stroke-width:1.0;" x1="521" x2="562" y1="266.0938" y2="266.0938"/><polygon fill="#181818" points="531,262.0938,521,266.0938,531,270.0938,527,266.0938" style="stroke:#181818;stroke-width:1.0;"/><text fill="#000000" font-family="sans-serif" font-size="13" font-weight="bold" lengthAdjust="spacing" textLength="9" x="527" y="248.0278">5</text><text fill="#000000" font-family="sans-serif" font-size="13" lengthAdjust="spacing" textLength="119" x="540" y="248.0278">&#21019;&#24314;&#35746;&#21333;&#65288;CREATE)</text><line style="stroke:#181818;stroke-width:1.0;" x1="520" x2="562" y1="295.2266" y2="295.2266"/><line style="stroke:#181818;stroke-width:1.0;" x1="562" x2="562" y1="295.2266" y2="308.2266"/><line style="stroke:#181818;stroke-width:1.0;" x1="521" x2="562" y1="308.2266" y2="308.2266"/><polygon fill="#181818" points="531,304.2266,521,308.2266,531,312.2266,527,308.2266" style="stroke:#181818;stroke-width:1.0;"/><text fill="#000000" font-family="sans-serif" font-size="13" font-weight="bold" lengthAdjust="spacing" textLength="9" x="527" y="290.1606">6</text><text fill="#000000" font-family="sans-serif" font-size="13" lengthAdjust="spacing" textLength="118" x="540" y="290.1606">&#35760;&#24405;&#20107;&#21153;&#26085;&#24535;&#65288;TRY)</text><polygon fill="#181818" points="800,333.3594,810,337.3594,800,341.3594,804,337.3594" style="stroke:#181818;stroke-width:1.0;"/><line style="stroke:#181818;stroke-width:1.0;" x1="30" x2="806" y1="337.3594" y2="337.3594"/><text fill="#000000" font-family="sans-serif" font-size="13" font-weight="bold" lengthAdjust="spacing" textLength="9" x="37" y="332.2935">7</text><text fill="#000000" font-family="sans-serif" font-size="13" lengthAdjust="spacing" textLength="187" x="50" y="332.2935">&#21457;&#24223;&#21333;&#28040;&#24687;(normalBuyCancel)</text><rect fill="#EEEEEE" height="3" style="stroke:#EEEEEE;stroke-width:1.0;" width="860" x="0" y="365.9258"/><line style="stroke:#000000;stroke-width:1.0;" x1="0" x2="860" y1="365.9258" y2="365.9258"/><line style="stroke:#000000;stroke-width:1.0;" x1="0" x2="860" y1="368.9258" y2="368.9258"/><rect fill="#EEEEEE" height="23.1328" style="stroke:#000000;stroke-width:2.0;" width="72" x="394" y="355.3594"/><text fill="#000000" font-family="sans-serif" font-size="13" font-weight="bold" lengthAdjust="spacing" textLength="58" x="400" y="371.4263">CANCEL</text><polygon fill="#181818" points="41,405.625,31,409.625,41,413.625,37,409.625" style="stroke:#181818;stroke-width:1.0;"/><line style="stroke:#181818;stroke-width:1.0;stroke-dasharray:2.0,2.0;" x1="35" x2="811" y1="409.625" y2="409.625"/><text fill="#000000" font-family="sans-serif" font-size="13" font-weight="bold" lengthAdjust="spacing" textLength="9" x="47" y="404.5591">8</text><text fill="#000000" font-family="sans-serif" font-size="13" lengthAdjust="spacing" textLength="174" x="60" y="404.5591">&#24223;&#21333;&#28040;&#24687;(normalBuyCancel)</text><polygon fill="#181818" points="216,434.7578,226,438.7578,216,442.7578,220,438.7578" style="stroke:#181818;stroke-width:1.0;"/><line style="stroke:#181818;stroke-width:1.0;" x1="30" x2="222" y1="438.7578" y2="438.7578"/><text fill="#000000" font-family="sans-serif" font-size="13" font-weight="bold" lengthAdjust="spacing" textLength="9" x="37" y="433.6919">9</text><text fill="#000000" font-family="sans-serif" font-size="13" lengthAdjust="spacing" textLength="161" x="50" y="433.6919">cancelDecreaseInventory</text><line style="stroke:#181818;stroke-width:1.0;" x1="228" x2="270" y1="467.8906" y2="467.8906"/><line style="stroke:#181818;stroke-width:1.0;" x1="270" x2="270" y1="467.8906" y2="480.8906"/><line style="stroke:#181818;stroke-width:1.0;" x1="229" x2="270" y1="480.8906" y2="480.8906"/><polygon fill="#181818" points="239,476.8906,229,480.8906,239,484.8906,235,480.8906" style="stroke:#181818;stroke-width:1.0;"/><text fill="#000000" font-family="sans-serif" font-size="13" font-weight="bold" lengthAdjust="spacing" textLength="18" x="235" y="462.8247">10</text><text fill="#000000" font-family="sans-serif" font-size="13" lengthAdjust="spacing" textLength="52" x="257" y="462.8247">&#35299;&#20923;&#24211;&#23384;</text><line style="stroke:#181818;stroke-width:1.0;" x1="228" x2="270" y1="510.0234" y2="510.0234"/><line style="stroke:#181818;stroke-width:1.0;" x1="270" x2="270" y1="510.0234" y2="523.0234"/><line style="stroke:#181818;stroke-width:1.0;" x1="229" x2="270" y1="523.0234" y2="523.0234"/><polygon fill="#181818" points="239,519.0234,229,523.0234,239,527.0234,235,523.0234" style="stroke:#181818;stroke-width:1.0;"/><text fill="#000000" font-family="sans-serif" font-size="13" font-weight="bold" lengthAdjust="spacing" textLength="18" x="235" y="504.9575">11</text><text fill="#000000" font-family="sans-serif" font-size="13" lengthAdjust="spacing" textLength="256" x="257" y="504.9575">&#26356;&#26032;&#20107;&#21153;&#26085;&#24535;&#29366;&#24577;/&#21019;&#24314;&#20107;&#21153;&#26085;&#24535;&#65288;CANCEL)</text><polygon fill="#181818" points="508,548.1563,518,552.1563,508,556.1563,512,552.1563" style="stroke:#181818;stroke-width:1.0;"/><line style="stroke:#181818;stroke-width:1.0;" x1="30" x2="514" y1="552.1563" y2="552.1563"/><text fill="#000000" font-family="sans-serif" font-size="13" font-weight="bold" lengthAdjust="spacing" textLength="18" x="37" y="547.0903">12</text><text fill="#000000" font-family="sans-serif" font-size="13" lengthAdjust="spacing" textLength="77" x="59" y="547.0903">cancelOrder</text><line style="stroke:#181818;stroke-width:1.0;" x1="520" x2="562" y1="581.2891" y2="581.2891"/><line style="stroke:#181818;stroke-width:1.0;" x1="562" x2="562" y1="581.2891" y2="594.2891"/><line style="stroke:#181818;stroke-width:1.0;" x1="521" x2="562" y1="594.2891" y2="594.2891"/><polygon fill="#181818" points="531,590.2891,521,594.2891,531,598.2891,527,594.2891" style="stroke:#181818;stroke-width:1.0;"/><text fill="#000000" font-family="sans-serif" font-size="13" font-weight="bold" lengthAdjust="spacing" textLength="18" x="527" y="576.2231">13</text><text fill="#000000" font-family="sans-serif" font-size="13" lengthAdjust="spacing" textLength="128" x="549" y="576.2231">&#24223;&#24323;&#35746;&#21333;&#65288;DISCARD)</text><line style="stroke:#181818;stroke-width:1.0;" x1="520" x2="562" y1="623.4219" y2="623.4219"/><line style="stroke:#181818;stroke-width:1.0;" x1="562" x2="562" y1="623.4219" y2="636.4219"/><line style="stroke:#181818;stroke-width:1.0;" x1="521" x2="562" y1="636.4219" y2="636.4219"/><polygon fill="#181818" points="531,632.4219,521,636.4219,531,640.4219,527,636.4219" style="stroke:#181818;stroke-width:1.0;"/><text fill="#000000" font-family="sans-serif" font-size="13" font-weight="bold" lengthAdjust="spacing" textLength="18" x="527" y="618.356">14</text><text fill="#000000" font-family="sans-serif" font-size="13" lengthAdjust="spacing" textLength="256" x="549" y="618.356">&#26356;&#26032;&#20107;&#21153;&#26085;&#24535;&#29366;&#24577;/&#21019;&#24314;&#20107;&#21153;&#26085;&#24535;&#65288;CANCEL)</text></g></svg>