<?xml version="1.0" encoding="us-ascii" standalone="no"?><svg xmlns="http://www.w3.org/2000/svg" xmlns:xlink="http://www.w3.org/1999/xlink" contentStyleType="text/css" height="360px" preserveAspectRatio="none" style="width:640px;height:360px;background:#FFFFFF;" version="1.1" viewBox="0 0 640 360" width="640px" zoomAndPan="magnify"><defs/><g><line style="stroke:#181818;stroke-width:0.5;stroke-dasharray:5.0,5.0;" x1="47" x2="47" y1="36.2969" y2="325.2266"/><line style="stroke:#181818;stroke-width:0.5;stroke-dasharray:5.0,5.0;" x1="152" x2="152" y1="36.2969" y2="325.2266"/><line style="stroke:#181818;stroke-width:0.5;stroke-dasharray:5.0,5.0;" x1="270" x2="270" y1="36.2969" y2="325.2266"/><rect fill="#E2E2F0" height="30.2969" rx="2.5" ry="2.5" style="stroke:#181818;stroke-width:0.5;" width="84" x="5" y="5"/><text fill="#000000" font-family="sans-serif" font-size="14" lengthAdjust="spacing" textLength="70" x="12" y="24.9951">&#31532;&#19977;&#26041;&#25903;&#20184;</text><rect fill="#E2E2F0" height="30.2969" rx="2.5" ry="2.5" style="stroke:#181818;stroke-width:0.5;" width="84" x="5" y="324.2266"/><text fill="#000000" font-family="sans-serif" font-size="14" lengthAdjust="spacing" textLength="70" x="12" y="344.2217">&#31532;&#19977;&#26041;&#25903;&#20184;</text><rect fill="#E2E2F0" height="30.2969" rx="2.5" ry="2.5" style="stroke:#181818;stroke-width:0.5;" width="107" x="99" y="5"/><text fill="#000000" font-family="sans-serif" font-size="14" lengthAdjust="spacing" textLength="93" x="106" y="24.9951">nft_turbo_pay</text><rect fill="#E2E2F0" height="30.2969" rx="2.5" ry="2.5" style="stroke:#181818;stroke-width:0.5;" width="107" x="99" y="324.2266"/><text fill="#000000" font-family="sans-serif" font-size="14" lengthAdjust="spacing" textLength="93" x="106" y="344.2217">nft_turbo_pay</text><rect fill="#E2E2F0" height="30.2969" rx="2.5" ry="2.5" style="stroke:#181818;stroke-width:0.5;" width="108" x="216" y="5"/><text fill="#000000" font-family="sans-serif" font-size="14" lengthAdjust="spacing" textLength="94" x="223" y="24.9951">nft_turbo_box</text><rect fill="#E2E2F0" height="30.2969" rx="2.5" ry="2.5" style="stroke:#181818;stroke-width:0.5;" width="108" x="216" y="324.2266"/><text fill="#000000" font-family="sans-serif" font-size="14" lengthAdjust="spacing" textLength="94" x="223" y="344.2217">nft_turbo_box</text><polygon fill="#181818" points="140.5,63.4297,150.5,67.4297,140.5,71.4297,144.5,67.4297" style="stroke:#181818;stroke-width:1.0;"/><line style="stroke:#181818;stroke-width:1.0;stroke-dasharray:2.0,2.0;" x1="47" x2="146.5" y1="67.4297" y2="67.4297"/><text fill="#000000" font-family="sans-serif" font-size="13" lengthAdjust="spacing" textLength="78" x="54" y="62.3638">&#25903;&#20184;&#25104;&#21151;&#36890;&#30693;</text><line style="stroke:#181818;stroke-width:1.0;" x1="152.5" x2="194.5" y1="96.5625" y2="96.5625"/><line style="stroke:#181818;stroke-width:1.0;" x1="194.5" x2="194.5" y1="96.5625" y2="109.5625"/><line style="stroke:#181818;stroke-width:1.0;" x1="153.5" x2="194.5" y1="109.5625" y2="109.5625"/><polygon fill="#181818" points="163.5,105.5625,153.5,109.5625,163.5,113.5625,159.5,109.5625" style="stroke:#181818;stroke-width:1.0;"/><text fill="#000000" font-family="sans-serif" font-size="13" lengthAdjust="spacing" textLength="78" x="159.5" y="91.4966">&#25903;&#20184;&#21069;&#32622;&#26816;&#26597;</text><polygon fill="#181818" points="258,134.6953,268,138.6953,258,142.6953,262,138.6953" style="stroke:#181818;stroke-width:1.0;"/><line style="stroke:#181818;stroke-width:1.0;" x1="152.5" x2="264" y1="138.6953" y2="138.6953"/><text fill="#000000" font-family="sans-serif" font-size="13" lengthAdjust="spacing" textLength="76" x="159.5" y="133.6294">confirmSale</text><line style="stroke:#181818;stroke-width:1.0;" x1="270" x2="312" y1="167.8281" y2="167.8281"/><line style="stroke:#181818;stroke-width:1.0;" x1="312" x2="312" y1="167.8281" y2="180.8281"/><line style="stroke:#181818;stroke-width:1.0;" x1="271" x2="312" y1="180.8281" y2="180.8281"/><polygon fill="#181818" points="281,176.8281,271,180.8281,281,184.8281,277,180.8281" style="stroke:#181818;stroke-width:1.0;"/><text fill="#000000" font-family="sans-serif" font-size="13" lengthAdjust="spacing" textLength="91" x="277" y="162.7622">&#30450;&#30418;&#24211;&#23384;&#39044;&#25187;&#20943;</text><line style="stroke:#181818;stroke-width:1.0;" x1="270" x2="312" y1="209.9609" y2="209.9609"/><line style="stroke:#181818;stroke-width:1.0;" x1="312" x2="312" y1="209.9609" y2="222.9609"/><line style="stroke:#181818;stroke-width:1.0;" x1="271" x2="312" y1="222.9609" y2="222.9609"/><polygon fill="#181818" points="281,218.9609,271,222.9609,281,226.9609,277,222.9609" style="stroke:#181818;stroke-width:1.0;"/><text fill="#000000" font-family="sans-serif" font-size="13" lengthAdjust="spacing" textLength="117" x="277" y="204.895">&#22686;&#21152;&#24211;&#23384;&#39044;&#25187;&#20943;&#27969;&#27700;</text><line style="stroke:#181818;stroke-width:1.0;" x1="270" x2="312" y1="252.0938" y2="252.0938"/><line style="stroke:#181818;stroke-width:1.0;" x1="312" x2="312" y1="252.0938" y2="265.0938"/><line style="stroke:#181818;stroke-width:1.0;" x1="271" x2="312" y1="265.0938" y2="265.0938"/><polygon fill="#181818" points="281,261.0938,271,265.0938,281,269.0938,277,265.0938" style="stroke:#181818;stroke-width:1.0;"/><text fill="#000000" font-family="sans-serif" font-size="13" lengthAdjust="spacing" textLength="182" x="277" y="247.0278">&#26681;&#25454;&#20998;&#37197;&#35268;&#21017;&#20998;&#37197;&#19968;&#20010;&#30450;&#30418;&#26465;&#30446;</text><line style="stroke:#181818;stroke-width:1.0;" x1="270" x2="312" y1="294.2266" y2="294.2266"/><line style="stroke:#181818;stroke-width:1.0;" x1="312" x2="312" y1="294.2266" y2="307.2266"/><line style="stroke:#181818;stroke-width:1.0;" x1="271" x2="312" y1="307.2266" y2="307.2266"/><polygon fill="#181818" points="281,303.2266,271,307.2266,281,311.2266,277,307.2266" style="stroke:#181818;stroke-width:1.0;"/><text fill="#000000" font-family="sans-serif" font-size="13" lengthAdjust="spacing" textLength="78" x="277" y="289.1606">&#26356;&#26032;&#30450;&#30418;&#26465;&#30446;</text><path d="M367,281.5938 L367,306.5938 L633,306.5938 L633,291.5938 L623,281.5938 L367,281.5938 " fill="#FEFFDD" style="stroke:#181818;stroke-width:0.5;"/><path d="M623,281.5938 L623,291.5938 L633,291.5938 L623,281.5938 " fill="#FEFFDD" style="stroke:#181818;stroke-width:0.5;"/><text fill="#000000" font-family="sans-serif" font-size="13" lengthAdjust="spacing" textLength="245" x="373" y="298.6606">&#26356;&#26032;&#29992;&#25143;id&#65292;&#24207;&#21015;&#21495;&#65292;&#35746;&#21333;&#21495;&#65292;&#20998;&#37197;&#26102;&#38388;&#31561;</text></g></svg>