<?xml version="1.0" encoding="us-ascii" standalone="no"?><svg xmlns="http://www.w3.org/2000/svg" xmlns:xlink="http://www.w3.org/1999/xlink" contentStyleType="text/css" height="672px" preserveAspectRatio="none" style="width:405px;height:672px;background:#FFFFFF;" version="1.1" viewBox="0 0 405 672" width="405px" zoomAndPan="magnify"><defs/><g><rect fill="#FFFFFF" height="582.2266" style="stroke:#181818;stroke-width:1.0;" width="10" x="23" y="46.2969"/><rect fill="none" height="48.2656" style="stroke:#000000;stroke-width:1.5;" width="266" x="122" y="407.9375"/><line style="stroke:#181818;stroke-width:0.5;stroke-dasharray:5.0,5.0;" x1="28" x2="28" y1="36.2969" y2="637.5234"/><line style="stroke:#181818;stroke-width:0.5;stroke-dasharray:5.0,5.0;" x1="157" x2="157" y1="36.2969" y2="637.5234"/><line style="stroke:#181818;stroke-width:0.5;stroke-dasharray:5.0,5.0;" x1="288" x2="288" y1="36.2969" y2="637.5234"/><line style="stroke:#181818;stroke-width:0.5;stroke-dasharray:5.0,5.0;" x1="352" x2="352" y1="36.2969" y2="637.5234"/><rect fill="#E2E2F0" height="30.2969" rx="2.5" ry="2.5" style="stroke:#181818;stroke-width:0.5;" width="46" x="5" y="5"/><text fill="#000000" font-family="sans-serif" font-size="14" lengthAdjust="spacing" textLength="32" x="12" y="24.9951">User</text><rect fill="#E2E2F0" height="30.2969" rx="2.5" ry="2.5" style="stroke:#181818;stroke-width:0.5;" width="46" x="5" y="636.5234"/><text fill="#000000" font-family="sans-serif" font-size="14" lengthAdjust="spacing" textLength="32" x="12" y="656.5186">User</text><rect fill="#E2E2F0" height="30.2969" rx="2.5" ry="2.5" style="stroke:#181818;stroke-width:0.5;" width="50" x="132" y="5"/><text fill="#000000" font-family="sans-serif" font-size="14" lengthAdjust="spacing" textLength="36" x="139" y="24.9951">trade</text><rect fill="#E2E2F0" height="30.2969" rx="2.5" ry="2.5" style="stroke:#181818;stroke-width:0.5;" width="50" x="132" y="636.5234"/><text fill="#000000" font-family="sans-serif" font-size="14" lengthAdjust="spacing" textLength="36" x="139" y="656.5186">trade</text><rect fill="#E2E2F0" height="30.2969" rx="2.5" ry="2.5" style="stroke:#181818;stroke-width:0.5;" width="58" x="259" y="5"/><text fill="#000000" font-family="sans-serif" font-size="14" lengthAdjust="spacing" textLength="44" x="266" y="24.9951">goods</text><rect fill="#E2E2F0" height="30.2969" rx="2.5" ry="2.5" style="stroke:#181818;stroke-width:0.5;" width="58" x="259" y="636.5234"/><text fill="#000000" font-family="sans-serif" font-size="14" lengthAdjust="spacing" textLength="44" x="266" y="656.5186">goods</text><rect fill="#E2E2F0" height="30.2969" rx="2.5" ry="2.5" style="stroke:#181818;stroke-width:0.5;" width="51" x="327" y="5"/><text fill="#000000" font-family="sans-serif" font-size="14" lengthAdjust="spacing" textLength="37" x="334" y="24.9951">order</text><rect fill="#E2E2F0" height="30.2969" rx="2.5" ry="2.5" style="stroke:#181818;stroke-width:0.5;" width="51" x="327" y="636.5234"/><text fill="#000000" font-family="sans-serif" font-size="14" lengthAdjust="spacing" textLength="37" x="334" y="656.5186">order</text><rect fill="#FFFFFF" height="582.2266" style="stroke:#181818;stroke-width:1.0;" width="10" x="23" y="46.2969"/><rect fill="#EEEEEE" height="3" style="stroke:#EEEEEE;stroke-width:1.0;" width="398" x="0" y="69.1914"/><line style="stroke:#000000;stroke-width:1.0;" x1="0" x2="398" y1="69.1914" y2="69.1914"/><line style="stroke:#000000;stroke-width:1.0;" x1="0" x2="398" y1="72.1914" y2="72.1914"/><rect fill="#EEEEEE" height="27.7891" style="stroke:#000000;stroke-width:2.0;" width="50" x="174" y="56.2969"/><text fill="#000000" font-family="sans-serif" font-size="17" font-weight="bold" lengthAdjust="spacing" textLength="36" x="180" y="76.0767">&#19979;&#21333;</text><polygon fill="#181818" points="145,111.2188,155,115.2188,145,119.2188,149,115.2188" style="stroke:#181818;stroke-width:1.0;"/><line style="stroke:#181818;stroke-width:1.0;" x1="33" x2="151" y1="115.2188" y2="115.2188"/><text fill="#000000" font-family="sans-serif" font-size="13" font-weight="bold" lengthAdjust="spacing" textLength="9" x="40" y="110.1528">1</text><text fill="#000000" font-family="sans-serif" font-size="13" lengthAdjust="spacing" textLength="26" x="53" y="110.1528">&#19979;&#21333;</text><polygon fill="#181818" points="276,140.3516,286,144.3516,276,148.3516,280,144.3516" style="stroke:#181818;stroke-width:1.0;"/><line style="stroke:#181818;stroke-width:1.0;" x1="157" x2="282" y1="144.3516" y2="144.3516"/><text fill="#000000" font-family="sans-serif" font-size="13" font-weight="bold" lengthAdjust="spacing" textLength="9" x="164" y="139.2856">2</text><text fill="#000000" font-family="sans-serif" font-size="13" lengthAdjust="spacing" textLength="78" x="177" y="139.2856">&#26597;&#35810;&#21830;&#21697;&#20449;&#24687;</text><line style="stroke:#181818;stroke-width:1.0;" x1="157" x2="199" y1="173.4844" y2="173.4844"/><line style="stroke:#181818;stroke-width:1.0;" x1="199" x2="199" y1="173.4844" y2="186.4844"/><line style="stroke:#181818;stroke-width:1.0;" x1="158" x2="199" y1="186.4844" y2="186.4844"/><polygon fill="#181818" points="168,182.4844,158,186.4844,168,190.4844,164,186.4844" style="stroke:#181818;stroke-width:1.0;"/><text fill="#000000" font-family="sans-serif" font-size="13" font-weight="bold" lengthAdjust="spacing" textLength="9" x="164" y="168.4185">3</text><text fill="#000000" font-family="sans-serif" font-size="13" lengthAdjust="spacing" textLength="104" x="177" y="168.4185">&#32452;&#35013;&#35746;&#21333;&#21019;&#24314;&#21442;&#25968;</text><polygon fill="#181818" points="340.5,211.6172,350.5,215.6172,340.5,219.6172,344.5,215.6172" style="stroke:#181818;stroke-width:1.0;"/><line style="stroke:#181818;stroke-width:1.0;" x1="157" x2="346.5" y1="215.6172" y2="215.6172"/><text fill="#000000" font-family="sans-serif" font-size="13" font-weight="bold" lengthAdjust="spacing" textLength="9" x="164" y="210.5513">4</text><text fill="#000000" font-family="sans-serif" font-size="13" lengthAdjust="spacing" textLength="52" x="177" y="210.5513">&#21019;&#24314;&#35746;&#21333;</text><polygon fill="#181818" points="44,240.75,34,244.75,44,248.75,40,244.75" style="stroke:#181818;stroke-width:1.0;"/><line style="stroke:#181818;stroke-width:1.0;" x1="38" x2="156" y1="244.75" y2="244.75"/><text fill="#000000" font-family="sans-serif" font-size="13" font-weight="bold" lengthAdjust="spacing" textLength="9" x="50" y="239.6841">5</text><text fill="#000000" font-family="sans-serif" font-size="13" lengthAdjust="spacing" textLength="65" x="63" y="239.6841">&#36820;&#22238;&#35746;&#21333;&#21495;</text><rect fill="#EEEEEE" height="3" style="stroke:#EEEEEE;stroke-width:1.0;" width="398" x="0" y="275.6445"/><line style="stroke:#000000;stroke-width:1.0;" x1="0" x2="398" y1="275.6445" y2="275.6445"/><line style="stroke:#000000;stroke-width:1.0;" x1="0" x2="398" y1="278.6445" y2="278.6445"/><rect fill="#EEEEEE" height="27.7891" style="stroke:#000000;stroke-width:2.0;" width="50" x="174" y="262.75"/><text fill="#000000" font-family="sans-serif" font-size="17" font-weight="bold" lengthAdjust="spacing" textLength="36" x="180" y="282.5298">&#25903;&#20184;</text><polygon fill="#181818" points="145,317.6719,155,321.6719,145,325.6719,149,321.6719" style="stroke:#181818;stroke-width:1.0;"/><line style="stroke:#181818;stroke-width:1.0;" x1="33" x2="151" y1="321.6719" y2="321.6719"/><text fill="#000000" font-family="sans-serif" font-size="13" font-weight="bold" lengthAdjust="spacing" textLength="9" x="40" y="316.606">6</text><text fill="#000000" font-family="sans-serif" font-size="13" lengthAdjust="spacing" textLength="26" x="53" y="316.606">&#25903;&#20184;</text><polygon fill="#181818" points="340.5,346.8047,350.5,350.8047,340.5,354.8047,344.5,350.8047" style="stroke:#181818;stroke-width:1.0;"/><line style="stroke:#181818;stroke-width:1.0;" x1="157" x2="346.5" y1="350.8047" y2="350.8047"/><text fill="#000000" font-family="sans-serif" font-size="13" font-weight="bold" lengthAdjust="spacing" textLength="9" x="164" y="345.7388">7</text><text fill="#000000" font-family="sans-serif" font-size="13" lengthAdjust="spacing" textLength="78" x="177" y="345.7388">&#26597;&#35810;&#35746;&#21333;&#20449;&#24687;</text><line style="stroke:#181818;stroke-width:1.0;" x1="157" x2="199" y1="379.9375" y2="379.9375"/><line style="stroke:#181818;stroke-width:1.0;" x1="199" x2="199" y1="379.9375" y2="392.9375"/><line style="stroke:#181818;stroke-width:1.0;" x1="158" x2="199" y1="392.9375" y2="392.9375"/><polygon fill="#181818" points="168,388.9375,158,392.9375,168,396.9375,164,392.9375" style="stroke:#181818;stroke-width:1.0;"/><text fill="#000000" font-family="sans-serif" font-size="13" font-weight="bold" lengthAdjust="spacing" textLength="9" x="164" y="374.8716">8</text><text fill="#000000" font-family="sans-serif" font-size="13" lengthAdjust="spacing" textLength="104" x="177" y="374.8716">&#35746;&#21333;&#33021;&#21542;&#25903;&#20184;&#26657;&#39564;</text><path d="M122,407.9375 L186,407.9375 L186,415.0703 L176,425.0703 L122,425.0703 L122,407.9375 " fill="#EEEEEE" style="stroke:#000000;stroke-width:1.5;"/><rect fill="none" height="48.2656" style="stroke:#000000;stroke-width:1.5;" width="266" x="122" y="407.9375"/><text fill="#000000" font-family="sans-serif" font-size="13" font-weight="bold" lengthAdjust="spacing" textLength="19" x="137" y="421.0044">alt</text><text fill="#000000" font-family="sans-serif" font-size="11" font-weight="bold" lengthAdjust="spacing" textLength="153" x="201" y="420.1479">[&#35746;&#21333;&#24050;&#36229;&#26102;&#20294;&#26159;&#29366;&#24577;&#36824;&#26410;&#20851;&#38381;]</text><polygon fill="#181818" points="340.5,442.2031,350.5,446.2031,340.5,450.2031,344.5,446.2031" style="stroke:#181818;stroke-width:1.0;"/><line style="stroke:#181818;stroke-width:1.0;stroke-dasharray:2.0,2.0;" x1="157" x2="346.5" y1="446.2031" y2="446.2031"/><text fill="#000000" font-family="sans-serif" font-size="13" font-weight="bold" lengthAdjust="spacing" textLength="9" x="164" y="441.1372">9</text><text fill="#000000" font-family="sans-serif" font-size="13" lengthAdjust="spacing" textLength="52" x="177" y="441.1372">&#36229;&#26102;&#20851;&#21333;</text><line style="stroke:#000000;stroke-width:1.0;stroke-dasharray:2.0,2.0;" x1="122" x2="388" y1="455.2031" y2="455.2031"/><polygon fill="#181818" points="44,480.3359,34,484.3359,44,488.3359,40,484.3359" style="stroke:#181818;stroke-width:1.0;"/><line style="stroke:#181818;stroke-width:1.0;" x1="38" x2="156" y1="484.3359" y2="484.3359"/><text fill="#000000" font-family="sans-serif" font-size="13" font-weight="bold" lengthAdjust="spacing" textLength="18" x="50" y="479.27">10</text><text fill="#000000" font-family="sans-serif" font-size="13" lengthAdjust="spacing" textLength="78" x="72" y="479.27">&#29983;&#25104;&#25903;&#20184;&#38142;&#25509;</text><rect fill="#EEEEEE" height="3" style="stroke:#EEEEEE;stroke-width:1.0;" width="398" x="0" y="515.2305"/><line style="stroke:#000000;stroke-width:1.0;" x1="0" x2="398" y1="515.2305" y2="515.2305"/><line style="stroke:#000000;stroke-width:1.0;" x1="0" x2="398" y1="518.2305" y2="518.2305"/><rect fill="#EEEEEE" height="27.7891" style="stroke:#000000;stroke-width:2.0;" width="86" x="156" y="502.3359"/><text fill="#000000" font-family="sans-serif" font-size="17" font-weight="bold" lengthAdjust="spacing" textLength="72" x="162" y="522.1157">&#21462;&#28040;&#35746;&#21333;</text><polygon fill="#181818" points="145,557.2578,155,561.2578,145,565.2578,149,561.2578" style="stroke:#181818;stroke-width:1.0;"/><line style="stroke:#181818;stroke-width:1.0;" x1="33" x2="151" y1="561.2578" y2="561.2578"/><text fill="#000000" font-family="sans-serif" font-size="13" font-weight="bold" lengthAdjust="spacing" textLength="18" x="40" y="556.1919">11</text><text fill="#000000" font-family="sans-serif" font-size="13" lengthAdjust="spacing" textLength="52" x="62" y="556.1919">&#21462;&#28040;&#35746;&#21333;</text><polygon fill="#181818" points="340.5,586.3906,350.5,590.3906,340.5,594.3906,344.5,590.3906" style="stroke:#181818;stroke-width:1.0;"/><line style="stroke:#181818;stroke-width:1.0;" x1="157" x2="346.5" y1="590.3906" y2="590.3906"/><text fill="#000000" font-family="sans-serif" font-size="13" font-weight="bold" lengthAdjust="spacing" textLength="18" x="164" y="585.3247">12</text><text fill="#000000" font-family="sans-serif" font-size="13" lengthAdjust="spacing" textLength="52" x="186" y="585.3247">&#21462;&#28040;&#35746;&#21333;</text><polygon fill="#181818" points="44,615.5234,34,619.5234,44,623.5234,40,619.5234" style="stroke:#181818;stroke-width:1.0;"/><line style="stroke:#181818;stroke-width:1.0;" x1="38" x2="156" y1="619.5234" y2="619.5234"/><text fill="#000000" font-family="sans-serif" font-size="13" font-weight="bold" lengthAdjust="spacing" textLength="18" x="50" y="614.4575">13</text><text fill="#000000" font-family="sans-serif" font-size="13" lengthAdjust="spacing" textLength="52" x="72" y="614.4575">&#21462;&#28040;&#32467;&#26524;</text></g></svg>