<?xml version="1.0" encoding="us-ascii" standalone="no"?><svg xmlns="http://www.w3.org/2000/svg" xmlns:xlink="http://www.w3.org/1999/xlink" contentStyleType="text/css" height="1089px" preserveAspectRatio="none" style="width:1047px;height:1089px;background:#FFFFFF;" version="1.1" viewBox="0 0 1047 1089" width="1047px" zoomAndPan="magnify"><defs/><g><rect fill="#FFFFFF" height="908.4531" style="stroke:#181818;stroke-width:1.0;" width="10" x="17" y="91.2969"/><rect fill="none" height="315.1953" style="stroke:#000000;stroke-width:1.5;" width="626.5" x="415" y="599.2891"/><line style="stroke:#181818;stroke-width:0.5;stroke-dasharray:5.0,5.0;" x1="22" x2="22" y1="81.2969" y2="1008.75"/><line style="stroke:#181818;stroke-width:0.5;stroke-dasharray:5.0,5.0;" x1="90" x2="90" y1="81.2969" y2="1008.75"/><line style="stroke:#181818;stroke-width:0.5;stroke-dasharray:5.0,5.0;" x1="307.5" x2="307.5" y1="81.2969" y2="1008.75"/><line style="stroke:#181818;stroke-width:0.5;stroke-dasharray:5.0,5.0;" x1="465" x2="465" y1="81.2969" y2="1008.75"/><line style="stroke:#181818;stroke-width:0.5;stroke-dasharray:5.0,5.0;" x1="567" x2="567" y1="81.2969" y2="1008.75"/><line style="stroke:#181818;stroke-width:0.5;stroke-dasharray:5.0,5.0;" x1="742.5" x2="742.5" y1="81.2969" y2="1008.75"/><line style="stroke:#181818;stroke-width:0.5;stroke-dasharray:5.0,5.0;" x1="847.5" x2="847.5" y1="81.2969" y2="1008.75"/><text fill="#000000" font-family="sans-serif" font-size="14" lengthAdjust="spacing" textLength="28" x="5" y="77.9951">&#29992;&#25143;</text><ellipse cx="22" cy="13.5" fill="#E2E2F0" rx="8" ry="8" style="stroke:#181818;stroke-width:0.5;"/><path d="M22,21.5 L22,48.5 M9,29.5 L35,29.5 M22,48.5 L9,63.5 M22,48.5 L35,63.5 " fill="none" style="stroke:#181818;stroke-width:0.5;"/><text fill="#000000" font-family="sans-serif" font-size="14" lengthAdjust="spacing" textLength="28" x="5" y="1020.7451">&#29992;&#25143;</text><ellipse cx="22" cy="1032.5469" fill="#E2E2F0" rx="8" ry="8" style="stroke:#181818;stroke-width:0.5;"/><path d="M22,1040.5469 L22,1067.5469 M9,1048.5469 L35,1048.5469 M22,1067.5469 L9,1082.5469 M22,1067.5469 L35,1082.5469 " fill="none" style="stroke:#181818;stroke-width:0.5;"/><rect fill="#E2E2F0" height="30.2969" rx="2.5" ry="2.5" style="stroke:#181818;stroke-width:0.5;" width="56" x="62" y="50"/><text fill="#000000" font-family="sans-serif" font-size="14" lengthAdjust="spacing" textLength="42" x="69" y="69.9951">&#27983;&#35272;&#22120;</text><rect fill="#E2E2F0" height="30.2969" rx="2.5" ry="2.5" style="stroke:#181818;stroke-width:0.5;" width="56" x="62" y="1007.75"/><text fill="#000000" font-family="sans-serif" font-size="14" lengthAdjust="spacing" textLength="42" x="69" y="1027.7451">&#27983;&#35272;&#22120;</text><rect fill="#E2E2F0" height="30.2969" rx="2.5" ry="2.5" style="stroke:#181818;stroke-width:0.5;" width="75" x="270.5" y="50"/><text fill="#000000" font-family="sans-serif" font-size="14" lengthAdjust="spacing" textLength="61" x="277.5" y="69.9951">nft_trade</text><rect fill="#E2E2F0" height="30.2969" rx="2.5" ry="2.5" style="stroke:#181818;stroke-width:0.5;" width="75" x="270.5" y="1007.75"/><text fill="#000000" font-family="sans-serif" font-size="14" lengthAdjust="spacing" textLength="61" x="277.5" y="1027.7451">nft_trade</text><rect fill="#E2E2F0" height="30.2969" rx="2.5" ry="2.5" style="stroke:#181818;stroke-width:0.5;" width="80" x="425" y="50"/><text fill="#000000" font-family="sans-serif" font-size="14" lengthAdjust="spacing" textLength="66" x="432" y="69.9951">rocketmq</text><rect fill="#E2E2F0" height="30.2969" rx="2.5" ry="2.5" style="stroke:#181818;stroke-width:0.5;" width="80" x="425" y="1007.75"/><text fill="#000000" font-family="sans-serif" font-size="14" lengthAdjust="spacing" textLength="66" x="432" y="1027.7451">rocketmq</text><rect fill="#E2E2F0" height="30.2969" rx="2.5" ry="2.5" style="stroke:#181818;stroke-width:0.5;" width="105" x="515" y="50"/><text fill="#000000" font-family="sans-serif" font-size="14" lengthAdjust="spacing" textLength="91" x="522" y="69.9951">nft_collection</text><rect fill="#E2E2F0" height="30.2969" rx="2.5" ry="2.5" style="stroke:#181818;stroke-width:0.5;" width="105" x="515" y="1007.75"/><text fill="#000000" font-family="sans-serif" font-size="14" lengthAdjust="spacing" textLength="91" x="522" y="1027.7451">nft_collection</text><rect fill="#E2E2F0" height="30.2969" rx="2.5" ry="2.5" style="stroke:#181818;stroke-width:0.5;" width="48" x="718.5" y="50"/><text fill="#000000" font-family="sans-serif" font-size="14" lengthAdjust="spacing" textLength="34" x="725.5" y="69.9951">redis</text><rect fill="#E2E2F0" height="30.2969" rx="2.5" ry="2.5" style="stroke:#181818;stroke-width:0.5;" width="48" x="718.5" y="1007.75"/><text fill="#000000" font-family="sans-serif" font-size="14" lengthAdjust="spacing" textLength="34" x="725.5" y="1027.7451">redis</text><rect fill="#E2E2F0" height="30.2969" rx="2.5" ry="2.5" style="stroke:#181818;stroke-width:0.5;" width="76" x="809.5" y="50"/><text fill="#000000" font-family="sans-serif" font-size="14" lengthAdjust="spacing" textLength="62" x="816.5" y="69.9951">nft_order</text><rect fill="#E2E2F0" height="30.2969" rx="2.5" ry="2.5" style="stroke:#181818;stroke-width:0.5;" width="76" x="809.5" y="1007.75"/><text fill="#000000" font-family="sans-serif" font-size="14" lengthAdjust="spacing" textLength="62" x="816.5" y="1027.7451">nft_order</text><rect fill="#FFFFFF" height="908.4531" style="stroke:#181818;stroke-width:1.0;" width="10" x="17" y="91.2969"/><polygon fill="#181818" points="78,108.4297,88,112.4297,78,116.4297,82,112.4297" style="stroke:#181818;stroke-width:1.0;"/><line style="stroke:#181818;stroke-width:1.0;" x1="27" x2="84" y1="112.4297" y2="112.4297"/><text fill="#000000" font-family="sans-serif" font-size="13" font-weight="bold" lengthAdjust="spacing" textLength="9" x="34" y="107.3638">1</text><text fill="#000000" font-family="sans-serif" font-size="13" lengthAdjust="spacing" textLength="26" x="47" y="107.3638">&#19979;&#21333;</text><polygon fill="#181818" points="296,137.5625,306,141.5625,296,145.5625,300,141.5625" style="stroke:#181818;stroke-width:1.0;"/><line style="stroke:#181818;stroke-width:1.0;" x1="90" x2="302" y1="141.5625" y2="141.5625"/><text fill="#000000" font-family="sans-serif" font-size="13" font-weight="bold" lengthAdjust="spacing" textLength="9" x="97" y="136.4966">2</text><text fill="#000000" font-family="sans-serif" font-size="13" lengthAdjust="spacing" textLength="49" x="110" y="136.4966">newBuy</text><line style="stroke:#181818;stroke-width:1.0;" x1="308" x2="350" y1="170.6953" y2="170.6953"/><line style="stroke:#181818;stroke-width:1.0;" x1="350" x2="350" y1="170.6953" y2="183.6953"/><line style="stroke:#181818;stroke-width:1.0;" x1="309" x2="350" y1="183.6953" y2="183.6953"/><polygon fill="#181818" points="319,179.6953,309,183.6953,319,187.6953,315,183.6953" style="stroke:#181818;stroke-width:1.0;"/><text fill="#000000" font-family="sans-serif" font-size="13" font-weight="bold" lengthAdjust="spacing" textLength="9" x="315" y="165.6294">3</text><text fill="#000000" font-family="sans-serif" font-size="13" lengthAdjust="spacing" textLength="78" x="328" y="165.6294">&#39044;&#29983;&#25104;&#35746;&#21333;&#21495;</text><line style="stroke:#181818;stroke-width:1.0;" x1="308" x2="350" y1="212.8281" y2="212.8281"/><line style="stroke:#181818;stroke-width:1.0;" x1="350" x2="350" y1="212.8281" y2="225.8281"/><line style="stroke:#181818;stroke-width:1.0;" x1="309" x2="350" y1="225.8281" y2="225.8281"/><polygon fill="#181818" points="319,221.8281,309,225.8281,319,229.8281,315,225.8281" style="stroke:#181818;stroke-width:1.0;"/><text fill="#000000" font-family="sans-serif" font-size="13" font-weight="bold" lengthAdjust="spacing" textLength="9" x="315" y="207.7622">4</text><text fill="#000000" font-family="sans-serif" font-size="13" lengthAdjust="spacing" textLength="78" x="328" y="207.7622">&#32452;&#35013;&#19979;&#21333;&#21442;&#25968;</text><polygon fill="#181818" points="453,250.9609,463,254.9609,453,258.9609,457,254.9609" style="stroke:#181818;stroke-width:1.0;"/><line style="stroke:#181818;stroke-width:1.0;" x1="308" x2="459" y1="254.9609" y2="254.9609"/><text fill="#000000" font-family="sans-serif" font-size="13" font-weight="bold" lengthAdjust="spacing" textLength="9" x="315" y="249.895">5</text><text fill="#000000" font-family="sans-serif" font-size="13" lengthAdjust="spacing" textLength="79" x="328" y="249.895">&#21457;&#36865; half&#28040;&#24687;</text><polygon fill="#181818" points="555.5,280.0938,565.5,284.0938,555.5,288.0938,559.5,284.0938" style="stroke:#181818;stroke-width:1.0;"/><line style="stroke:#181818;stroke-width:1.0;" x1="308" x2="561.5" y1="284.0938" y2="284.0938"/><text fill="#000000" font-family="sans-serif" font-size="13" font-weight="bold" lengthAdjust="spacing" textLength="9" x="315" y="279.0278">6</text><text fill="#000000" font-family="sans-serif" font-size="13" lengthAdjust="spacing" textLength="126" x="328" y="279.0278">preInventoryDeduct</text><polygon fill="#181818" points="730.5,309.2266,740.5,313.2266,730.5,317.2266,734.5,313.2266" style="stroke:#181818;stroke-width:1.0;"/><line style="stroke:#181818;stroke-width:1.0;" x1="567.5" x2="736.5" y1="313.2266" y2="313.2266"/><text fill="#000000" font-family="sans-serif" font-size="13" font-weight="bold" lengthAdjust="spacing" textLength="9" x="574.5" y="308.1606">7</text><text fill="#000000" font-family="sans-serif" font-size="13" lengthAdjust="spacing" textLength="103" x="587.5" y="308.1606">Redis &#24211;&#23384;&#39044;&#25187;&#20943;</text><path d="M707,326.2266 L707,351.2266 L777,351.2266 L777,336.2266 L767,326.2266 L707,326.2266 " fill="#FEFFDD" style="stroke:#181818;stroke-width:0.5;"/><path d="M767,326.2266 L767,336.2266 L777,336.2266 L767,326.2266 " fill="#FEFFDD" style="stroke:#181818;stroke-width:0.5;"/><text fill="#000000" font-family="sans-serif" font-size="13" lengthAdjust="spacing" textLength="49" x="713" y="343.2935">lua &#33050;&#26412;</text><line style="stroke:#181818;stroke-width:1.0;" x1="742.5" x2="784.5" y1="377.4922" y2="377.4922"/><line style="stroke:#181818;stroke-width:1.0;" x1="784.5" x2="784.5" y1="377.4922" y2="390.4922"/><line style="stroke:#181818;stroke-width:1.0;" x1="743.5" x2="784.5" y1="390.4922" y2="390.4922"/><polygon fill="#181818" points="753.5,386.4922,743.5,390.4922,753.5,394.4922,749.5,390.4922" style="stroke:#181818;stroke-width:1.0;"/><text fill="#000000" font-family="sans-serif" font-size="13" font-weight="bold" lengthAdjust="spacing" textLength="9" x="749.5" y="372.4263">8</text><text fill="#000000" font-family="sans-serif" font-size="13" lengthAdjust="spacing" textLength="52" x="762.5" y="372.4263">&#25187;&#20943;&#24211;&#23384;</text><line style="stroke:#181818;stroke-width:1.0;" x1="742.5" x2="784.5" y1="419.625" y2="419.625"/><line style="stroke:#181818;stroke-width:1.0;" x1="784.5" x2="784.5" y1="419.625" y2="432.625"/><line style="stroke:#181818;stroke-width:1.0;" x1="743.5" x2="784.5" y1="432.625" y2="432.625"/><polygon fill="#181818" points="753.5,428.625,743.5,432.625,753.5,436.625,749.5,432.625" style="stroke:#181818;stroke-width:1.0;"/><text fill="#000000" font-family="sans-serif" font-size="13" font-weight="bold" lengthAdjust="spacing" textLength="9" x="749.5" y="414.5591">9</text><text fill="#000000" font-family="sans-serif" font-size="13" lengthAdjust="spacing" textLength="78" x="762.5" y="414.5591">&#26032;&#22686;&#25187;&#20943;&#27969;&#27700;</text><polygon fill="#181818" points="578.5,457.7578,568.5,461.7578,578.5,465.7578,574.5,461.7578" style="stroke:#181818;stroke-width:1.0;"/><line style="stroke:#181818;stroke-width:1.0;stroke-dasharray:2.0,2.0;" x1="572.5" x2="741.5" y1="461.7578" y2="461.7578"/><text fill="#000000" font-family="sans-serif" font-size="13" font-weight="bold" lengthAdjust="spacing" textLength="18" x="584.5" y="456.6919">10</text><text fill="#000000" font-family="sans-serif" font-size="13" lengthAdjust="spacing" textLength="129" x="606.5" y="456.6919">Redis &#24211;&#23384;&#39044;&#25187;&#20943;&#25104;&#21151;</text><polygon fill="#181818" points="319,486.8906,309,490.8906,319,494.8906,315,490.8906" style="stroke:#181818;stroke-width:1.0;"/><line style="stroke:#181818;stroke-width:1.0;stroke-dasharray:2.0,2.0;" x1="313" x2="566.5" y1="490.8906" y2="490.8906"/><text fill="#000000" font-family="sans-serif" font-size="13" font-weight="bold" lengthAdjust="spacing" textLength="18" x="325" y="485.8247">11</text><text fill="#000000" font-family="sans-serif" font-size="13" lengthAdjust="spacing" textLength="65" x="347" y="485.8247">&#39044;&#25187;&#20943;&#25104;&#21151;</text><polygon fill="#181818" points="453,516.0234,463,520.0234,453,524.0234,457,520.0234" style="stroke:#181818;stroke-width:1.0;"/><line style="stroke:#181818;stroke-width:1.0;" x1="308" x2="459" y1="520.0234" y2="520.0234"/><text fill="#000000" font-family="sans-serif" font-size="13" font-weight="bold" lengthAdjust="spacing" textLength="18" x="315" y="514.9575">12</text><text fill="#000000" font-family="sans-serif" font-size="13" lengthAdjust="spacing" textLength="111" x="337" y="514.9575">&#23558;half&#28040;&#24687;commit</text><polygon fill="#181818" points="101,545.1563,91,549.1563,101,553.1563,97,549.1563" style="stroke:#181818;stroke-width:1.0;"/><line style="stroke:#181818;stroke-width:1.0;stroke-dasharray:2.0,2.0;" x1="95" x2="307" y1="549.1563" y2="549.1563"/><text fill="#000000" font-family="sans-serif" font-size="13" font-weight="bold" lengthAdjust="spacing" textLength="18" x="107" y="544.0903">13</text><text fill="#000000" font-family="sans-serif" font-size="13" lengthAdjust="spacing" textLength="39" x="129" y="544.0903">&#35746;&#21333;&#21495;</text><polygon fill="#181818" points="835.5,577.2891,845.5,581.2891,835.5,585.2891,839.5,581.2891" style="stroke:#181818;stroke-width:1.0;"/><line style="stroke:#181818;stroke-width:1.0;" x1="90" x2="841.5" y1="581.2891" y2="581.2891"/><text fill="#000000" font-family="sans-serif" font-size="13" font-weight="bold" lengthAdjust="spacing" textLength="18" x="97" y="576.2231">14</text><text fill="#000000" font-family="sans-serif" font-size="13" lengthAdjust="spacing" textLength="78" x="119" y="576.2231">&#36718;&#35810;&#35746;&#21333;&#29366;&#24577;</text><path d="M852,562.1563 L852,587.1563 L951,587.1563 L951,572.1563 L941,562.1563 L852,562.1563 " fill="#FEFFDD" style="stroke:#181818;stroke-width:0.5;"/><path d="M941,562.1563 L941,572.1563 L951,572.1563 L941,562.1563 " fill="#FEFFDD" style="stroke:#181818;stroke-width:0.5;"/><text fill="#000000" font-family="sans-serif" font-size="13" lengthAdjust="spacing" textLength="78" x="858" y="579.2231">&#21069;&#31471;&#19981;&#26029;&#36718;&#35810;</text><path d="M415,599.2891 L540,599.2891 L540,606.4219 L530,616.4219 L415,616.4219 L415,599.2891 " fill="#EEEEEE" style="stroke:#000000;stroke-width:1.5;"/><rect fill="none" height="315.1953" style="stroke:#000000;stroke-width:1.5;" width="626.5" x="415" y="599.2891"/><text fill="#000000" font-family="sans-serif" font-size="13" font-weight="bold" lengthAdjust="spacing" textLength="80" x="430" y="612.356">&#24322;&#27493;&#28040;&#36153;MQ</text><polygon fill="#181818" points="835.5,633.5547,845.5,637.5547,835.5,641.5547,839.5,637.5547" style="stroke:#181818;stroke-width:1.0;"/><line style="stroke:#181818;stroke-width:1.0;stroke-dasharray:2.0,2.0;" x1="465" x2="841.5" y1="637.5547" y2="637.5547"/><text fill="#000000" font-family="sans-serif" font-size="13" font-weight="bold" lengthAdjust="spacing" textLength="18" x="472" y="632.4888">15</text><text fill="#000000" font-family="sans-serif" font-size="13" lengthAdjust="spacing" textLength="109" x="494" y="632.4888">&#30417;&#21548; newBuy &#28040;&#24687;</text><line style="stroke:#181818;stroke-width:1.0;" x1="847.5" x2="889.5" y1="666.6875" y2="666.6875"/><line style="stroke:#181818;stroke-width:1.0;" x1="889.5" x2="889.5" y1="666.6875" y2="679.6875"/><line style="stroke:#181818;stroke-width:1.0;" x1="848.5" x2="889.5" y1="679.6875" y2="679.6875"/><polygon fill="#181818" points="858.5,675.6875,848.5,679.6875,858.5,683.6875,854.5,679.6875" style="stroke:#181818;stroke-width:1.0;"/><text fill="#000000" font-family="sans-serif" font-size="13" font-weight="bold" lengthAdjust="spacing" textLength="18" x="854.5" y="661.6216">16</text><text fill="#000000" font-family="sans-serif" font-size="13" lengthAdjust="spacing" textLength="116" x="876.5" y="661.6216">createAndConfirm</text><line style="stroke:#181818;stroke-width:1.0;" x1="847.5" x2="889.5" y1="708.8203" y2="708.8203"/><line style="stroke:#181818;stroke-width:1.0;" x1="889.5" x2="889.5" y1="708.8203" y2="721.8203"/><line style="stroke:#181818;stroke-width:1.0;" x1="848.5" x2="889.5" y1="721.8203" y2="721.8203"/><polygon fill="#181818" points="858.5,717.8203,848.5,721.8203,858.5,725.8203,854.5,721.8203" style="stroke:#181818;stroke-width:1.0;"/><text fill="#000000" font-family="sans-serif" font-size="13" font-weight="bold" lengthAdjust="spacing" textLength="18" x="854.5" y="703.7544">17</text><text fill="#000000" font-family="sans-serif" font-size="13" lengthAdjust="spacing" textLength="52" x="876.5" y="703.7544">&#21069;&#32622;&#26657;&#39564;</text><path d="M940,696.1875 L940,721.1875 L1026,721.1875 L1026,706.1875 L1016,696.1875 L940,696.1875 " fill="#FEFFDD" style="stroke:#181818;stroke-width:0.5;"/><path d="M1016,696.1875 L1016,706.1875 L1026,706.1875 L1016,696.1875 " fill="#FEFFDD" style="stroke:#181818;stroke-width:0.5;"/><text fill="#000000" font-family="sans-serif" font-size="13" lengthAdjust="spacing" textLength="65" x="946" y="713.2544">&#36131;&#20219;&#38142;&#27169;&#24335;</text><polygon fill="#181818" points="578.5,746.9531,568.5,750.9531,578.5,754.9531,574.5,750.9531" style="stroke:#181818;stroke-width:1.0;"/><line style="stroke:#181818;stroke-width:1.0;" x1="572.5" x2="846.5" y1="750.9531" y2="750.9531"/><text fill="#000000" font-family="sans-serif" font-size="13" font-weight="bold" lengthAdjust="spacing" textLength="18" x="584.5" y="745.8872">18</text><text fill="#000000" font-family="sans-serif" font-size="13" lengthAdjust="spacing" textLength="119" x="606.5" y="745.8872">trySaleWithoutHint</text><line style="stroke:#181818;stroke-width:1.0;" x1="567.5" x2="609.5" y1="780.0859" y2="780.0859"/><line style="stroke:#181818;stroke-width:1.0;" x1="609.5" x2="609.5" y1="780.0859" y2="793.0859"/><line style="stroke:#181818;stroke-width:1.0;" x1="568.5" x2="609.5" y1="793.0859" y2="793.0859"/><polygon fill="#181818" points="578.5,789.0859,568.5,793.0859,578.5,797.0859,574.5,793.0859" style="stroke:#181818;stroke-width:1.0;"/><text fill="#000000" font-family="sans-serif" font-size="13" font-weight="bold" lengthAdjust="spacing" textLength="18" x="574.5" y="775.02">19</text><text fill="#000000" font-family="sans-serif" font-size="13" lengthAdjust="spacing" textLength="65" x="596.5" y="775.02">&#24211;&#23384;&#39044;&#25187;&#20943;</text><path d="M673,767.4531 L673,792.4531 L917,792.4531 L917,777.4531 L907,767.4531 L673,767.4531 " fill="#FEFFDD" style="stroke:#181818;stroke-width:0.5;"/><path d="M907,767.4531 L907,777.4531 L917,777.4531 L907,767.4531 " fill="#FEFFDD" style="stroke:#181818;stroke-width:0.5;"/><text fill="#000000" font-family="sans-serif" font-size="13" lengthAdjust="spacing" textLength="223" x="679" y="784.52">&#23545;saleable_inventory &#25187;&#20943;(&#26080; Hint&#65289;</text><line style="stroke:#181818;stroke-width:1.0;" x1="567.5" x2="609.5" y1="822.2188" y2="822.2188"/><line style="stroke:#181818;stroke-width:1.0;" x1="609.5" x2="609.5" y1="822.2188" y2="835.2188"/><line style="stroke:#181818;stroke-width:1.0;" x1="568.5" x2="609.5" y1="835.2188" y2="835.2188"/><polygon fill="#181818" points="578.5,831.2188,568.5,835.2188,578.5,839.2188,574.5,835.2188" style="stroke:#181818;stroke-width:1.0;"/><text fill="#000000" font-family="sans-serif" font-size="13" font-weight="bold" lengthAdjust="spacing" textLength="18" x="574.5" y="817.1528">20</text><text fill="#000000" font-family="sans-serif" font-size="13" lengthAdjust="spacing" textLength="104" x="596.5" y="817.1528">&#26032;&#22686;&#24211;&#23384;&#25187;&#20943;&#27969;&#27700;</text><polygon fill="#181818" points="835.5,860.3516,845.5,864.3516,835.5,868.3516,839.5,864.3516" style="stroke:#181818;stroke-width:1.0;"/><line style="stroke:#181818;stroke-width:1.0;" x1="567.5" x2="841.5" y1="864.3516" y2="864.3516"/><text fill="#000000" font-family="sans-serif" font-size="13" font-weight="bold" lengthAdjust="spacing" textLength="18" x="574.5" y="859.2856">21</text><text fill="#000000" font-family="sans-serif" font-size="13" lengthAdjust="spacing" textLength="130" x="596.5" y="859.2856">&#24211;&#23384;&#25968;&#25454;&#24211;&#39044;&#25187;&#20943;&#25104;&#21151;</text><line style="stroke:#181818;stroke-width:1.0;" x1="847.5" x2="889.5" y1="893.4844" y2="893.4844"/><line style="stroke:#181818;stroke-width:1.0;" x1="889.5" x2="889.5" y1="893.4844" y2="906.4844"/><line style="stroke:#181818;stroke-width:1.0;" x1="848.5" x2="889.5" y1="906.4844" y2="906.4844"/><polygon fill="#181818" points="858.5,902.4844,848.5,906.4844,858.5,910.4844,854.5,906.4844" style="stroke:#181818;stroke-width:1.0;"/><text fill="#000000" font-family="sans-serif" font-size="13" font-weight="bold" lengthAdjust="spacing" textLength="18" x="854.5" y="888.4185">22</text><text fill="#000000" font-family="sans-serif" font-size="13" lengthAdjust="spacing" textLength="136" x="876.5" y="888.4185">&#21019;&#24314;&#35746;&#21333;&#65288;CONFIRM&#65289;</text><polygon fill="#181818" points="101,941.6172,91,945.6172,101,949.6172,97,945.6172" style="stroke:#181818;stroke-width:1.0;"/><line style="stroke:#181818;stroke-width:1.0;stroke-dasharray:2.0,2.0;" x1="95" x2="846.5" y1="945.6172" y2="945.6172"/><text fill="#000000" font-family="sans-serif" font-size="13" font-weight="bold" lengthAdjust="spacing" textLength="18" x="107" y="940.5513">23</text><text fill="#000000" font-family="sans-serif" font-size="13" lengthAdjust="spacing" textLength="65" x="129" y="940.5513">&#35746;&#21333;&#24453;&#25903;&#20184;</text><path d="M852,926.4844 L852,951.4844 L990,951.4844 L990,936.4844 L980,926.4844 L852,926.4844 " fill="#FEFFDD" style="stroke:#181818;stroke-width:0.5;"/><path d="M980,926.4844 L980,936.4844 L990,936.4844 L980,926.4844 " fill="#FEFFDD" style="stroke:#181818;stroke-width:0.5;"/><text fill="#000000" font-family="sans-serif" font-size="13" lengthAdjust="spacing" textLength="117" x="858" y="943.5513">&#24322;&#27493;&#35746;&#21333;&#21019;&#24314;&#25104;&#21151;&#21518;</text><line style="stroke:#181818;stroke-width:1.0;" x1="90" x2="132" y1="977.75" y2="977.75"/><line style="stroke:#181818;stroke-width:1.0;" x1="132" x2="132" y1="977.75" y2="990.75"/><line style="stroke:#181818;stroke-width:1.0;" x1="91" x2="132" y1="990.75" y2="990.75"/><polygon fill="#181818" points="101,986.75,91,990.75,101,994.75,97,990.75" style="stroke:#181818;stroke-width:1.0;"/><text fill="#000000" font-family="sans-serif" font-size="13" font-weight="bold" lengthAdjust="spacing" textLength="18" x="97" y="972.6841">24</text><text fill="#000000" font-family="sans-serif" font-size="13" lengthAdjust="spacing" textLength="182" x="119" y="972.6841">&#28210;&#26579;&#25903;&#20184;&#20108;&#32500;&#30721;&#65292;&#24320;&#22987;&#25903;&#20184;&#27969;&#31243;</text></g></svg>