<?xml version="1.0" encoding="us-ascii" standalone="no"?><svg xmlns="http://www.w3.org/2000/svg" xmlns:xlink="http://www.w3.org/1999/xlink" contentStyleType="text/css" height="780px" preserveAspectRatio="none" style="width:845px;height:780px;background:#FFFFFF;" version="1.1" viewBox="0 0 845 780" width="845px" zoomAndPan="magnify"><defs/><g><rect fill="none" height="424.3359" style="stroke:#000000;stroke-width:1.5;" width="692" x="10" y="257.9609"/><rect fill="none" height="219.7344" style="stroke:#000000;stroke-width:1.5;" width="510.5" x="20" y="411.625"/><line style="stroke:#181818;stroke-width:0.5;stroke-dasharray:5.0,5.0;" x1="47" x2="47" y1="81.2969" y2="699.2969"/><line style="stroke:#181818;stroke-width:0.5;stroke-dasharray:5.0,5.0;" x1="91" x2="91" y1="81.2969" y2="699.2969"/><line style="stroke:#181818;stroke-width:0.5;stroke-dasharray:5.0,5.0;" x1="265.5" x2="265.5" y1="81.2969" y2="699.2969"/><line style="stroke:#181818;stroke-width:0.5;stroke-dasharray:5.0,5.0;" x1="391.5" x2="391.5" y1="81.2969" y2="699.2969"/><line style="stroke:#181818;stroke-width:0.5;stroke-dasharray:5.0,5.0;" x1="619" x2="619" y1="81.2969" y2="699.2969"/><line style="stroke:#181818;stroke-width:0.5;stroke-dasharray:5.0,5.0;" x1="738" x2="738" y1="81.2969" y2="699.2969"/><line style="stroke:#181818;stroke-width:0.5;stroke-dasharray:5.0,5.0;" x1="809" x2="809" y1="81.2969" y2="699.2969"/><text fill="#000000" font-family="sans-serif" font-size="14" lengthAdjust="spacing" textLength="28" x="30" y="77.9951">&#29992;&#25143;</text><ellipse cx="47" cy="13.5" fill="#E2E2F0" rx="8" ry="8" style="stroke:#181818;stroke-width:0.5;"/><path d="M47,21.5 L47,48.5 M34,29.5 L60,29.5 M47,48.5 L34,63.5 M47,48.5 L60,63.5 " fill="none" style="stroke:#181818;stroke-width:0.5;"/><text fill="#000000" font-family="sans-serif" font-size="14" lengthAdjust="spacing" textLength="28" x="30" y="711.292">&#29992;&#25143;</text><ellipse cx="47" cy="723.0938" fill="#E2E2F0" rx="8" ry="8" style="stroke:#181818;stroke-width:0.5;"/><path d="M47,731.0938 L47,758.0938 M34,739.0938 L60,739.0938 M47,758.0938 L34,773.0938 M47,758.0938 L60,773.0938 " fill="none" style="stroke:#181818;stroke-width:0.5;"/><text fill="#000000" font-family="sans-serif" font-size="14" lengthAdjust="spacing" textLength="28" x="74" y="77.9951">&#24179;&#21488;</text><ellipse cx="91" cy="13.5" fill="#E2E2F0" rx="8" ry="8" style="stroke:#181818;stroke-width:0.5;"/><path d="M91,21.5 L91,48.5 M78,29.5 L104,29.5 M91,48.5 L78,63.5 M91,48.5 L104,63.5 " fill="none" style="stroke:#181818;stroke-width:0.5;"/><text fill="#000000" font-family="sans-serif" font-size="14" lengthAdjust="spacing" textLength="28" x="74" y="711.292">&#24179;&#21488;</text><ellipse cx="91" cy="723.0938" fill="#E2E2F0" rx="8" ry="8" style="stroke:#181818;stroke-width:0.5;"/><path d="M91,731.0938 L91,758.0938 M78,739.0938 L104,739.0938 M91,758.0938 L78,773.0938 M91,758.0938 L104,773.0938 " fill="none" style="stroke:#181818;stroke-width:0.5;"/><rect fill="#E2E2F0" height="30.2969" rx="2.5" ry="2.5" style="stroke:#181818;stroke-width:0.5;" width="115" x="208.5" y="50"/><text fill="#000000" font-family="sans-serif" font-size="14" lengthAdjust="spacing" textLength="101" x="215.5" y="69.9951">nft-turbo-trade</text><rect fill="#E2E2F0" height="30.2969" rx="2.5" ry="2.5" style="stroke:#181818;stroke-width:0.5;" width="115" x="208.5" y="698.2969"/><text fill="#000000" font-family="sans-serif" font-size="14" lengthAdjust="spacing" textLength="101" x="215.5" y="718.292">nft-turbo-trade</text><rect fill="#E2E2F0" height="30.2969" rx="2.5" ry="2.5" style="stroke:#181818;stroke-width:0.5;" width="116" x="333.5" y="50"/><text fill="#000000" font-family="sans-serif" font-size="14" lengthAdjust="spacing" textLength="102" x="340.5" y="69.9951">nft-turbo-order</text><rect fill="#E2E2F0" height="30.2969" rx="2.5" ry="2.5" style="stroke:#181818;stroke-width:0.5;" width="116" x="333.5" y="698.2969"/><text fill="#000000" font-family="sans-serif" font-size="14" lengthAdjust="spacing" textLength="102" x="340.5" y="718.292">nft-turbo-order</text><rect fill="#E2E2F0" height="30.2969" rx="2.5" ry="2.5" style="stroke:#181818;stroke-width:0.5;" width="145" x="547" y="50"/><text fill="#000000" font-family="sans-serif" font-size="14" lengthAdjust="spacing" textLength="131" x="554" y="69.9951">nft-turbo-collection</text><rect fill="#E2E2F0" height="30.2969" rx="2.5" ry="2.5" style="stroke:#181818;stroke-width:0.5;" width="145" x="547" y="698.2969"/><text fill="#000000" font-family="sans-serif" font-size="14" lengthAdjust="spacing" textLength="131" x="554" y="718.292">nft-turbo-collection</text><rect fill="#E2E2F0" height="30.2969" rx="2.5" ry="2.5" style="stroke:#181818;stroke-width:0.5;" width="73" x="702" y="50"/><text fill="#000000" font-family="sans-serif" font-size="14" lengthAdjust="spacing" textLength="59" x="709" y="69.9951">roketMQ</text><rect fill="#E2E2F0" height="30.2969" rx="2.5" ry="2.5" style="stroke:#181818;stroke-width:0.5;" width="73" x="702" y="698.2969"/><text fill="#000000" font-family="sans-serif" font-size="14" lengthAdjust="spacing" textLength="59" x="709" y="718.292">roketMQ</text><rect fill="#E2E2F0" height="30.2969" rx="2.5" ry="2.5" style="stroke:#181818;stroke-width:0.5;" width="48" x="785" y="50"/><text fill="#000000" font-family="sans-serif" font-size="14" lengthAdjust="spacing" textLength="34" x="792" y="69.9951">redis</text><rect fill="#E2E2F0" height="30.2969" rx="2.5" ry="2.5" style="stroke:#181818;stroke-width:0.5;" width="48" x="785" y="698.2969"/><text fill="#000000" font-family="sans-serif" font-size="14" lengthAdjust="spacing" textLength="34" x="792" y="718.292">redis</text><rect fill="#EEEEEE" height="3" style="stroke:#EEEEEE;stroke-width:1.0;" width="838" x="0" y="111.8633"/><line style="stroke:#000000;stroke-width:1.0;" x1="0" x2="838" y1="111.8633" y2="111.8633"/><line style="stroke:#000000;stroke-width:1.0;" x1="0" x2="838" y1="114.8633" y2="114.8633"/><rect fill="#EEEEEE" height="23.1328" style="stroke:#000000;stroke-width:2.0;" width="70" x="384" y="101.2969"/><text fill="#000000" font-family="sans-serif" font-size="13" font-weight="bold" lengthAdjust="spacing" textLength="56" x="390" y="117.3638">&#29992;&#25143;&#19979;&#21333;</text><polygon fill="#181818" points="254,151.5625,264,155.5625,254,159.5625,258,155.5625" style="stroke:#181818;stroke-width:1.0;"/><line style="stroke:#181818;stroke-width:1.0;" x1="47" x2="260" y1="155.5625" y2="155.5625"/><text fill="#000000" font-family="sans-serif" font-size="13" lengthAdjust="spacing" textLength="195" x="54" y="150.4966">&#29992;&#25143;&#36827;&#34892;&#19979;&#21333;&#65292;&#35843;&#29992;&#20132;&#26131;&#19979;&#21333;&#25509;&#21475;</text><polygon fill="#181818" points="379.5,180.6953,389.5,184.6953,379.5,188.6953,383.5,184.6953" style="stroke:#181818;stroke-width:1.0;"/><line style="stroke:#181818;stroke-width:1.0;" x1="266" x2="385.5" y1="184.6953" y2="184.6953"/><text fill="#000000" font-family="sans-serif" font-size="13" lengthAdjust="spacing" textLength="52" x="273" y="179.6294">&#21019;&#24314;&#35746;&#21333;</text><polygon fill="#181818" points="607.5,209.8281,617.5,213.8281,607.5,217.8281,611.5,213.8281" style="stroke:#181818;stroke-width:1.0;"/><line style="stroke:#181818;stroke-width:1.0;" x1="391.5" x2="613.5" y1="213.8281" y2="213.8281"/><text fill="#000000" font-family="sans-serif" font-size="13" lengthAdjust="spacing" textLength="65" x="398.5" y="208.7622">&#24211;&#23384;&#39044;&#25187;&#20943;</text><polygon fill="#181818" points="797,238.9609,807,242.9609,797,246.9609,801,242.9609" style="stroke:#181818;stroke-width:1.0;"/><line style="stroke:#181818;stroke-width:1.0;" x1="619.5" x2="803" y1="242.9609" y2="242.9609"/><text fill="#000000" font-family="sans-serif" font-size="13" lengthAdjust="spacing" textLength="149" x="626.5" y="237.895">&#36890;&#36807;lua&#33050;&#26412;&#36827;&#34892;&#25187;&#20943;&#24211;&#23384;</text><path d="M10,257.9609 L74,257.9609 L74,265.0938 L64,275.0938 L10,275.0938 L10,257.9609 " fill="#EEEEEE" style="stroke:#000000;stroke-width:1.5;"/><rect fill="none" height="424.3359" style="stroke:#000000;stroke-width:1.5;" width="692" x="10" y="257.9609"/><text fill="#000000" font-family="sans-serif" font-size="13" font-weight="bold" lengthAdjust="spacing" textLength="19" x="25" y="271.0278">alt</text><text fill="#000000" font-family="sans-serif" font-size="11" font-weight="bold" lengthAdjust="spacing" textLength="97" x="89" y="270.1714">[redis&#39044;&#25187;&#20943;&#25104;&#21151;]</text><line style="stroke:#181818;stroke-width:1.0;" x1="391.5" x2="433.5" y1="296.2266" y2="296.2266"/><line style="stroke:#181818;stroke-width:1.0;" x1="433.5" x2="433.5" y1="296.2266" y2="309.2266"/><line style="stroke:#181818;stroke-width:1.0;" x1="392.5" x2="433.5" y1="309.2266" y2="309.2266"/><polygon fill="#181818" points="402.5,305.2266,392.5,309.2266,402.5,313.2266,398.5,309.2266" style="stroke:#181818;stroke-width:1.0;"/><text fill="#000000" font-family="sans-serif" font-size="13" lengthAdjust="spacing" textLength="85" x="398.5" y="291.1606">&#21019;&#24314;&#35746;&#21333;(INIT)</text><polygon fill="#181818" points="277,334.3594,267,338.3594,277,342.3594,273,338.3594" style="stroke:#181818;stroke-width:1.0;"/><line style="stroke:#181818;stroke-width:1.0;stroke-dasharray:2.0,2.0;" x1="271" x2="390.5" y1="338.3594" y2="338.3594"/><text fill="#000000" font-family="sans-serif" font-size="13" lengthAdjust="spacing" textLength="65" x="283" y="333.2935">&#19979;&#21333;&#22788;&#29702;&#20013;</text><polygon fill="#181818" points="58,363.4922,48,367.4922,58,371.4922,54,367.4922" style="stroke:#181818;stroke-width:1.0;"/><line style="stroke:#181818;stroke-width:1.0;stroke-dasharray:2.0,2.0;" x1="52" x2="265" y1="367.4922" y2="367.4922"/><text fill="#000000" font-family="sans-serif" font-size="13" lengthAdjust="spacing" textLength="65" x="64" y="362.4263">&#35746;&#21333;&#21019;&#24314;&#20013;</text><polygon fill="#181818" points="607.5,392.625,617.5,396.625,607.5,400.625,611.5,396.625" style="stroke:#181818;stroke-width:1.0;"/><line style="stroke:#181818;stroke-width:1.0;" x1="391.5" x2="613.5" y1="396.625" y2="396.625"/><text fill="#000000" font-family="sans-serif" font-size="13" lengthAdjust="spacing" textLength="204" x="398.5" y="391.5591">&#24211;&#23384;&#39044;&#25187;&#20943;try(saleableInventory)</text><path d="M20,411.625 L84,411.625 L84,418.7578 L74,428.7578 L20,428.7578 L20,411.625 " fill="#EEEEEE" style="stroke:#000000;stroke-width:1.5;"/><rect fill="none" height="219.7344" style="stroke:#000000;stroke-width:1.5;" width="510.5" x="20" y="411.625"/><text fill="#000000" font-family="sans-serif" font-size="13" font-weight="bold" lengthAdjust="spacing" textLength="19" x="35" y="424.6919">alt</text><text fill="#000000" font-family="sans-serif" font-size="11" font-weight="bold" lengthAdjust="spacing" textLength="54" x="99" y="423.8354">[&#25187;&#20943;&#25104;&#21151;]</text><line style="stroke:#181818;stroke-width:1.0;" x1="391.5" x2="433.5" y1="449.8906" y2="449.8906"/><line style="stroke:#181818;stroke-width:1.0;" x1="433.5" x2="433.5" y1="449.8906" y2="462.8906"/><line style="stroke:#181818;stroke-width:1.0;" x1="392.5" x2="433.5" y1="462.8906" y2="462.8906"/><polygon fill="#181818" points="402.5,458.8906,392.5,462.8906,402.5,466.8906,398.5,462.8906" style="stroke:#181818;stroke-width:1.0;"/><text fill="#000000" font-family="sans-serif" font-size="13" lengthAdjust="spacing" textLength="120" x="398.5" y="444.8247">&#35746;&#21333;&#30830;&#35748;(CONFIRM)</text><polygon fill="#181818" points="379.5,488.0234,389.5,492.0234,379.5,496.0234,383.5,492.0234" style="stroke:#181818;stroke-width:1.0;"/><line style="stroke:#181818;stroke-width:1.0;" x1="47" x2="385.5" y1="492.0234" y2="492.0234"/><text fill="#000000" font-family="sans-serif" font-size="13" lengthAdjust="spacing" textLength="78" x="54" y="486.9575">&#35746;&#21333;&#29366;&#24577;&#36718;&#35810;</text><polygon fill="#181818" points="58,517.1563,48,521.1563,58,525.1563,54,521.1563" style="stroke:#181818;stroke-width:1.0;"/><line style="stroke:#181818;stroke-width:1.0;stroke-dasharray:2.0,2.0;" x1="52" x2="390.5" y1="521.1563" y2="521.1563"/><text fill="#000000" font-family="sans-serif" font-size="13" lengthAdjust="spacing" textLength="78" x="64" y="516.0903">&#35746;&#21333;&#21019;&#24314;&#25104;&#21151;</text><polygon fill="#181818" points="254,546.2891,264,550.2891,254,554.2891,258,550.2891" style="stroke:#181818;stroke-width:1.0;"/><line style="stroke:#181818;stroke-width:1.0;" x1="47" x2="260" y1="550.2891" y2="550.2891"/><text fill="#000000" font-family="sans-serif" font-size="13" lengthAdjust="spacing" textLength="52" x="54" y="545.2231">&#21457;&#36215;&#25903;&#20184;</text><line style="stroke:#000000;stroke-width:1.0;stroke-dasharray:2.0,2.0;" x1="20" x2="530.5" y1="559.2891" y2="559.2891"/><text fill="#000000" font-family="sans-serif" font-size="11" font-weight="bold" lengthAdjust="spacing" textLength="54" x="25" y="569.4995">[&#25187;&#20943;&#22833;&#36133;]</text><polygon fill="#181818" points="379.5,590.2266,389.5,594.2266,379.5,598.2266,383.5,594.2266" style="stroke:#181818;stroke-width:1.0;"/><line style="stroke:#181818;stroke-width:1.0;" x1="47" x2="385.5" y1="594.2266" y2="594.2266"/><text fill="#000000" font-family="sans-serif" font-size="13" lengthAdjust="spacing" textLength="78" x="54" y="589.1606">&#35746;&#21333;&#29366;&#24577;&#36718;&#35810;</text><polygon fill="#181818" points="58,619.3594,48,623.3594,58,627.3594,54,623.3594" style="stroke:#181818;stroke-width:1.0;"/><line style="stroke:#181818;stroke-width:1.0;stroke-dasharray:2.0,2.0;" x1="52" x2="390.5" y1="623.3594" y2="623.3594"/><text fill="#000000" font-family="sans-serif" font-size="13" lengthAdjust="spacing" textLength="78" x="64" y="618.2935">&#35746;&#21333;&#21019;&#24314;&#22833;&#36133;</text><line style="stroke:#000000;stroke-width:1.0;stroke-dasharray:2.0,2.0;" x1="10" x2="702" y1="639.3594" y2="639.3594"/><text fill="#000000" font-family="sans-serif" font-size="11" font-weight="bold" lengthAdjust="spacing" textLength="86" x="15" y="649.5698">[redis&#25187;&#20943;&#22833;&#36133;]</text><polygon fill="#181818" points="58,670.2969,48,674.2969,58,678.2969,54,674.2969" style="stroke:#181818;stroke-width:1.0;"/><line style="stroke:#181818;stroke-width:1.0;stroke-dasharray:2.0,2.0;" x1="52" x2="390.5" y1="674.2969" y2="674.2969"/><text fill="#000000" font-family="sans-serif" font-size="13" lengthAdjust="spacing" textLength="78" x="64" y="669.231">&#35746;&#21333;&#21019;&#24314;&#22833;&#36133;</text></g></svg>