<?xml version="1.0" encoding="us-ascii" standalone="no"?><svg xmlns="http://www.w3.org/2000/svg" xmlns:xlink="http://www.w3.org/1999/xlink" contentStyleType="text/css" height="559px" preserveAspectRatio="none" style="width:748px;height:559px;background:#FFFFFF;" version="1.1" viewBox="0 0 748 559" width="748px" zoomAndPan="magnify"><defs/><g><rect fill="none" height="46.2656" style="stroke:#000000;stroke-width:1.5;" width="327.5" x="84" y="140.6953"/><line style="stroke:#181818;stroke-width:0.5;stroke-dasharray:5.0,5.0;" x1="26" x2="26" y1="36.2969" y2="524.1563"/><line style="stroke:#181818;stroke-width:0.5;stroke-dasharray:5.0,5.0;" x1="115" x2="115" y1="36.2969" y2="524.1563"/><line style="stroke:#181818;stroke-width:0.5;stroke-dasharray:5.0,5.0;" x1="338.5" x2="338.5" y1="36.2969" y2="524.1563"/><line style="stroke:#181818;stroke-width:0.5;stroke-dasharray:5.0,5.0;" x1="478" x2="478" y1="36.2969" y2="524.1563"/><line style="stroke:#181818;stroke-width:0.5;stroke-dasharray:5.0,5.0;" x1="564" x2="564" y1="36.2969" y2="524.1563"/><line style="stroke:#181818;stroke-width:0.5;stroke-dasharray:5.0,5.0;" x1="715" x2="715" y1="36.2969" y2="524.1563"/><rect fill="#E2E2F0" height="30.2969" rx="2.5" ry="2.5" style="stroke:#181818;stroke-width:0.5;" width="42" x="5" y="5"/><text fill="#000000" font-family="sans-serif" font-size="14" lengthAdjust="spacing" textLength="28" x="12" y="24.9951">&#29992;&#25143;</text><rect fill="#E2E2F0" height="30.2969" rx="2.5" ry="2.5" style="stroke:#181818;stroke-width:0.5;" width="42" x="5" y="523.1563"/><text fill="#000000" font-family="sans-serif" font-size="14" lengthAdjust="spacing" textLength="28" x="12" y="543.1514">&#29992;&#25143;</text><rect fill="#E2E2F0" height="30.2969" rx="2.5" ry="2.5" style="stroke:#181818;stroke-width:0.5;" width="42" x="94" y="5"/><text fill="#000000" font-family="sans-serif" font-size="14" lengthAdjust="spacing" textLength="28" x="101" y="24.9951">&#21069;&#31471;</text><rect fill="#E2E2F0" height="30.2969" rx="2.5" ry="2.5" style="stroke:#181818;stroke-width:0.5;" width="42" x="94" y="523.1563"/><text fill="#000000" font-family="sans-serif" font-size="14" lengthAdjust="spacing" textLength="28" x="101" y="543.1514">&#21069;&#31471;</text><rect fill="#E2E2F0" height="30.2969" rx="2.5" ry="2.5" style="stroke:#181818;stroke-width:0.5;" width="125" x="276.5" y="5"/><text fill="#000000" font-family="sans-serif" font-size="14" lengthAdjust="spacing" textLength="111" x="283.5" y="24.9951">TokenController</text><rect fill="#E2E2F0" height="30.2969" rx="2.5" ry="2.5" style="stroke:#181818;stroke-width:0.5;" width="125" x="276.5" y="523.1563"/><text fill="#000000" font-family="sans-serif" font-size="14" lengthAdjust="spacing" textLength="111" x="283.5" y="543.1514">TokenController</text><rect fill="#E2E2F0" height="30.2969" rx="2.5" ry="2.5" style="stroke:#181818;stroke-width:0.5;" width="74" x="441" y="5"/><text fill="#000000" font-family="sans-serif" font-size="14" lengthAdjust="spacing" textLength="60" x="448" y="24.9951">saToken</text><rect fill="#E2E2F0" height="30.2969" rx="2.5" ry="2.5" style="stroke:#181818;stroke-width:0.5;" width="74" x="441" y="523.1563"/><text fill="#000000" font-family="sans-serif" font-size="14" lengthAdjust="spacing" textLength="60" x="448" y="543.1514">saToken</text><rect fill="#E2E2F0" height="30.2969" rx="2.5" ry="2.5" style="stroke:#181818;stroke-width:0.5;" width="79" x="525" y="5"/><text fill="#000000" font-family="sans-serif" font-size="14" lengthAdjust="spacing" textLength="65" x="532" y="24.9951">TokenUtil</text><rect fill="#E2E2F0" height="30.2969" rx="2.5" ry="2.5" style="stroke:#181818;stroke-width:0.5;" width="79" x="525" y="523.1563"/><text fill="#000000" font-family="sans-serif" font-size="14" lengthAdjust="spacing" textLength="65" x="532" y="543.1514">TokenUtil</text><rect fill="#E2E2F0" height="30.2969" rx="2.5" ry="2.5" style="stroke:#181818;stroke-width:0.5;" width="53" x="689" y="5"/><text fill="#000000" font-family="sans-serif" font-size="14" lengthAdjust="spacing" textLength="39" x="696" y="24.9951">Redis</text><rect fill="#E2E2F0" height="30.2969" rx="2.5" ry="2.5" style="stroke:#181818;stroke-width:0.5;" width="53" x="689" y="523.1563"/><text fill="#000000" font-family="sans-serif" font-size="14" lengthAdjust="spacing" textLength="39" x="696" y="543.1514">Redis</text><polygon fill="#181818" points="103,63.4297,113,67.4297,103,71.4297,107,67.4297" style="stroke:#181818;stroke-width:1.0;"/><line style="stroke:#181818;stroke-width:1.0;" x1="26" x2="109" y1="67.4297" y2="67.4297"/><text fill="#000000" font-family="sans-serif" font-size="13" font-weight="bold" lengthAdjust="spacing" textLength="9" x="33" y="62.3638">1</text><text fill="#000000" font-family="sans-serif" font-size="13" lengthAdjust="spacing" textLength="52" x="46" y="62.3638">&#19979;&#21333;&#39029;&#38754;</text><polygon fill="#181818" points="327,92.5625,337,96.5625,327,100.5625,331,96.5625" style="stroke:#181818;stroke-width:1.0;"/><line style="stroke:#181818;stroke-width:1.0;" x1="115" x2="333" y1="96.5625" y2="96.5625"/><text fill="#000000" font-family="sans-serif" font-size="13" font-weight="bold" lengthAdjust="spacing" textLength="9" x="122" y="91.4966">2</text><text fill="#000000" font-family="sans-serif" font-size="13" lengthAdjust="spacing" textLength="187" x="135" y="91.4966">&#33719;&#21462;token&#65288;&#25658;&#24102;scene&#21644;key&#65289;</text><polygon fill="#181818" points="466,121.6953,476,125.6953,466,129.6953,470,125.6953" style="stroke:#181818;stroke-width:1.0;"/><line style="stroke:#181818;stroke-width:1.0;" x1="339" x2="472" y1="125.6953" y2="125.6953"/><text fill="#000000" font-family="sans-serif" font-size="13" font-weight="bold" lengthAdjust="spacing" textLength="9" x="346" y="120.6294">3</text><text fill="#000000" font-family="sans-serif" font-size="13" lengthAdjust="spacing" textLength="78" x="359" y="120.6294">&#33719;&#21462;&#30331;&#24405;&#29366;&#24577;</text><path d="M84,140.6953 L148,140.6953 L148,147.8281 L138,157.8281 L84,157.8281 L84,140.6953 " fill="#EEEEEE" style="stroke:#000000;stroke-width:1.5;"/><rect fill="none" height="46.2656" style="stroke:#000000;stroke-width:1.5;" width="327.5" x="84" y="140.6953"/><text fill="#000000" font-family="sans-serif" font-size="13" font-weight="bold" lengthAdjust="spacing" textLength="19" x="99" y="153.7622">alt</text><text fill="#000000" font-family="sans-serif" font-size="11" font-weight="bold" lengthAdjust="spacing" textLength="43" x="163" y="152.9058">[&#26410;&#30331;&#24405;]</text><polygon fill="#181818" points="126,174.9609,116,178.9609,126,182.9609,122,178.9609" style="stroke:#181818;stroke-width:1.0;"/><line style="stroke:#181818;stroke-width:1.0;" x1="120" x2="338" y1="178.9609" y2="178.9609"/><text fill="#000000" font-family="sans-serif" font-size="13" font-weight="bold" lengthAdjust="spacing" textLength="9" x="132" y="173.895">4</text><text fill="#000000" font-family="sans-serif" font-size="13" lengthAdjust="spacing" textLength="88" x="145" y="173.895">&#33719;&#21462;token&#22833;&#36133;</text><polygon fill="#181818" points="466,211.0938,476,215.0938,466,219.0938,470,215.0938" style="stroke:#181818;stroke-width:1.0;"/><line style="stroke:#181818;stroke-width:1.0;" x1="339" x2="472" y1="215.0938" y2="215.0938"/><text fill="#000000" font-family="sans-serif" font-size="13" font-weight="bold" lengthAdjust="spacing" textLength="9" x="346" y="210.0278">5</text><text fill="#000000" font-family="sans-serif" font-size="13" lengthAdjust="spacing" textLength="102" x="359" y="210.0278">&#33719;&#21462;&#30331;&#24405;&#30340;&#29992;&#25143;id</text><line style="stroke:#181818;stroke-width:1.0;" x1="339" x2="381" y1="244.2266" y2="244.2266"/><line style="stroke:#181818;stroke-width:1.0;" x1="381" x2="381" y1="244.2266" y2="257.2266"/><line style="stroke:#181818;stroke-width:1.0;" x1="340" x2="381" y1="257.2266" y2="257.2266"/><polygon fill="#181818" points="350,253.2266,340,257.2266,350,261.2266,346,257.2266" style="stroke:#181818;stroke-width:1.0;"/><text fill="#000000" font-family="sans-serif" font-size="13" font-weight="bold" lengthAdjust="spacing" textLength="9" x="346" y="239.1606">6</text><text fill="#000000" font-family="sans-serif" font-size="13" lengthAdjust="spacing" textLength="111" x="359" y="239.1606">&#29983;&#25104;&#19968;&#20010;tokenKey</text><path d="M123,231.5938 L123,256.5938 L334,256.5938 L334,241.5938 L324,231.5938 L123,231.5938 " fill="#FEFFDD" style="stroke:#181818;stroke-width:0.5;"/><path d="M324,231.5938 L324,241.5938 L334,241.5938 L324,231.5938 " fill="#FEFFDD" style="stroke:#181818;stroke-width:0.5;"/><text fill="#000000" font-family="sans-serif" font-size="13" lengthAdjust="spacing" textLength="190" x="129" y="248.6606">&#30001;scene&#12289;userId&#12289;key&#25340;&#25509;&#32780;&#25104;</text><polygon fill="#181818" points="552.5,282.3594,562.5,286.3594,552.5,290.3594,556.5,286.3594" style="stroke:#181818;stroke-width:1.0;"/><line style="stroke:#181818;stroke-width:1.0;" x1="339" x2="558.5" y1="286.3594" y2="286.3594"/><text fill="#000000" font-family="sans-serif" font-size="13" font-weight="bold" lengthAdjust="spacing" textLength="9" x="346" y="281.2935">7</text><text fill="#000000" font-family="sans-serif" font-size="13" lengthAdjust="spacing" textLength="98" x="359" y="281.2935">&#33719;&#21462;tokenValue</text><line style="stroke:#181818;stroke-width:1.0;" x1="564.5" x2="606.5" y1="315.4922" y2="315.4922"/><line style="stroke:#181818;stroke-width:1.0;" x1="606.5" x2="606.5" y1="315.4922" y2="328.4922"/><line style="stroke:#181818;stroke-width:1.0;" x1="565.5" x2="606.5" y1="328.4922" y2="328.4922"/><polygon fill="#181818" points="575.5,324.4922,565.5,328.4922,575.5,332.4922,571.5,328.4922" style="stroke:#181818;stroke-width:1.0;"/><text fill="#000000" font-family="sans-serif" font-size="13" font-weight="bold" lengthAdjust="spacing" textLength="9" x="571.5" y="310.4263">8</text><text fill="#000000" font-family="sans-serif" font-size="13" lengthAdjust="spacing" textLength="79" x="584.5" y="310.4263">&#29983;&#25104;&#19968;&#20010;uuid</text><line style="stroke:#181818;stroke-width:1.0;" x1="564.5" x2="606.5" y1="357.625" y2="357.625"/><line style="stroke:#181818;stroke-width:1.0;" x1="606.5" x2="606.5" y1="357.625" y2="370.625"/><line style="stroke:#181818;stroke-width:1.0;" x1="565.5" x2="606.5" y1="370.625" y2="370.625"/><polygon fill="#181818" points="575.5,366.625,565.5,370.625,575.5,374.625,571.5,370.625" style="stroke:#181818;stroke-width:1.0;"/><text fill="#000000" font-family="sans-serif" font-size="13" font-weight="bold" lengthAdjust="spacing" textLength="9" x="571.5" y="352.5591">9</text><text fill="#000000" font-family="sans-serif" font-size="13" lengthAdjust="spacing" textLength="124" x="584.5" y="352.5591">&#29983;&#25104;&#19968;&#20010;tokenValue</text><path d="M308,344.9922 L308,369.9922 L559,369.9922 L559,354.9922 L549,344.9922 L308,344.9922 " fill="#FEFFDD" style="stroke:#181818;stroke-width:0.5;"/><path d="M549,344.9922 L549,354.9922 L559,354.9922 L549,344.9922 " fill="#FEFFDD" style="stroke:#181818;stroke-width:0.5;"/><text fill="#000000" font-family="sans-serif" font-size="13" lengthAdjust="spacing" textLength="230" x="314" y="362.0591">&#30001;scene&#12289;userId&#12289;key&#12289;uuid&#25340;&#25509;&#32780;&#25104;</text><line style="stroke:#181818;stroke-width:1.0;" x1="564.5" x2="606.5" y1="399.7578" y2="399.7578"/><line style="stroke:#181818;stroke-width:1.0;" x1="606.5" x2="606.5" y1="399.7578" y2="412.7578"/><line style="stroke:#181818;stroke-width:1.0;" x1="565.5" x2="606.5" y1="412.7578" y2="412.7578"/><polygon fill="#181818" points="575.5,408.7578,565.5,412.7578,575.5,416.7578,571.5,412.7578" style="stroke:#181818;stroke-width:1.0;"/><text fill="#000000" font-family="sans-serif" font-size="13" font-weight="bold" lengthAdjust="spacing" textLength="18" x="571.5" y="394.6919">10</text><text fill="#000000" font-family="sans-serif" font-size="13" lengthAdjust="spacing" textLength="111" x="593.5" y="394.6919">&#23545;tokenValue&#21152;&#23494;</text><polygon fill="#181818" points="350,437.8906,340,441.8906,350,445.8906,346,441.8906" style="stroke:#181818;stroke-width:1.0;"/><line style="stroke:#181818;stroke-width:1.0;" x1="344" x2="563.5" y1="441.8906" y2="441.8906"/><text fill="#000000" font-family="sans-serif" font-size="13" font-weight="bold" lengthAdjust="spacing" textLength="18" x="356" y="436.8247">11</text><text fill="#000000" font-family="sans-serif" font-size="13" lengthAdjust="spacing" textLength="150" x="378" y="436.8247">&#36820;&#22238;&#21152;&#23494;&#21518;&#30340;tokenValue</text><polygon fill="#181818" points="703.5,470.0234,713.5,474.0234,703.5,478.0234,707.5,474.0234" style="stroke:#181818;stroke-width:1.0;"/><line style="stroke:#181818;stroke-width:1.0;" x1="339" x2="709.5" y1="474.0234" y2="474.0234"/><text fill="#000000" font-family="sans-serif" font-size="13" font-weight="bold" lengthAdjust="spacing" textLength="18" x="346" y="468.9575">12</text><text fill="#000000" font-family="sans-serif" font-size="13" lengthAdjust="spacing" textLength="172" x="368" y="468.9575">&#20445;&#23384;TokenKey&#21644;tokenValue</text><path d="M33,454.8906 L33,479.8906 L334,479.8906 L334,464.8906 L324,454.8906 L33,454.8906 " fill="#FEFFDD" style="stroke:#181818;stroke-width:0.5;"/><path d="M324,454.8906 L324,464.8906 L334,464.8906 L324,454.8906 " fill="#FEFFDD" style="stroke:#181818;stroke-width:0.5;"/><text fill="#000000" font-family="sans-serif" font-size="13" lengthAdjust="spacing" textLength="280" x="39" y="471.9575">key&#26159;tokenKey&#65292;Value&#26159;&#21152;&#23494;&#21518;&#30340;tokenValue</text><polygon fill="#181818" points="126,502.1563,116,506.1563,126,510.1563,122,506.1563" style="stroke:#181818;stroke-width:1.0;"/><line style="stroke:#181818;stroke-width:1.0;" x1="120" x2="338" y1="506.1563" y2="506.1563"/><text fill="#000000" font-family="sans-serif" font-size="13" font-weight="bold" lengthAdjust="spacing" textLength="18" x="132" y="501.0903">13</text><text fill="#000000" font-family="sans-serif" font-size="13" lengthAdjust="spacing" textLength="98" x="154" y="501.0903">&#36820;&#22238;tokenValue</text></g></svg>