<?xml version="1.0" encoding="us-ascii" standalone="no"?><svg xmlns="http://www.w3.org/2000/svg" xmlns:xlink="http://www.w3.org/1999/xlink" contentStyleType="text/css" height="234px" preserveAspectRatio="none" style="width:382px;height:234px;background:#FFFFFF;" version="1.1" viewBox="0 0 382 234" width="382px" zoomAndPan="magnify"><defs/><g><line style="stroke:#181818;stroke-width:0.5;stroke-dasharray:5.0,5.0;" x1="27" x2="27" y1="36.2969" y2="198.8281"/><line style="stroke:#181818;stroke-width:0.5;stroke-dasharray:5.0,5.0;" x1="127" x2="127" y1="36.2969" y2="198.8281"/><line style="stroke:#181818;stroke-width:0.5;stroke-dasharray:5.0,5.0;" x1="251" x2="251" y1="36.2969" y2="198.8281"/><rect fill="#E2E2F0" height="30.2969" rx="2.5" ry="2.5" style="stroke:#181818;stroke-width:0.5;" width="45" x="5" y="5"/><text fill="#000000" font-family="sans-serif" font-size="14" lengthAdjust="spacing" textLength="31" x="12" y="24.9951">user</text><rect fill="#E2E2F0" height="30.2969" rx="2.5" ry="2.5" style="stroke:#181818;stroke-width:0.5;" width="45" x="5" y="197.8281"/><text fill="#000000" font-family="sans-serif" font-size="14" lengthAdjust="spacing" textLength="31" x="12" y="217.8232">user</text><rect fill="#E2E2F0" height="30.2969" rx="2.5" ry="2.5" style="stroke:#181818;stroke-width:0.5;" width="119" x="68" y="5"/><text fill="#000000" font-family="sans-serif" font-size="14" lengthAdjust="spacing" textLength="105" x="75" y="24.9951">nft_turbo_trade</text><rect fill="#E2E2F0" height="30.2969" rx="2.5" ry="2.5" style="stroke:#181818;stroke-width:0.5;" width="119" x="68" y="197.8281"/><text fill="#000000" font-family="sans-serif" font-size="14" lengthAdjust="spacing" textLength="105" x="75" y="217.8232">nft_turbo_trade</text><rect fill="#E2E2F0" height="30.2969" rx="2.5" ry="2.5" style="stroke:#181818;stroke-width:0.5;" width="108" x="197" y="5"/><text fill="#000000" font-family="sans-serif" font-size="14" lengthAdjust="spacing" textLength="94" x="204" y="24.9951">nft_turbo_box</text><rect fill="#E2E2F0" height="30.2969" rx="2.5" ry="2.5" style="stroke:#181818;stroke-width:0.5;" width="108" x="197" y="197.8281"/><text fill="#000000" font-family="sans-serif" font-size="14" lengthAdjust="spacing" textLength="94" x="204" y="217.8232">nft_turbo_box</text><polygon fill="#181818" points="115.5,63.4297,125.5,67.4297,115.5,71.4297,119.5,67.4297" style="stroke:#181818;stroke-width:1.0;"/><line style="stroke:#181818;stroke-width:1.0;" x1="27.5" x2="121.5" y1="67.4297" y2="67.4297"/><text fill="#000000" font-family="sans-serif" font-size="13" lengthAdjust="spacing" textLength="76" x="34.5" y="62.3638">buy/newBuy</text><polygon fill="#181818" points="239,92.5625,249,96.5625,239,100.5625,243,96.5625" style="stroke:#181818;stroke-width:1.0;"/><line style="stroke:#181818;stroke-width:1.0;" x1="127.5" x2="245" y1="96.5625" y2="96.5625"/><text fill="#000000" font-family="sans-serif" font-size="13" lengthAdjust="spacing" textLength="50" x="134.5" y="91.4966">try_sale</text><line style="stroke:#181818;stroke-width:1.0;" x1="251" x2="293" y1="125.6953" y2="125.6953"/><line style="stroke:#181818;stroke-width:1.0;" x1="293" x2="293" y1="125.6953" y2="138.6953"/><line style="stroke:#181818;stroke-width:1.0;" x1="252" x2="293" y1="138.6953" y2="138.6953"/><polygon fill="#181818" points="262,134.6953,252,138.6953,262,142.6953,258,138.6953" style="stroke:#181818;stroke-width:1.0;"/><text fill="#000000" font-family="sans-serif" font-size="13" lengthAdjust="spacing" textLength="91" x="258" y="120.6294">&#30450;&#30418;&#24211;&#23384;&#39044;&#25187;&#20943;</text><line style="stroke:#181818;stroke-width:1.0;" x1="251" x2="293" y1="167.8281" y2="167.8281"/><line style="stroke:#181818;stroke-width:1.0;" x1="293" x2="293" y1="167.8281" y2="180.8281"/><line style="stroke:#181818;stroke-width:1.0;" x1="252" x2="293" y1="180.8281" y2="180.8281"/><polygon fill="#181818" points="262,176.8281,252,180.8281,262,184.8281,258,180.8281" style="stroke:#181818;stroke-width:1.0;"/><text fill="#000000" font-family="sans-serif" font-size="13" lengthAdjust="spacing" textLength="117" x="258" y="162.7622">&#22686;&#21152;&#24211;&#23384;&#39044;&#25187;&#20943;&#27969;&#27700;</text></g></svg>