<?xml version="1.0" encoding="us-ascii" standalone="no"?><svg xmlns="http://www.w3.org/2000/svg" xmlns:xlink="http://www.w3.org/1999/xlink" contentStyleType="text/css" height="459px" preserveAspectRatio="none" style="width:805px;height:459px;background:#FFFFFF;" version="1.1" viewBox="0 0 805 459" width="805px" zoomAndPan="magnify"><defs/><g><line style="stroke:#181818;stroke-width:0.5;stroke-dasharray:5.0,5.0;" x1="26" x2="26" y1="36.2969" y2="424.625"/><line style="stroke:#181818;stroke-width:0.5;stroke-dasharray:5.0,5.0;" x1="205" x2="205" y1="36.2969" y2="424.625"/><line style="stroke:#181818;stroke-width:0.5;stroke-dasharray:5.0,5.0;" x1="412" x2="412" y1="36.2969" y2="424.625"/><line style="stroke:#181818;stroke-width:0.5;stroke-dasharray:5.0,5.0;" x1="556" x2="556" y1="36.2969" y2="424.625"/><rect fill="#E2E2F0" height="30.2969" rx="2.5" ry="2.5" style="stroke:#181818;stroke-width:0.5;" width="42" x="5" y="5"/><text fill="#000000" font-family="sans-serif" font-size="14" lengthAdjust="spacing" textLength="28" x="12" y="24.9951">&#29992;&#25143;</text><rect fill="#E2E2F0" height="30.2969" rx="2.5" ry="2.5" style="stroke:#181818;stroke-width:0.5;" width="42" x="5" y="423.625"/><text fill="#000000" font-family="sans-serif" font-size="14" lengthAdjust="spacing" textLength="28" x="12" y="443.6201">&#29992;&#25143;</text><rect fill="#E2E2F0" height="30.2969" rx="2.5" ry="2.5" style="stroke:#181818;stroke-width:0.5;" width="108" x="151" y="5"/><text fill="#000000" font-family="sans-serif" font-size="14" lengthAdjust="spacing" textLength="94" x="158" y="24.9951">nft_turbo_box</text><rect fill="#E2E2F0" height="30.2969" rx="2.5" ry="2.5" style="stroke:#181818;stroke-width:0.5;" width="108" x="151" y="423.625"/><text fill="#000000" font-family="sans-serif" font-size="14" lengthAdjust="spacing" textLength="94" x="158" y="443.6201">nft_turbo_box</text><rect fill="#E2E2F0" height="30.2969" rx="2.5" ry="2.5" style="stroke:#181818;stroke-width:0.5;" width="120" x="352" y="5"/><text fill="#000000" font-family="sans-serif" font-size="14" lengthAdjust="spacing" textLength="106" x="359" y="24.9951">nft_turbo_chain</text><rect fill="#E2E2F0" height="30.2969" rx="2.5" ry="2.5" style="stroke:#181818;stroke-width:0.5;" width="120" x="352" y="423.625"/><text fill="#000000" font-family="sans-serif" font-size="14" lengthAdjust="spacing" textLength="106" x="359" y="443.6201">nft_turbo_chain</text><rect fill="#E2E2F0" height="30.2969" rx="2.5" ry="2.5" style="stroke:#181818;stroke-width:0.5;" width="149" x="482" y="5"/><text fill="#000000" font-family="sans-serif" font-size="14" lengthAdjust="spacing" textLength="135" x="489" y="24.9951">nft_turbo_collection</text><rect fill="#E2E2F0" height="30.2969" rx="2.5" ry="2.5" style="stroke:#181818;stroke-width:0.5;" width="149" x="482" y="423.625"/><text fill="#000000" font-family="sans-serif" font-size="14" lengthAdjust="spacing" textLength="135" x="489" y="443.6201">nft_turbo_collection</text><polygon fill="#181818" points="193,63.4297,203,67.4297,193,71.4297,197,67.4297" style="stroke:#181818;stroke-width:1.0;"/><line style="stroke:#181818;stroke-width:1.0;" x1="26" x2="199" y1="67.4297" y2="67.4297"/><text fill="#000000" font-family="sans-serif" font-size="13" lengthAdjust="spacing" textLength="52" x="33" y="62.3638">&#26597;&#35810;&#30450;&#30418;</text><polygon fill="#181818" points="37,95.5625,27,99.5625,37,103.5625,33,99.5625" style="stroke:#181818;stroke-width:1.0;"/><line style="stroke:#181818;stroke-width:1.0;stroke-dasharray:2.0,2.0;" x1="31" x2="204" y1="99.5625" y2="99.5625"/><text fill="#000000" font-family="sans-serif" font-size="13" lengthAdjust="spacing" textLength="155" x="43" y="94.4966">&#30450;&#30418;&#20449;&#24687;&#65288;box_item_id&#65289;</text><path d="M210,80.4297 L210,105.4297 L433,105.4297 L433,90.4297 L423,80.4297 L210,80.4297 " fill="#FEFFDD" style="stroke:#181818;stroke-width:0.5;"/><path d="M423,80.4297 L423,90.4297 L433,90.4297 L423,80.4297 " fill="#FEFFDD" style="stroke:#181818;stroke-width:0.5;"/><text fill="#000000" font-family="sans-serif" font-size="13" lengthAdjust="spacing" textLength="202" x="216" y="97.4966">&#21516;&#26102;&#24102;&#19978; box_item_id &#36820;&#22238;&#32473;&#21069;&#31471;</text><polygon fill="#181818" points="193,130.6953,203,134.6953,193,138.6953,197,134.6953" style="stroke:#181818;stroke-width:1.0;"/><line style="stroke:#181818;stroke-width:1.0;" x1="26" x2="199" y1="134.6953" y2="134.6953"/><text fill="#000000" font-family="sans-serif" font-size="13" lengthAdjust="spacing" textLength="155" x="33" y="129.6294">&#25171;&#24320;&#30450;&#30418;&#65288;box_item_id&#65289;</text><path d="M210,115.5625 L210,140.5625 L433,140.5625 L433,125.5625 L423,115.5625 L210,115.5625 " fill="#FEFFDD" style="stroke:#181818;stroke-width:0.5;"/><path d="M423,115.5625 L423,125.5625 L433,125.5625 L423,115.5625 " fill="#FEFFDD" style="stroke:#181818;stroke-width:0.5;"/><text fill="#000000" font-family="sans-serif" font-size="13" lengthAdjust="spacing" textLength="202" x="216" y="132.6294">&#21516;&#26102;&#24102;&#19978; box_item_id &#36820;&#22238;&#32473;&#21518;&#31471;</text><line style="stroke:#181818;stroke-width:1.0;" x1="205" x2="247" y1="166.8281" y2="166.8281"/><line style="stroke:#181818;stroke-width:1.0;" x1="247" x2="247" y1="166.8281" y2="179.8281"/><line style="stroke:#181818;stroke-width:1.0;" x1="206" x2="247" y1="179.8281" y2="179.8281"/><polygon fill="#181818" points="216,175.8281,206,179.8281,216,183.8281,212,179.8281" style="stroke:#181818;stroke-width:1.0;"/><text fill="#000000" font-family="sans-serif" font-size="13" lengthAdjust="spacing" textLength="52" x="212" y="161.7622">&#26435;&#38480;&#26657;&#39564;</text><line style="stroke:#181818;stroke-width:1.0;" x1="205" x2="247" y1="208.9609" y2="208.9609"/><line style="stroke:#181818;stroke-width:1.0;" x1="247" x2="247" y1="208.9609" y2="221.9609"/><line style="stroke:#181818;stroke-width:1.0;" x1="206" x2="247" y1="221.9609" y2="221.9609"/><polygon fill="#181818" points="216,217.9609,206,221.9609,216,225.9609,212,221.9609" style="stroke:#181818;stroke-width:1.0;"/><text fill="#000000" font-family="sans-serif" font-size="13" lengthAdjust="spacing" textLength="189" x="212" y="203.895">&#26356;&#26032;&#30450;&#30418;&#26465;&#30446;&#29366;&#24577;&#65288;OPENING&#65289;</text><line style="stroke:#181818;stroke-width:1.0;" x1="205" x2="247" y1="251.0938" y2="251.0938"/><line style="stroke:#181818;stroke-width:1.0;" x1="247" x2="247" y1="251.0938" y2="264.0938"/><line style="stroke:#181818;stroke-width:1.0;" x1="206" x2="247" y1="264.0938" y2="264.0938"/><polygon fill="#181818" points="216,260.0938,206,264.0938,216,268.0938,212,264.0938" style="stroke:#181818;stroke-width:1.0;"/><text fill="#000000" font-family="sans-serif" font-size="13" lengthAdjust="spacing" textLength="173" x="212" y="246.0278">&#21019;&#24314; held_collection&#65288;INIT&#65289;</text><path d="M397,238.4609 L397,263.4609 L561,263.4609 L561,248.4609 L551,238.4609 L397,238.4609 " fill="#FEFFDD" style="stroke:#181818;stroke-width:0.5;"/><path d="M551,238.4609 L551,248.4609 L561,248.4609 L551,238.4609 " fill="#FEFFDD" style="stroke:#181818;stroke-width:0.5;"/><text fill="#000000" font-family="sans-serif" font-size="13" lengthAdjust="spacing" textLength="143" x="403" y="255.5278">&#36825;&#37324;&#38752;&#30340;&#26159;&#24322;&#27493;&#20107;&#20214;&#39537;&#21160;</text><polygon fill="#181818" points="400,289.2266,410,293.2266,400,297.2266,404,293.2266" style="stroke:#181818;stroke-width:1.0;"/><line style="stroke:#181818;stroke-width:1.0;" x1="205" x2="406" y1="293.2266" y2="293.2266"/><text fill="#000000" font-family="sans-serif" font-size="13" lengthAdjust="spacing" textLength="26" x="212" y="288.1606">&#19978;&#38142;</text><line style="stroke:#181818;stroke-width:1.0;" x1="205" x2="247" y1="322.3594" y2="322.3594"/><line style="stroke:#181818;stroke-width:1.0;" x1="247" x2="247" y1="322.3594" y2="335.3594"/><line style="stroke:#181818;stroke-width:1.0;" x1="206" x2="247" y1="335.3594" y2="335.3594"/><polygon fill="#181818" points="216,331.3594,206,335.3594,216,339.3594,212,335.3594" style="stroke:#181818;stroke-width:1.0;"/><text fill="#000000" font-family="sans-serif" font-size="13" lengthAdjust="spacing" textLength="193" x="212" y="317.2935">&#26356;&#26032;&#30450;&#30418;&#26465;&#30446;&#29366;&#24577;&#65288;SUCCESS&#65289;</text><polygon fill="#181818" points="544.5,360.4922,554.5,364.4922,544.5,368.4922,548.5,364.4922" style="stroke:#181818;stroke-width:1.0;"/><line style="stroke:#181818;stroke-width:1.0;stroke-dasharray:2.0,2.0;" x1="412" x2="550.5" y1="364.4922" y2="364.4922"/><text fill="#000000" font-family="sans-serif" font-size="13" lengthAdjust="spacing" textLength="52" x="419" y="359.4263">&#19978;&#38142;&#25104;&#21151;</text><line style="stroke:#181818;stroke-width:1.0;stroke-dasharray:2.0,2.0;" x1="556.5" x2="598.5" y1="393.625" y2="393.625"/><line style="stroke:#181818;stroke-width:1.0;stroke-dasharray:2.0,2.0;" x1="598.5" x2="598.5" y1="393.625" y2="406.625"/><line style="stroke:#181818;stroke-width:1.0;stroke-dasharray:2.0,2.0;" x1="557.5" x2="598.5" y1="406.625" y2="406.625"/><polygon fill="#181818" points="567.5,402.625,557.5,406.625,567.5,410.625,563.5,406.625" style="stroke:#181818;stroke-width:1.0;"/><text fill="#000000" font-family="sans-serif" font-size="13" lengthAdjust="spacing" textLength="235" x="563.5" y="388.5591">&#26356;&#26032; held_collection &#29366;&#24577;&#65288;ACTIVED&#65289;</text></g></svg>