<?xml version="1.0" encoding="us-ascii" standalone="no"?><svg xmlns="http://www.w3.org/2000/svg" xmlns:xlink="http://www.w3.org/1999/xlink" contentStyleType="text/css" height="663px" preserveAspectRatio="none" style="width:880px;height:663px;background:#FFFFFF;" version="1.1" viewBox="0 0 880 663" width="880px" zoomAndPan="magnify"><defs/><g><rect fill="none" height="399.0078" style="stroke:#000000;stroke-width:1.5;" width="576.5" x="297" y="211.9609"/><rect fill="none" height="252.6719" style="stroke:#000000;stroke-width:1.5;" width="556.5" x="307" y="351.2969"/><rect fill="none" height="177.6016" style="stroke:#000000;stroke-width:1.5;" width="536.5" x="317" y="419.3672"/><line style="stroke:#181818;stroke-width:0.5;stroke-dasharray:5.0,5.0;" x1="33" x2="33" y1="36.2969" y2="627.9688"/><line style="stroke:#181818;stroke-width:0.5;stroke-dasharray:5.0,5.0;" x1="265" x2="265" y1="36.2969" y2="627.9688"/><line style="stroke:#181818;stroke-width:0.5;stroke-dasharray:5.0,5.0;" x1="379" x2="379" y1="36.2969" y2="627.9688"/><line style="stroke:#181818;stroke-width:0.5;stroke-dasharray:5.0,5.0;" x1="562.5" x2="562.5" y1="36.2969" y2="627.9688"/><line style="stroke:#181818;stroke-width:0.5;stroke-dasharray:5.0,5.0;" x1="686.5" x2="686.5" y1="36.2969" y2="627.9688"/><line style="stroke:#181818;stroke-width:0.5;stroke-dasharray:5.0,5.0;" x1="755.5" x2="755.5" y1="36.2969" y2="627.9688"/><line style="stroke:#181818;stroke-width:0.5;stroke-dasharray:5.0,5.0;" x1="816.5" x2="816.5" y1="36.2969" y2="627.9688"/><rect fill="#E2E2F0" height="30.2969" rx="2.5" ry="2.5" style="stroke:#181818;stroke-width:0.5;" width="56" x="5" y="5"/><text fill="#000000" font-family="sans-serif" font-size="14" lengthAdjust="spacing" textLength="42" x="12" y="24.9951">&#31649;&#29702;&#21592;</text><rect fill="#E2E2F0" height="30.2969" rx="2.5" ry="2.5" style="stroke:#181818;stroke-width:0.5;" width="56" x="5" y="626.9688"/><text fill="#000000" font-family="sans-serif" font-size="14" lengthAdjust="spacing" textLength="42" x="12" y="646.9639">&#31649;&#29702;&#21592;</text><rect fill="#E2E2F0" height="30.2969" rx="2.5" ry="2.5" style="stroke:#181818;stroke-width:0.5;" width="104" x="213" y="5"/><text fill="#000000" font-family="sans-serif" font-size="14" lengthAdjust="spacing" textLength="90" x="220" y="24.9951">nfturbo_amin</text><rect fill="#E2E2F0" height="30.2969" rx="2.5" ry="2.5" style="stroke:#181818;stroke-width:0.5;" width="104" x="213" y="626.9688"/><text fill="#000000" font-family="sans-serif" font-size="14" lengthAdjust="spacing" textLength="90" x="220" y="646.9639">nfturbo_amin</text><rect fill="#E2E2F0" height="30.2969" rx="2.5" ry="2.5" style="stroke:#181818;stroke-width:0.5;" width="105" x="327" y="5"/><text fill="#000000" font-family="sans-serif" font-size="14" lengthAdjust="spacing" textLength="91" x="334" y="24.9951">nft_collection</text><rect fill="#E2E2F0" height="30.2969" rx="2.5" ry="2.5" style="stroke:#181818;stroke-width:0.5;" width="105" x="327" y="626.9688"/><text fill="#000000" font-family="sans-serif" font-size="14" lengthAdjust="spacing" textLength="91" x="334" y="646.9639">nft_collection</text><rect fill="#E2E2F0" height="30.2969" rx="2.5" ry="2.5" style="stroke:#181818;stroke-width:0.5;" width="42" x="541.5" y="5"/><text fill="#000000" font-family="sans-serif" font-size="14" lengthAdjust="spacing" textLength="28" x="548.5" y="24.9951">&#29992;&#25143;</text><rect fill="#E2E2F0" height="30.2969" rx="2.5" ry="2.5" style="stroke:#181818;stroke-width:0.5;" width="42" x="541.5" y="626.9688"/><text fill="#000000" font-family="sans-serif" font-size="14" lengthAdjust="spacing" textLength="28" x="548.5" y="646.9639">&#29992;&#25143;</text><rect fill="#E2E2F0" height="30.2969" rx="2.5" ry="2.5" style="stroke:#181818;stroke-width:0.5;" width="70" x="651.5" y="5"/><text fill="#000000" font-family="sans-serif" font-size="14" lengthAdjust="spacing" textLength="56" x="658.5" y="24.9951">&#21069;&#31471;&#39029;&#38754;</text><rect fill="#E2E2F0" height="30.2969" rx="2.5" ry="2.5" style="stroke:#181818;stroke-width:0.5;" width="70" x="651.5" y="626.9688"/><text fill="#000000" font-family="sans-serif" font-size="14" lengthAdjust="spacing" textLength="56" x="658.5" y="646.9639">&#21069;&#31471;&#39029;&#38754;</text><rect fill="#E2E2F0" height="30.2969" rx="2.5" ry="2.5" style="stroke:#181818;stroke-width:0.5;" width="48" x="731.5" y="5"/><text fill="#000000" font-family="sans-serif" font-size="14" lengthAdjust="spacing" textLength="34" x="738.5" y="24.9951">redis</text><rect fill="#E2E2F0" height="30.2969" rx="2.5" ry="2.5" style="stroke:#181818;stroke-width:0.5;" width="48" x="731.5" y="626.9688"/><text fill="#000000" font-family="sans-serif" font-size="14" lengthAdjust="spacing" textLength="34" x="738.5" y="646.9639">redis</text><rect fill="#E2E2F0" height="30.2969" rx="2.5" ry="2.5" style="stroke:#181818;stroke-width:0.5;" width="54" x="789.5" y="5"/><text fill="#000000" font-family="sans-serif" font-size="14" lengthAdjust="spacing" textLength="40" x="796.5" y="24.9951">mysql</text><rect fill="#E2E2F0" height="30.2969" rx="2.5" ry="2.5" style="stroke:#181818;stroke-width:0.5;" width="54" x="789.5" y="626.9688"/><text fill="#000000" font-family="sans-serif" font-size="14" lengthAdjust="spacing" textLength="40" x="796.5" y="646.9639">mysql</text><polygon fill="#181818" points="253,63.4297,263,67.4297,253,71.4297,257,67.4297" style="stroke:#181818;stroke-width:1.0;"/><line style="stroke:#181818;stroke-width:1.0;" x1="33" x2="259" y1="67.4297" y2="67.4297"/><text fill="#000000" font-family="sans-serif" font-size="13" font-weight="bold" lengthAdjust="spacing" textLength="9" x="40" y="62.3638">1</text><text fill="#000000" font-family="sans-serif" font-size="13" lengthAdjust="spacing" textLength="195" x="53" y="62.3638">&#32473;&#34255;&#21697;&#35774;&#32622;&#21487;&#39044;&#32422;&#21450;&#39044;&#32422;&#26102;&#38388;&#33539;&#22260;</text><polygon fill="#181818" points="367.5,92.5625,377.5,96.5625,367.5,100.5625,371.5,96.5625" style="stroke:#181818;stroke-width:1.0;"/><line style="stroke:#181818;stroke-width:1.0;" x1="265" x2="373.5" y1="96.5625" y2="96.5625"/><text fill="#000000" font-family="sans-serif" font-size="13" font-weight="bold" lengthAdjust="spacing" textLength="9" x="272" y="91.4966">2</text><text fill="#000000" font-family="sans-serif" font-size="13" lengthAdjust="spacing" textLength="52" x="285" y="91.4966">&#21019;&#24314;&#34255;&#21697;</text><polygon fill="#181818" points="674.5,121.6953,684.5,125.6953,674.5,129.6953,678.5,125.6953" style="stroke:#181818;stroke-width:1.0;"/><line style="stroke:#181818;stroke-width:1.0;" x1="562.5" x2="680.5" y1="125.6953" y2="125.6953"/><text fill="#000000" font-family="sans-serif" font-size="13" font-weight="bold" lengthAdjust="spacing" textLength="9" x="569.5" y="120.6294">3</text><text fill="#000000" font-family="sans-serif" font-size="13" lengthAdjust="spacing" textLength="52" x="582.5" y="120.6294">&#26597;&#35810;&#34255;&#21697;</text><polygon fill="#181818" points="390.5,150.8281,380.5,154.8281,390.5,158.8281,386.5,154.8281" style="stroke:#181818;stroke-width:1.0;"/><line style="stroke:#181818;stroke-width:1.0;" x1="384.5" x2="685.5" y1="154.8281" y2="154.8281"/><text fill="#000000" font-family="sans-serif" font-size="13" font-weight="bold" lengthAdjust="spacing" textLength="9" x="396.5" y="149.7622">4</text><text fill="#000000" font-family="sans-serif" font-size="13" lengthAdjust="spacing" textLength="52" x="409.5" y="149.7622">&#26597;&#35810;&#34255;&#21697;</text><line style="stroke:#181818;stroke-width:1.0;" x1="379.5" x2="421.5" y1="183.9609" y2="183.9609"/><line style="stroke:#181818;stroke-width:1.0;" x1="421.5" x2="421.5" y1="183.9609" y2="196.9609"/><line style="stroke:#181818;stroke-width:1.0;" x1="380.5" x2="421.5" y1="196.9609" y2="196.9609"/><polygon fill="#181818" points="390.5,192.9609,380.5,196.9609,390.5,200.9609,386.5,196.9609" style="stroke:#181818;stroke-width:1.0;"/><text fill="#000000" font-family="sans-serif" font-size="13" font-weight="bold" lengthAdjust="spacing" textLength="9" x="386.5" y="178.895">5</text><text fill="#000000" font-family="sans-serif" font-size="13" lengthAdjust="spacing" textLength="156" x="399.5" y="178.895">&#26681;&#25454;&#39044;&#32422;&#24773;&#20917;&#35774;&#32622;&#21830;&#21697;&#29366;&#24577;</text><path d="M297,211.9609 L361,211.9609 L361,219.0938 L351,229.0938 L297,229.0938 L297,211.9609 " fill="#EEEEEE" style="stroke:#000000;stroke-width:1.5;"/><rect fill="none" height="399.0078" style="stroke:#000000;stroke-width:1.5;" width="576.5" x="297" y="211.9609"/><text fill="#000000" font-family="sans-serif" font-size="13" font-weight="bold" lengthAdjust="spacing" textLength="19" x="312" y="225.0278">alt</text><text fill="#000000" font-family="sans-serif" font-size="11" font-weight="bold" lengthAdjust="spacing" textLength="87" x="376" y="224.1714">[&#34255;&#21697;&#19981;&#38656;&#35201;&#39044;&#32422;]</text><polygon fill="#181818" points="674.5,246.2266,684.5,250.2266,674.5,254.2266,678.5,250.2266" style="stroke:#181818;stroke-width:1.0;"/><line style="stroke:#181818;stroke-width:1.0;" x1="379.5" x2="680.5" y1="250.2266" y2="250.2266"/><text fill="#000000" font-family="sans-serif" font-size="13" font-weight="bold" lengthAdjust="spacing" textLength="9" x="386.5" y="245.1606">6</text><text fill="#000000" font-family="sans-serif" font-size="13" lengthAdjust="spacing" textLength="78" x="399.5" y="245.1606">&#36820;&#22238;&#34255;&#21697;&#20449;&#24687;</text><line style="stroke:#000000;stroke-width:1.0;stroke-dasharray:2.0,2.0;" x1="297" x2="873.5" y1="259.2266" y2="259.2266"/><text fill="#000000" font-family="sans-serif" font-size="11" font-weight="bold" lengthAdjust="spacing" textLength="54" x="302" y="269.437">[&#38656;&#35201;&#39044;&#32422;]</text><line style="stroke:#181818;stroke-width:1.0;" x1="379.5" x2="421.5" y1="294.1641" y2="294.1641"/><line style="stroke:#181818;stroke-width:1.0;" x1="421.5" x2="421.5" y1="294.1641" y2="307.1641"/><line style="stroke:#181818;stroke-width:1.0;" x1="380.5" x2="421.5" y1="307.1641" y2="307.1641"/><polygon fill="#181818" points="390.5,303.1641,380.5,307.1641,390.5,311.1641,386.5,307.1641" style="stroke:#181818;stroke-width:1.0;"/><text fill="#000000" font-family="sans-serif" font-size="13" font-weight="bold" lengthAdjust="spacing" textLength="9" x="386.5" y="289.0981">7</text><text fill="#000000" font-family="sans-serif" font-size="13" lengthAdjust="spacing" textLength="91" x="399.5" y="289.0981">&#29992;&#25143;&#26159;&#21542;&#39044;&#32422;&#36807;</text><polygon fill="#181818" points="674.5,332.2969,684.5,336.2969,674.5,340.2969,678.5,336.2969" style="stroke:#181818;stroke-width:1.0;"/><line style="stroke:#181818;stroke-width:1.0;" x1="379.5" x2="680.5" y1="336.2969" y2="336.2969"/><text fill="#000000" font-family="sans-serif" font-size="13" font-weight="bold" lengthAdjust="spacing" textLength="9" x="386.5" y="331.231">8</text><text fill="#000000" font-family="sans-serif" font-size="13" lengthAdjust="spacing" textLength="141" x="399.5" y="331.231">&#36820;&#22238;&#34255;&#21697;&#20449;&#24687;+&#39044;&#32422;&#20449;&#24687;</text><path d="M307,351.2969 L371,351.2969 L371,358.4297 L361,368.4297 L307,368.4297 L307,351.2969 " fill="#EEEEEE" style="stroke:#000000;stroke-width:1.5;"/><rect fill="none" height="252.6719" style="stroke:#000000;stroke-width:1.5;" width="556.5" x="307" y="351.2969"/><text fill="#000000" font-family="sans-serif" font-size="13" font-weight="bold" lengthAdjust="spacing" textLength="19" x="322" y="364.3638">alt</text><text fill="#000000" font-family="sans-serif" font-size="11" font-weight="bold" lengthAdjust="spacing" textLength="43" x="386" y="363.5073">[&#39044;&#32422;&#36807;]</text><polygon fill="#181818" points="674.5,385.5625,684.5,389.5625,674.5,393.5625,678.5,389.5625" style="stroke:#181818;stroke-width:1.0;"/><line style="stroke:#181818;stroke-width:1.0;" x1="562.5" x2="680.5" y1="389.5625" y2="389.5625"/><text fill="#000000" font-family="sans-serif" font-size="13" font-weight="bold" lengthAdjust="spacing" textLength="9" x="569.5" y="384.4966">9</text><text fill="#000000" font-family="sans-serif" font-size="13" lengthAdjust="spacing" textLength="52" x="582.5" y="384.4966">&#36141;&#20080;&#34255;&#21697;</text><line style="stroke:#000000;stroke-width:1.0;stroke-dasharray:2.0,2.0;" x1="307" x2="863.5" y1="398.5625" y2="398.5625"/><text fill="#000000" font-family="sans-serif" font-size="11" font-weight="bold" lengthAdjust="spacing" textLength="43" x="312" y="408.7729">[&#26410;&#39044;&#32422;]</text><path d="M317,419.3672 L381,419.3672 L381,426.5 L371,436.5 L317,436.5 L317,419.3672 " fill="#EEEEEE" style="stroke:#000000;stroke-width:1.5;"/><rect fill="none" height="177.6016" style="stroke:#000000;stroke-width:1.5;" width="536.5" x="317" y="419.3672"/><text fill="#000000" font-family="sans-serif" font-size="13" font-weight="bold" lengthAdjust="spacing" textLength="19" x="332" y="432.4341">alt</text><text fill="#000000" font-family="sans-serif" font-size="11" font-weight="bold" lengthAdjust="spacing" textLength="87" x="396" y="431.5776">[&#22788;&#20110;&#39044;&#32422;&#26399;&#38480;&#20869;]</text><polygon fill="#181818" points="674.5,453.6328,684.5,457.6328,674.5,461.6328,678.5,457.6328" style="stroke:#181818;stroke-width:1.0;"/><line style="stroke:#181818;stroke-width:1.0;" x1="562.5" x2="680.5" y1="457.6328" y2="457.6328"/><text fill="#000000" font-family="sans-serif" font-size="13" font-weight="bold" lengthAdjust="spacing" textLength="18" x="569.5" y="452.5669">10</text><text fill="#000000" font-family="sans-serif" font-size="13" lengthAdjust="spacing" textLength="26" x="591.5" y="452.5669">&#39044;&#32422;</text><polygon fill="#181818" points="390.5,482.7656,380.5,486.7656,390.5,490.7656,386.5,486.7656" style="stroke:#181818;stroke-width:1.0;"/><line style="stroke:#181818;stroke-width:1.0;" x1="384.5" x2="685.5" y1="486.7656" y2="486.7656"/><text fill="#000000" font-family="sans-serif" font-size="13" font-weight="bold" lengthAdjust="spacing" textLength="18" x="396.5" y="481.6997">11</text><text fill="#000000" font-family="sans-serif" font-size="13" lengthAdjust="spacing" textLength="78" x="418.5" y="481.6997">&#21019;&#24314;&#39044;&#32422;&#35760;&#24405;</text><polygon fill="#181818" points="743.5,511.8984,753.5,515.8984,743.5,519.8984,747.5,515.8984" style="stroke:#181818;stroke-width:1.0;"/><line style="stroke:#181818;stroke-width:1.0;" x1="379.5" x2="749.5" y1="515.8984" y2="515.8984"/><text fill="#000000" font-family="sans-serif" font-size="13" font-weight="bold" lengthAdjust="spacing" textLength="18" x="386.5" y="510.8325">12</text><text fill="#000000" font-family="sans-serif" font-size="13" lengthAdjust="spacing" textLength="78" x="408.5" y="510.8325">&#21019;&#24314;&#39044;&#32422;&#35760;&#24405;</text><polygon fill="#181818" points="804.5,541.0313,814.5,545.0313,804.5,549.0313,808.5,545.0313" style="stroke:#181818;stroke-width:1.0;"/><line style="stroke:#181818;stroke-width:1.0;" x1="379.5" x2="810.5" y1="545.0313" y2="545.0313"/><text fill="#000000" font-family="sans-serif" font-size="13" font-weight="bold" lengthAdjust="spacing" textLength="18" x="386.5" y="539.9653">13</text><text fill="#000000" font-family="sans-serif" font-size="13" lengthAdjust="spacing" textLength="78" x="408.5" y="539.9653">&#21019;&#24314;&#39044;&#32422;&#35760;&#24405;</text><line style="stroke:#000000;stroke-width:1.0;stroke-dasharray:2.0,2.0;" x1="317" x2="853.5" y1="554.0313" y2="554.0313"/><text fill="#000000" font-family="sans-serif" font-size="11" font-weight="bold" lengthAdjust="spacing" textLength="65" x="322" y="564.2417">[&#38750;&#39044;&#32422;&#26102;&#27573;]</text><polygon fill="#181818" points="674.5,584.9688,684.5,588.9688,674.5,592.9688,678.5,588.9688" style="stroke:#181818;stroke-width:1.0;"/><line style="stroke:#181818;stroke-width:1.0;" x1="562.5" x2="680.5" y1="588.9688" y2="588.9688"/><text fill="#000000" font-family="sans-serif" font-size="13" font-weight="bold" lengthAdjust="spacing" textLength="18" x="569.5" y="583.9028">14</text><text fill="#000000" font-family="sans-serif" font-size="13" lengthAdjust="spacing" textLength="78" x="591.5" y="583.9028">&#26080;&#27861;&#36141;&#20080;&#34255;&#21697;</text></g></svg>