<?xml version="1.0" encoding="us-ascii" standalone="no"?><svg xmlns="http://www.w3.org/2000/svg" xmlns:xlink="http://www.w3.org/1999/xlink" contentStyleType="text/css" height="1144px" preserveAspectRatio="none" style="width:1036px;height:1144px;background:#FFFFFF;" version="1.1" viewBox="0 0 1036 1144" width="1036px" zoomAndPan="magnify"><defs/><g><rect fill="#FFFFFF" height="963.5859" style="stroke:#181818;stroke-width:1.0;" width="10" x="17" y="91.2969"/><rect fill="none" height="243.9297" style="stroke:#000000;stroke-width:1.5;" width="665" x="365" y="725.6875"/><line style="stroke:#181818;stroke-width:0.5;stroke-dasharray:5.0,5.0;" x1="22" x2="22" y1="81.2969" y2="1063.8828"/><line style="stroke:#181818;stroke-width:0.5;stroke-dasharray:5.0,5.0;" x1="90" x2="90" y1="81.2969" y2="1063.8828"/><line style="stroke:#181818;stroke-width:0.5;stroke-dasharray:5.0,5.0;" x1="307.5" x2="307.5" y1="81.2969" y2="1063.8828"/><line style="stroke:#181818;stroke-width:0.5;stroke-dasharray:5.0,5.0;" x1="413" x2="413" y1="81.2969" y2="1063.8828"/><line style="stroke:#181818;stroke-width:0.5;stroke-dasharray:5.0,5.0;" x1="610.5" x2="610.5" y1="81.2969" y2="1063.8828"/><line style="stroke:#181818;stroke-width:0.5;stroke-dasharray:5.0,5.0;" x1="786" x2="786" y1="81.2969" y2="1063.8828"/><text fill="#000000" font-family="sans-serif" font-size="14" lengthAdjust="spacing" textLength="28" x="5" y="77.9951">&#29992;&#25143;</text><ellipse cx="22" cy="13.5" fill="#E2E2F0" rx="8" ry="8" style="stroke:#181818;stroke-width:0.5;"/><path d="M22,21.5 L22,48.5 M9,29.5 L35,29.5 M22,48.5 L9,63.5 M22,48.5 L35,63.5 " fill="none" style="stroke:#181818;stroke-width:0.5;"/><text fill="#000000" font-family="sans-serif" font-size="14" lengthAdjust="spacing" textLength="28" x="5" y="1075.8779">&#29992;&#25143;</text><ellipse cx="22" cy="1087.6797" fill="#E2E2F0" rx="8" ry="8" style="stroke:#181818;stroke-width:0.5;"/><path d="M22,1095.6797 L22,1122.6797 M9,1103.6797 L35,1103.6797 M22,1122.6797 L9,1137.6797 M22,1122.6797 L35,1137.6797 " fill="none" style="stroke:#181818;stroke-width:0.5;"/><rect fill="#E2E2F0" height="30.2969" rx="2.5" ry="2.5" style="stroke:#181818;stroke-width:0.5;" width="56" x="62" y="50"/><text fill="#000000" font-family="sans-serif" font-size="14" lengthAdjust="spacing" textLength="42" x="69" y="69.9951">&#27983;&#35272;&#22120;</text><rect fill="#E2E2F0" height="30.2969" rx="2.5" ry="2.5" style="stroke:#181818;stroke-width:0.5;" width="56" x="62" y="1062.8828"/><text fill="#000000" font-family="sans-serif" font-size="14" lengthAdjust="spacing" textLength="42" x="69" y="1082.8779">&#27983;&#35272;&#22120;</text><rect fill="#E2E2F0" height="30.2969" rx="2.5" ry="2.5" style="stroke:#181818;stroke-width:0.5;" width="75" x="270.5" y="50"/><text fill="#000000" font-family="sans-serif" font-size="14" lengthAdjust="spacing" textLength="61" x="277.5" y="69.9951">nft_trade</text><rect fill="#E2E2F0" height="30.2969" rx="2.5" ry="2.5" style="stroke:#181818;stroke-width:0.5;" width="75" x="270.5" y="1062.8828"/><text fill="#000000" font-family="sans-serif" font-size="14" lengthAdjust="spacing" textLength="61" x="277.5" y="1082.8779">nft_trade</text><rect fill="#E2E2F0" height="30.2969" rx="2.5" ry="2.5" style="stroke:#181818;stroke-width:0.5;" width="76" x="375" y="50"/><text fill="#000000" font-family="sans-serif" font-size="14" lengthAdjust="spacing" textLength="62" x="382" y="69.9951">nft_order</text><rect fill="#E2E2F0" height="30.2969" rx="2.5" ry="2.5" style="stroke:#181818;stroke-width:0.5;" width="76" x="375" y="1062.8828"/><text fill="#000000" font-family="sans-serif" font-size="14" lengthAdjust="spacing" textLength="62" x="382" y="1082.8779">nft_order</text><rect fill="#E2E2F0" height="30.2969" rx="2.5" ry="2.5" style="stroke:#181818;stroke-width:0.5;" width="105" x="558.5" y="50"/><text fill="#000000" font-family="sans-serif" font-size="14" lengthAdjust="spacing" textLength="91" x="565.5" y="69.9951">nft_collection</text><rect fill="#E2E2F0" height="30.2969" rx="2.5" ry="2.5" style="stroke:#181818;stroke-width:0.5;" width="105" x="558.5" y="1062.8828"/><text fill="#000000" font-family="sans-serif" font-size="14" lengthAdjust="spacing" textLength="91" x="565.5" y="1082.8779">nft_collection</text><rect fill="#E2E2F0" height="30.2969" rx="2.5" ry="2.5" style="stroke:#181818;stroke-width:0.5;" width="48" x="762" y="50"/><text fill="#000000" font-family="sans-serif" font-size="14" lengthAdjust="spacing" textLength="34" x="769" y="69.9951">redis</text><rect fill="#E2E2F0" height="30.2969" rx="2.5" ry="2.5" style="stroke:#181818;stroke-width:0.5;" width="48" x="762" y="1062.8828"/><text fill="#000000" font-family="sans-serif" font-size="14" lengthAdjust="spacing" textLength="34" x="769" y="1082.8779">redis</text><rect fill="#FFFFFF" height="963.5859" style="stroke:#181818;stroke-width:1.0;" width="10" x="17" y="91.2969"/><polygon fill="#181818" points="78,108.4297,88,112.4297,78,116.4297,82,112.4297" style="stroke:#181818;stroke-width:1.0;"/><line style="stroke:#181818;stroke-width:1.0;" x1="27" x2="84" y1="112.4297" y2="112.4297"/><text fill="#000000" font-family="sans-serif" font-size="13" font-weight="bold" lengthAdjust="spacing" textLength="9" x="34" y="107.3638">1</text><text fill="#000000" font-family="sans-serif" font-size="13" lengthAdjust="spacing" textLength="26" x="47" y="107.3638">&#19979;&#21333;</text><polygon fill="#181818" points="296,137.5625,306,141.5625,296,145.5625,300,141.5625" style="stroke:#181818;stroke-width:1.0;"/><line style="stroke:#181818;stroke-width:1.0;" x1="90" x2="302" y1="141.5625" y2="141.5625"/><text fill="#000000" font-family="sans-serif" font-size="13" font-weight="bold" lengthAdjust="spacing" textLength="9" x="97" y="136.4966">2</text><text fill="#000000" font-family="sans-serif" font-size="13" lengthAdjust="spacing" textLength="23" x="110" y="136.4966">buy</text><line style="stroke:#181818;stroke-width:1.0;" x1="308" x2="350" y1="170.6953" y2="170.6953"/><line style="stroke:#181818;stroke-width:1.0;" x1="350" x2="350" y1="170.6953" y2="183.6953"/><line style="stroke:#181818;stroke-width:1.0;" x1="309" x2="350" y1="183.6953" y2="183.6953"/><polygon fill="#181818" points="319,179.6953,309,183.6953,319,187.6953,315,183.6953" style="stroke:#181818;stroke-width:1.0;"/><text fill="#000000" font-family="sans-serif" font-size="13" font-weight="bold" lengthAdjust="spacing" textLength="9" x="315" y="165.6294">3</text><text fill="#000000" font-family="sans-serif" font-size="13" lengthAdjust="spacing" textLength="78" x="328" y="165.6294">&#39044;&#29983;&#25104;&#35746;&#21333;&#21495;</text><line style="stroke:#181818;stroke-width:1.0;" x1="308" x2="350" y1="212.8281" y2="212.8281"/><line style="stroke:#181818;stroke-width:1.0;" x1="350" x2="350" y1="212.8281" y2="225.8281"/><line style="stroke:#181818;stroke-width:1.0;" x1="309" x2="350" y1="225.8281" y2="225.8281"/><polygon fill="#181818" points="319,221.8281,309,225.8281,319,229.8281,315,225.8281" style="stroke:#181818;stroke-width:1.0;"/><text fill="#000000" font-family="sans-serif" font-size="13" font-weight="bold" lengthAdjust="spacing" textLength="9" x="315" y="207.7622">4</text><text fill="#000000" font-family="sans-serif" font-size="13" lengthAdjust="spacing" textLength="78" x="328" y="207.7622">&#32452;&#35013;&#19979;&#21333;&#21442;&#25968;</text><polygon fill="#181818" points="401,250.9609,411,254.9609,401,258.9609,405,254.9609" style="stroke:#181818;stroke-width:1.0;"/><line style="stroke:#181818;stroke-width:1.0;" x1="308" x2="407" y1="254.9609" y2="254.9609"/><text fill="#000000" font-family="sans-serif" font-size="13" font-weight="bold" lengthAdjust="spacing" textLength="9" x="315" y="249.895">5</text><text fill="#000000" font-family="sans-serif" font-size="13" lengthAdjust="spacing" textLength="41" x="328" y="249.895">create</text><line style="stroke:#181818;stroke-width:1.0;" x1="413" x2="455" y1="284.0938" y2="284.0938"/><line style="stroke:#181818;stroke-width:1.0;" x1="455" x2="455" y1="284.0938" y2="297.0938"/><line style="stroke:#181818;stroke-width:1.0;" x1="414" x2="455" y1="297.0938" y2="297.0938"/><polygon fill="#181818" points="424,293.0938,414,297.0938,424,301.0938,420,297.0938" style="stroke:#181818;stroke-width:1.0;"/><text fill="#000000" font-family="sans-serif" font-size="13" font-weight="bold" lengthAdjust="spacing" textLength="9" x="420" y="279.0278">6</text><text fill="#000000" font-family="sans-serif" font-size="13" lengthAdjust="spacing" textLength="52" x="433" y="279.0278">&#21069;&#32622;&#26657;&#39564;</text><path d="M497,271.4609 L497,296.4609 L583,296.4609 L583,281.4609 L573,271.4609 L497,271.4609 " fill="#FEFFDD" style="stroke:#181818;stroke-width:0.5;"/><path d="M573,271.4609 L573,281.4609 L583,281.4609 L573,271.4609 " fill="#FEFFDD" style="stroke:#181818;stroke-width:0.5;"/><text fill="#000000" font-family="sans-serif" font-size="13" lengthAdjust="spacing" textLength="65" x="503" y="288.5278">&#36131;&#20219;&#38142;&#27169;&#24335;</text><polygon fill="#181818" points="599,322.2266,609,326.2266,599,330.2266,603,326.2266" style="stroke:#181818;stroke-width:1.0;"/><line style="stroke:#181818;stroke-width:1.0;" x1="413" x2="605" y1="326.2266" y2="326.2266"/><text fill="#000000" font-family="sans-serif" font-size="13" font-weight="bold" lengthAdjust="spacing" textLength="9" x="420" y="321.1606">7</text><text fill="#000000" font-family="sans-serif" font-size="13" lengthAdjust="spacing" textLength="126" x="433" y="321.1606">preInventoryDeduct</text><polygon fill="#181818" points="774,351.3594,784,355.3594,774,359.3594,778,355.3594" style="stroke:#181818;stroke-width:1.0;"/><line style="stroke:#181818;stroke-width:1.0;" x1="611" x2="780" y1="355.3594" y2="355.3594"/><text fill="#000000" font-family="sans-serif" font-size="13" font-weight="bold" lengthAdjust="spacing" textLength="9" x="618" y="350.2935">8</text><text fill="#000000" font-family="sans-serif" font-size="13" lengthAdjust="spacing" textLength="103" x="631" y="350.2935">Redis &#24211;&#23384;&#39044;&#25187;&#20943;</text><path d="M751,368.3594 L751,393.3594 L821,393.3594 L821,378.3594 L811,368.3594 L751,368.3594 " fill="#FEFFDD" style="stroke:#181818;stroke-width:0.5;"/><path d="M811,368.3594 L811,378.3594 L821,378.3594 L811,368.3594 " fill="#FEFFDD" style="stroke:#181818;stroke-width:0.5;"/><text fill="#000000" font-family="sans-serif" font-size="13" lengthAdjust="spacing" textLength="49" x="757" y="385.4263">lua &#33050;&#26412;</text><line style="stroke:#181818;stroke-width:1.0;" x1="786" x2="828" y1="419.625" y2="419.625"/><line style="stroke:#181818;stroke-width:1.0;" x1="828" x2="828" y1="419.625" y2="432.625"/><line style="stroke:#181818;stroke-width:1.0;" x1="787" x2="828" y1="432.625" y2="432.625"/><polygon fill="#181818" points="797,428.625,787,432.625,797,436.625,793,432.625" style="stroke:#181818;stroke-width:1.0;"/><text fill="#000000" font-family="sans-serif" font-size="13" font-weight="bold" lengthAdjust="spacing" textLength="9" x="793" y="414.5591">9</text><text fill="#000000" font-family="sans-serif" font-size="13" lengthAdjust="spacing" textLength="52" x="806" y="414.5591">&#25187;&#20943;&#24211;&#23384;</text><line style="stroke:#181818;stroke-width:1.0;" x1="786" x2="828" y1="461.7578" y2="461.7578"/><line style="stroke:#181818;stroke-width:1.0;" x1="828" x2="828" y1="461.7578" y2="474.7578"/><line style="stroke:#181818;stroke-width:1.0;" x1="787" x2="828" y1="474.7578" y2="474.7578"/><polygon fill="#181818" points="797,470.7578,787,474.7578,797,478.7578,793,474.7578" style="stroke:#181818;stroke-width:1.0;"/><text fill="#000000" font-family="sans-serif" font-size="13" font-weight="bold" lengthAdjust="spacing" textLength="18" x="793" y="456.6919">10</text><text fill="#000000" font-family="sans-serif" font-size="13" lengthAdjust="spacing" textLength="78" x="815" y="456.6919">&#26032;&#22686;&#25187;&#20943;&#27969;&#27700;</text><polygon fill="#181818" points="622,499.8906,612,503.8906,622,507.8906,618,503.8906" style="stroke:#181818;stroke-width:1.0;"/><line style="stroke:#181818;stroke-width:1.0;stroke-dasharray:2.0,2.0;" x1="616" x2="785" y1="503.8906" y2="503.8906"/><text fill="#000000" font-family="sans-serif" font-size="13" font-weight="bold" lengthAdjust="spacing" textLength="18" x="628" y="498.8247">11</text><text fill="#000000" font-family="sans-serif" font-size="13" lengthAdjust="spacing" textLength="129" x="650" y="498.8247">Redis &#24211;&#23384;&#39044;&#25187;&#20943;&#25104;&#21151;</text><polygon fill="#181818" points="424,529.0234,414,533.0234,424,537.0234,420,533.0234" style="stroke:#181818;stroke-width:1.0;"/><line style="stroke:#181818;stroke-width:1.0;stroke-dasharray:2.0,2.0;" x1="418" x2="610" y1="533.0234" y2="533.0234"/><text fill="#000000" font-family="sans-serif" font-size="13" font-weight="bold" lengthAdjust="spacing" textLength="18" x="430" y="527.9575">12</text><text fill="#000000" font-family="sans-serif" font-size="13" lengthAdjust="spacing" textLength="65" x="452" y="527.9575">&#39044;&#25187;&#20943;&#25104;&#21151;</text><line style="stroke:#181818;stroke-width:1.0;" x1="413" x2="455" y1="562.1563" y2="562.1563"/><line style="stroke:#181818;stroke-width:1.0;" x1="455" x2="455" y1="562.1563" y2="575.1563"/><line style="stroke:#181818;stroke-width:1.0;" x1="414" x2="455" y1="575.1563" y2="575.1563"/><polygon fill="#181818" points="424,571.1563,414,575.1563,424,579.1563,420,575.1563" style="stroke:#181818;stroke-width:1.0;"/><text fill="#000000" font-family="sans-serif" font-size="13" font-weight="bold" lengthAdjust="spacing" textLength="18" x="420" y="557.0903">13</text><text fill="#000000" font-family="sans-serif" font-size="13" lengthAdjust="spacing" textLength="101" x="442" y="557.0903">&#21019;&#24314;&#35746;&#21333;&#65288;INIT&#65289;</text><line style="stroke:#181818;stroke-width:1.0;" x1="413" x2="455" y1="604.2891" y2="604.2891"/><line style="stroke:#181818;stroke-width:1.0;" x1="455" x2="455" y1="604.2891" y2="617.2891"/><line style="stroke:#181818;stroke-width:1.0;" x1="414" x2="455" y1="617.2891" y2="617.2891"/><polygon fill="#181818" points="424,613.2891,414,617.2891,424,621.2891,420,617.2891" style="stroke:#181818;stroke-width:1.0;"/><text fill="#000000" font-family="sans-serif" font-size="13" font-weight="bold" lengthAdjust="spacing" textLength="18" x="420" y="599.2231">14</text><text fill="#000000" font-family="sans-serif" font-size="13" lengthAdjust="spacing" textLength="104" x="442" y="599.2231">&#21457;&#36865;&#35746;&#21333;&#21019;&#24314;&#20107;&#20214;</text><polygon fill="#181818" points="319,642.4219,309,646.4219,319,650.4219,315,646.4219" style="stroke:#181818;stroke-width:1.0;"/><line style="stroke:#181818;stroke-width:1.0;stroke-dasharray:2.0,2.0;" x1="313" x2="412" y1="646.4219" y2="646.4219"/><text fill="#000000" font-family="sans-serif" font-size="13" font-weight="bold" lengthAdjust="spacing" textLength="18" x="325" y="641.356">15</text><text fill="#000000" font-family="sans-serif" font-size="13" lengthAdjust="spacing" textLength="52" x="347" y="641.356">&#19979;&#21333;&#25104;&#21151;</text><polygon fill="#181818" points="101,671.5547,91,675.5547,101,679.5547,97,675.5547" style="stroke:#181818;stroke-width:1.0;"/><line style="stroke:#181818;stroke-width:1.0;stroke-dasharray:2.0,2.0;" x1="95" x2="307" y1="675.5547" y2="675.5547"/><text fill="#000000" font-family="sans-serif" font-size="13" font-weight="bold" lengthAdjust="spacing" textLength="18" x="107" y="670.4888">16</text><text fill="#000000" font-family="sans-serif" font-size="13" lengthAdjust="spacing" textLength="39" x="129" y="670.4888">&#35746;&#21333;&#21495;</text><polygon fill="#181818" points="401,703.6875,411,707.6875,401,711.6875,405,707.6875" style="stroke:#181818;stroke-width:1.0;"/><line style="stroke:#181818;stroke-width:1.0;" x1="90" x2="407" y1="707.6875" y2="707.6875"/><text fill="#000000" font-family="sans-serif" font-size="13" font-weight="bold" lengthAdjust="spacing" textLength="18" x="97" y="702.6216">17</text><text fill="#000000" font-family="sans-serif" font-size="13" lengthAdjust="spacing" textLength="78" x="119" y="702.6216">&#36718;&#35810;&#35746;&#21333;&#29366;&#24577;</text><path d="M418,688.5547 L418,713.5547 L517,713.5547 L517,698.5547 L507,688.5547 L418,688.5547 " fill="#FEFFDD" style="stroke:#181818;stroke-width:0.5;"/><path d="M507,688.5547 L507,698.5547 L517,698.5547 L507,688.5547 " fill="#FEFFDD" style="stroke:#181818;stroke-width:0.5;"/><text fill="#000000" font-family="sans-serif" font-size="13" lengthAdjust="spacing" textLength="78" x="424" y="705.6216">&#21069;&#31471;&#19981;&#26029;&#36718;&#35810;</text><path d="M365,725.6875 L527,725.6875 L527,732.8203 L517,742.8203 L365,742.8203 L365,725.6875 " fill="#EEEEEE" style="stroke:#000000;stroke-width:1.5;"/><rect fill="none" height="243.9297" style="stroke:#000000;stroke-width:1.5;" width="665" x="365" y="725.6875"/><text fill="#000000" font-family="sans-serif" font-size="13" font-weight="bold" lengthAdjust="spacing" textLength="117" x="380" y="738.7544">&#24322;&#27493;&#25191;&#34892; confirm</text><line style="stroke:#181818;stroke-width:1.0;stroke-dasharray:2.0,2.0;" x1="413" x2="455" y1="763.9531" y2="763.9531"/><line style="stroke:#181818;stroke-width:1.0;stroke-dasharray:2.0,2.0;" x1="455" x2="455" y1="763.9531" y2="776.9531"/><line style="stroke:#181818;stroke-width:1.0;stroke-dasharray:2.0,2.0;" x1="414" x2="455" y1="776.9531" y2="776.9531"/><polygon fill="#181818" points="424,772.9531,414,776.9531,424,780.9531,420,776.9531" style="stroke:#181818;stroke-width:1.0;"/><text fill="#000000" font-family="sans-serif" font-size="13" font-weight="bold" lengthAdjust="spacing" textLength="18" x="420" y="758.8872">18</text><text fill="#000000" font-family="sans-serif" font-size="13" lengthAdjust="spacing" textLength="104" x="442" y="758.8872">&#25509;&#25910;&#35746;&#21333;&#21019;&#24314;&#20107;&#20214;</text><polygon fill="#181818" points="599,802.0859,609,806.0859,599,810.0859,603,806.0859" style="stroke:#181818;stroke-width:1.0;"/><line style="stroke:#181818;stroke-width:1.0;" x1="413" x2="605" y1="806.0859" y2="806.0859"/><text fill="#000000" font-family="sans-serif" font-size="13" font-weight="bold" lengthAdjust="spacing" textLength="18" x="420" y="801.02">19</text><text fill="#000000" font-family="sans-serif" font-size="13" lengthAdjust="spacing" textLength="45" x="442" y="801.02">trySale</text><line style="stroke:#181818;stroke-width:1.0;" x1="611" x2="653" y1="835.2188" y2="835.2188"/><line style="stroke:#181818;stroke-width:1.0;" x1="653" x2="653" y1="835.2188" y2="848.2188"/><line style="stroke:#181818;stroke-width:1.0;" x1="612" x2="653" y1="848.2188" y2="848.2188"/><polygon fill="#181818" points="622,844.2188,612,848.2188,622,852.2188,618,848.2188" style="stroke:#181818;stroke-width:1.0;"/><text fill="#000000" font-family="sans-serif" font-size="13" font-weight="bold" lengthAdjust="spacing" textLength="18" x="618" y="830.1528">20</text><text fill="#000000" font-family="sans-serif" font-size="13" lengthAdjust="spacing" textLength="65" x="640" y="830.1528">&#24211;&#23384;&#39044;&#25187;&#20943;</text><path d="M717,822.5859 L717,847.5859 L1015,847.5859 L1015,832.5859 L1005,822.5859 L717,822.5859 " fill="#FEFFDD" style="stroke:#181818;stroke-width:0.5;"/><path d="M1005,822.5859 L1005,832.5859 L1015,832.5859 L1005,822.5859 " fill="#FEFFDD" style="stroke:#181818;stroke-width:0.5;"/><text fill="#000000" font-family="sans-serif" font-size="13" lengthAdjust="spacing" textLength="277" x="723" y="839.6528">&#22522;&#20110; inventoryHint &#23545;saleable_inventory&#25187;&#20943;</text><line style="stroke:#181818;stroke-width:1.0;" x1="611" x2="653" y1="877.3516" y2="877.3516"/><line style="stroke:#181818;stroke-width:1.0;" x1="653" x2="653" y1="877.3516" y2="890.3516"/><line style="stroke:#181818;stroke-width:1.0;" x1="612" x2="653" y1="890.3516" y2="890.3516"/><polygon fill="#181818" points="622,886.3516,612,890.3516,622,894.3516,618,890.3516" style="stroke:#181818;stroke-width:1.0;"/><text fill="#000000" font-family="sans-serif" font-size="13" font-weight="bold" lengthAdjust="spacing" textLength="18" x="618" y="872.2856">21</text><text fill="#000000" font-family="sans-serif" font-size="13" lengthAdjust="spacing" textLength="104" x="640" y="872.2856">&#26032;&#22686;&#24211;&#23384;&#25187;&#20943;&#27969;&#27700;</text><polygon fill="#181818" points="424,915.4844,414,919.4844,424,923.4844,420,919.4844" style="stroke:#181818;stroke-width:1.0;"/><line style="stroke:#181818;stroke-width:1.0;stroke-dasharray:2.0,2.0;" x1="418" x2="610" y1="919.4844" y2="919.4844"/><text fill="#000000" font-family="sans-serif" font-size="13" font-weight="bold" lengthAdjust="spacing" textLength="18" x="430" y="914.4185">22</text><text fill="#000000" font-family="sans-serif" font-size="13" lengthAdjust="spacing" textLength="130" x="452" y="914.4185">&#24211;&#23384;&#25968;&#25454;&#24211;&#39044;&#25187;&#20943;&#25104;&#21151;</text><line style="stroke:#181818;stroke-width:1.0;stroke-dasharray:2.0,2.0;" x1="413" x2="455" y1="948.6172" y2="948.6172"/><line style="stroke:#181818;stroke-width:1.0;stroke-dasharray:2.0,2.0;" x1="455" x2="455" y1="948.6172" y2="961.6172"/><line style="stroke:#181818;stroke-width:1.0;stroke-dasharray:2.0,2.0;" x1="414" x2="455" y1="961.6172" y2="961.6172"/><polygon fill="#181818" points="424,957.6172,414,961.6172,424,965.6172,420,961.6172" style="stroke:#181818;stroke-width:1.0;"/><text fill="#000000" font-family="sans-serif" font-size="13" font-weight="bold" lengthAdjust="spacing" textLength="18" x="420" y="943.5513">23</text><text fill="#000000" font-family="sans-serif" font-size="13" lengthAdjust="spacing" textLength="162" x="442" y="943.5513">&#35746;&#21333;&#29366;&#24577;&#25512;&#36827;&#65288;CONFIRM&#65289;</text><polygon fill="#181818" points="101,996.75,91,1000.75,101,1004.75,97,1000.75" style="stroke:#181818;stroke-width:1.0;"/><line style="stroke:#181818;stroke-width:1.0;stroke-dasharray:2.0,2.0;" x1="95" x2="412" y1="1000.75" y2="1000.75"/><text fill="#000000" font-family="sans-serif" font-size="13" font-weight="bold" lengthAdjust="spacing" textLength="18" x="107" y="995.6841">24</text><text fill="#000000" font-family="sans-serif" font-size="13" lengthAdjust="spacing" textLength="65" x="129" y="995.6841">&#35746;&#21333;&#24453;&#25903;&#20184;</text><path d="M418,981.6172 L418,1006.6172 L556,1006.6172 L556,991.6172 L546,981.6172 L418,981.6172 " fill="#FEFFDD" style="stroke:#181818;stroke-width:0.5;"/><path d="M546,981.6172 L546,991.6172 L556,991.6172 L546,981.6172 " fill="#FEFFDD" style="stroke:#181818;stroke-width:0.5;"/><text fill="#000000" font-family="sans-serif" font-size="13" lengthAdjust="spacing" textLength="117" x="424" y="998.6841">&#24322;&#27493;&#35746;&#21333;&#21019;&#24314;&#25104;&#21151;&#21518;</text><line style="stroke:#181818;stroke-width:1.0;" x1="90" x2="132" y1="1032.8828" y2="1032.8828"/><line style="stroke:#181818;stroke-width:1.0;" x1="132" x2="132" y1="1032.8828" y2="1045.8828"/><line style="stroke:#181818;stroke-width:1.0;" x1="91" x2="132" y1="1045.8828" y2="1045.8828"/><polygon fill="#181818" points="101,1041.8828,91,1045.8828,101,1049.8828,97,1045.8828" style="stroke:#181818;stroke-width:1.0;"/><text fill="#000000" font-family="sans-serif" font-size="13" font-weight="bold" lengthAdjust="spacing" textLength="18" x="97" y="1027.8169">25</text><text fill="#000000" font-family="sans-serif" font-size="13" lengthAdjust="spacing" textLength="182" x="119" y="1027.8169">&#28210;&#26579;&#25903;&#20184;&#20108;&#32500;&#30721;&#65292;&#24320;&#22987;&#25903;&#20184;&#27969;&#31243;</text></g></svg>